<?xml version="1.0" encoding="UTF-8" standalone="no"?>
<!DOCTYPE svg PUBLIC "-//W3C//DTD SVG 1.1//EN" "http://www.w3.org/Graphics/SVG/1.1/DTD/svg11.dtd">
<svg width="100%" height="100%" viewBox="0 0 2028 1777" version="1.1" xmlns="http://www.w3.org/2000/svg" xmlns:xlink="http://www.w3.org/1999/xlink" xml:space="preserve" xmlns:serif="http://www.serif.com/" style="fill-rule:evenodd;clip-rule:evenodd;stroke-linejoin:round;stroke-miterlimit:2;">
    <g transform="matrix(1,0,0,1,-256.306,-111.822)">
        <path d="M780.008,959.565C779.829,959.568 761.86,959.729 736.79,954.995C713.649,950.625 679.528,941.067 648.38,920.359C617.541,899.856 577.549,892.679 549.43,890.269C518.931,887.654 495.462,889.929 495.229,889.952L495.036,888.013C495.271,887.989 518.919,885.698 549.597,888.327C577.942,890.757 618.276,898.005 649.459,918.736C680.318,939.254 714.152,948.732 737.102,953.07C761.993,957.776 779.807,957.619 779.984,957.617L780.008,959.565Z" style="fill:rgb(255,186,85);fill-rule:nonzero;"/>
        <path d="M497.835,888.626C524.79,895.411 546.937,912.466 572.458,932.121C592.435,947.507 615.078,964.944 643.565,979.83C666.969,992.06 700.598,996.869 735.828,993.025C765.653,989.771 791.386,980.52 800.905,969.769C801.277,969.349 801.624,968.928 801.945,968.504C806.274,962.794 805.826,957.089 800.613,951.549C725.564,871.779 646.661,859.239 593.686,862.767C543.872,866.083 507.009,883.821 497.835,888.626ZM802.352,971.076C781.798,994.293 694.483,1008.64 642.662,981.558C614.024,966.593 591.31,949.1 571.268,933.665C545.148,913.549 522.59,896.176 494.918,889.933L492.496,889.387L494.643,888.14C495.046,887.906 535.596,864.701 593.47,860.827C627.467,858.553 660.714,863.286 692.288,874.896C731.738,889.403 768.661,914.743 802.033,950.214L801.323,950.881L802.033,950.214C807.91,956.461 808.417,963.192 803.498,969.681C803.144,970.148 802.76,970.615 802.352,971.076Z" style="fill:rgb(255,186,85);fill-rule:nonzero;"/>
        <path d="M587.717,894.282L586.105,895.378L565.862,865.601L567.473,864.505L587.717,894.282Z" style="fill:rgb(255,186,85);fill-rule:nonzero;"/>
        <path d="M611.991,902.25L575.52,935.915L574.197,934.482L610.669,900.818L611.991,902.25Z" style="fill:rgb(255,186,85);fill-rule:nonzero;"/>
        <path d="M649.892,919.476L647.948,919.621L643.78,863.855L645.723,863.711L649.892,919.476Z" style="fill:rgb(255,186,85);fill-rule:nonzero;"/>
        <path d="M770.52,879.313C770.286,879.231 746.861,870.882 717.033,850.404C689.514,831.512 650.727,798.123 622.231,746.347C589.199,686.328 553.272,648.481 528.95,627.3C502.599,604.353 483.816,595.481 483.629,595.395L484.419,593.696C484.608,593.785 503.573,602.731 530.107,625.826C554.563,647.11 590.683,685.142 623.871,745.444C652.19,796.898 690.74,830.083 718.093,848.861C747.718,869.2 770.91,877.467 771.14,877.548L770.52,879.313Z" style="fill:rgb(255,186,85);fill-rule:nonzero;"/>
        <path d="M485.145,595.199C526.1,764.604 619.25,831.322 690.247,857.459C730.522,872.287 768.098,875.921 792.528,876.358C811.1,876.691 825.093,875.279 831.855,874.395C824.847,872.181 810.088,866.108 790.139,850.309C764.606,830.086 725.47,789.354 684.026,710.146C642.82,631.396 590.677,604.414 554.19,595.645C518.372,587.037 490.281,593.797 485.145,595.199ZM841.971,874.604L836.691,875.569C836.52,875.601 819.215,878.702 792.577,878.232C768.005,877.798 730.207,874.152 689.681,859.246C644.121,842.488 604.476,815.211 571.846,778.172C531.087,731.906 501.234,670.198 483.114,594.764L482.91,593.914L483.744,593.652C484.049,593.557 514.641,584.215 554.627,593.825C578.1,599.466 600.187,610.431 620.273,626.417C645.35,646.373 667.357,674.252 685.685,709.278C726.977,788.194 765.911,828.731 791.302,848.841C818.702,870.542 836.5,873.695 836.676,873.725L841.971,874.604Z" style="fill:rgb(255,186,85);fill-rule:nonzero;"/>
        <path d="M635.342,767.248L560.477,763.981L560.558,762.111L635.423,765.377L635.342,767.248Z" style="fill:rgb(255,186,85);fill-rule:nonzero;"/>
        <path d="M612.559,726.146L610.687,726.147L610.575,620.999L612.447,620.997L612.559,726.146Z" style="fill:rgb(255,186,85);fill-rule:nonzero;"/>
        <path d="M563.548,661.459L502.921,658.288L503.019,656.419L563.646,659.589L563.548,661.459Z" style="fill:rgb(255,186,85);fill-rule:nonzero;"/>
        <path d="M2014.16,505.695L1985.8,459.272C1983.48,455.465 1984.68,450.493 1988.49,448.169C1992.29,445.844 1997.27,447.046 1999.59,450.852L2019.64,483.681L2072.95,452.131C2076.79,449.859 2081.74,451.129 2084.01,454.968C2086.28,458.807 2085.01,463.76 2081.17,466.033L2014.16,505.695Z" style="fill:rgb(120,194,255);fill-rule:nonzero;"/>
        <path d="M2033.2,387.885C1985,387.885 1945.79,427.094 1945.79,475.289C1945.79,523.484 1985,562.693 2033.2,562.693C2081.39,562.693 2120.6,523.484 2120.6,475.289C2120.6,427.094 2081.39,387.885 2033.2,387.885ZM2033.2,577.261C1976.97,577.261 1931.22,531.517 1931.22,475.289C1931.22,419.062 1976.97,373.317 2033.2,373.317C2089.42,373.317 2135.17,419.062 2135.17,475.289C2135.17,531.517 2089.42,577.261 2033.2,577.261Z" style="fill:rgb(120,194,255);fill-rule:nonzero;"/>
        <path d="M1698.36,355.717L1680.84,327.027C1679.4,324.675 1680.14,321.603 1682.5,320.166C1684.85,318.729 1687.92,319.472 1689.36,321.824L1701.75,342.111L1734.69,322.614C1737.06,321.211 1740.13,321.996 1741.53,324.368C1742.93,326.741 1742.15,329.802 1739.78,331.206L1698.36,355.717Z" style="fill:rgb(120,194,255);fill-rule:nonzero;"/>
        <path d="M1710.13,282.912C1680.34,282.912 1656.11,307.143 1656.11,336.926C1656.11,366.709 1680.34,390.94 1710.13,390.94C1739.91,390.94 1764.14,366.709 1764.14,336.926C1764.14,307.143 1739.91,282.912 1710.13,282.912ZM1710.13,399.942C1675.38,399.942 1647.11,371.673 1647.11,336.926C1647.11,302.178 1675.38,273.909 1710.13,273.909C1744.87,273.909 1773.14,302.178 1773.14,336.926C1773.14,371.673 1744.87,399.942 1710.13,399.942Z" style="fill:rgb(120,194,255);fill-rule:nonzero;"/>
        <path d="M1374.31,249.822L1347.43,205.814C1345.23,202.206 1346.37,197.493 1349.98,195.289C1353.59,193.085 1358.3,194.225 1360.5,197.832L1379.51,228.953L1430.04,199.045C1433.68,196.892 1438.38,198.096 1440.53,201.734C1442.69,205.374 1441.48,210.069 1437.84,212.224L1374.31,249.822Z" style="fill:rgb(120,194,255);fill-rule:nonzero;"/>
        <path d="M1392.36,138.141C1346.67,138.141 1309.5,175.311 1309.5,220.998C1309.5,266.686 1346.67,303.855 1392.36,303.855C1438.05,303.855 1475.22,266.686 1475.22,220.998C1475.22,175.311 1438.05,138.141 1392.36,138.141ZM1392.36,317.665C1339.06,317.665 1295.69,274.3 1295.69,220.998C1295.69,167.696 1339.06,124.332 1392.36,124.332C1445.66,124.332 1489.03,167.696 1489.03,220.998C1489.03,274.3 1445.66,317.665 1392.36,317.665Z" style="fill:rgb(120,194,255);fill-rule:nonzero;"/>
        <path d="M1090,355.314L1072.24,326.234C1070.79,323.85 1071.54,320.735 1073.92,319.279C1076.31,317.823 1079.42,318.576 1080.88,320.96L1093.44,341.524L1126.83,321.762C1129.23,320.338 1132.34,321.134 1133.76,323.539C1135.18,325.943 1134.39,329.046 1131.98,330.47L1090,355.314Z" style="fill:rgb(120,194,255);fill-rule:nonzero;"/>
        <path d="M1101.93,281.517C1071.74,281.517 1047.18,306.078 1047.18,336.268C1047.18,366.457 1071.74,391.018 1101.93,391.018C1132.12,391.018 1156.68,366.457 1156.68,336.268C1156.68,306.078 1132.12,281.517 1101.93,281.517ZM1101.93,400.143C1066.71,400.143 1038.05,371.488 1038.05,336.268C1038.05,301.047 1066.71,272.393 1101.93,272.393C1137.15,272.393 1165.8,301.047 1165.8,336.268C1165.8,371.488 1137.15,400.143 1101.93,400.143Z" style="fill:rgb(120,194,255);fill-rule:nonzero;"/>
        <path d="M840.474,215.626L818.24,179.224C816.417,176.237 817.358,172.34 820.344,170.517C823.329,168.694 827.226,169.637 829.05,172.621L844.773,198.363L886.572,173.624C889.583,171.842 893.467,172.838 895.249,175.849C897.03,178.859 896.034,182.743 893.024,184.524L840.474,215.626Z" style="fill:rgb(120,194,255);fill-rule:nonzero;"/>
        <path d="M855.402,123.245C817.61,123.245 786.864,153.991 786.864,191.783C786.864,229.575 817.61,260.321 855.402,260.321C893.194,260.321 923.94,229.575 923.94,191.783C923.94,153.991 893.194,123.245 855.402,123.245ZM855.402,271.744C811.312,271.744 775.441,235.874 775.441,191.783C775.441,147.692 811.312,111.822 855.402,111.822C899.492,111.822 935.363,147.692 935.363,191.783C935.363,235.874 899.492,271.744 855.402,271.744Z" style="fill:rgb(120,194,255);fill-rule:nonzero;"/>
        <path d="M557.242,396.601L532.591,356.242C530.57,352.932 531.614,348.61 534.924,346.589C538.233,344.568 542.554,345.613 544.576,348.921L562.007,377.461L608.349,350.034C611.686,348.059 615.993,349.163 617.967,352.5C619.942,355.838 618.838,360.144 615.501,362.119L557.242,396.601Z" style="fill:rgb(120,194,255);fill-rule:nonzero;"/>
        <path d="M573.792,294.182C531.893,294.182 497.807,328.268 497.807,370.166C497.807,412.064 531.893,446.151 573.792,446.151C615.689,446.151 649.776,412.064 649.776,370.166C649.776,328.268 615.689,294.182 573.792,294.182ZM573.792,458.815C524.91,458.815 485.142,419.047 485.142,370.166C485.142,321.285 524.91,281.517 573.792,281.517C622.672,281.517 662.44,321.285 662.44,370.166C662.44,419.047 622.672,458.815 573.792,458.815Z" style="fill:rgb(120,194,255);fill-rule:nonzero;"/>
        <path d="M1909.64,230.657L1895.63,207.709C1894.48,205.827 1895.07,203.369 1896.95,202.22C1898.84,201.07 1901.29,201.665 1902.44,203.546L1912.35,219.774L1938.71,204.179C1940.6,203.056 1943.05,203.684 1944.17,205.581C1945.3,207.479 1944.67,209.928 1942.77,211.051L1909.64,230.657Z" style="fill:rgb(120,194,255);fill-rule:nonzero;"/>
        <path d="M1919.05,172.419C1895.23,172.419 1875.85,191.802 1875.85,215.626C1875.85,239.451 1895.23,258.833 1919.05,258.833C1942.88,258.833 1962.26,239.451 1962.26,215.626C1962.26,191.802 1942.88,172.419 1919.05,172.419ZM1919.05,266.035C1891.26,266.035 1868.65,243.421 1868.65,215.626C1868.65,187.831 1891.26,165.218 1919.05,165.218C1946.85,165.218 1969.46,187.831 1969.46,215.626C1969.46,243.421 1946.85,266.035 1919.05,266.035Z" style="fill:rgb(120,194,255);fill-rule:nonzero;"/>
        <rect x="1204.24" y="1207.01" width="139.03" height="422.28" style="fill:rgb(143,143,143);fill-rule:nonzero;"/>
        <path d="M734.547,1410.43L1812.96,1410.43C1846.68,1410.43 1874.02,1383.09 1874.02,1349.37L1874.02,624.575C1874.02,590.852 1846.68,563.514 1812.96,563.514L734.547,563.514C700.824,563.514 673.486,590.852 673.486,624.575L673.486,1349.37C673.486,1383.09 700.824,1410.43 734.547,1410.43Z" style="fill:rgb(240,240,240);fill-rule:nonzero;"/>
        <rect x="720.503" y="473.374" width="1106.5" height="804.336" style="fill:white;fill-rule:nonzero;"/>
        <rect x="720.503" y="473.374" width="1106.5" height="97.149" style="fill:url(#_Linear1);"/>
        <path d="M1692.35,1338.44C1692.35,1359.83 1712.74,1377.17 1737.88,1377.17C1763.03,1377.17 1783.42,1359.83 1783.42,1338.44C1783.42,1317.05 1763.03,1299.71 1737.88,1299.71C1712.74,1299.71 1692.35,1317.05 1692.35,1338.44Z" style="fill:rgb(204,204,204);fill-rule:nonzero;"/>
        <rect x="961.013" y="1613.36" width="625.477" height="31.87" style="fill:rgb(204,204,204);fill-rule:nonzero;"/>
        <path d="M911.34,540.304L779.915,540.304C772.627,540.304 766.718,534.396 766.718,527.107L766.718,516.79C766.718,509.502 772.627,503.594 779.915,503.594L911.34,503.594C918.628,503.594 924.536,509.502 924.536,516.79L924.536,527.107C924.536,534.396 918.628,540.304 911.34,540.304Z" style="fill:rgb(245,247,255);fill-rule:nonzero;"/>
        <rect x="801.571" y="909.018" width="579.319" height="19.913" style="fill:rgb(230,230,230);fill-rule:nonzero;"/>
        <rect x="801.571" y="944.883" width="429.679" height="19.913" style="fill:rgb(230,230,230);fill-rule:nonzero;"/>
        <rect x="801.571" y="1022.81" width="272.449" height="19.92" style="fill:rgb(230,230,230);fill-rule:nonzero;"/>
        <rect x="801.571" y="1058.68" width="489.479" height="19.91" style="fill:rgb(230,230,230);fill-rule:nonzero;"/>
        <rect x="801.571" y="1144.38" width="348.289" height="19.91" style="fill:rgb(230,230,230);fill-rule:nonzero;"/>
        <rect x="801.571" y="1180.24" width="425.299" height="19.91" style="fill:rgb(230,230,230);fill-rule:nonzero;"/>
        <rect x="773.301" y="909.018" width="14.557" height="55.778" style="fill:rgb(120,194,255);fill-rule:nonzero;"/>
        <rect x="773.301" y="1022.81" width="14.557" height="55.78" style="fill:rgb(120,194,255);fill-rule:nonzero;"/>
        <rect x="773.301" y="1144.38" width="14.557" height="55.77" style="fill:rgb(120,194,255);fill-rule:nonzero;"/>
        <path d="M1573.29,1225.27L1526.89,1225.27C1517.67,1225.27 1510.2,1217.79 1510.2,1208.57L1510.2,1162.17C1510.2,1152.95 1517.67,1145.48 1526.89,1145.48L1573.29,1145.48C1582.51,1145.48 1589.99,1152.95 1589.99,1162.17L1589.99,1208.57C1589.99,1217.79 1582.51,1225.27 1573.29,1225.27Z" style="fill:rgb(120,194,255);fill-rule:nonzero;"/>
        <path d="M1547.57,1202.95L1527.39,1185.36C1525.74,1183.92 1525.57,1181.41 1527.01,1179.76C1528.45,1178.1 1530.96,1177.93 1532.62,1179.37L1546.88,1191.81L1567.22,1169.12C1568.69,1167.49 1571.2,1167.35 1572.83,1168.81C1574.47,1170.28 1574.6,1172.79 1573.14,1174.42L1547.57,1202.95Z" style="fill:rgb(243,243,243);fill-rule:nonzero;"/>
        <path d="M1528.34,1028.94C1521.11,1028.94 1515.22,1034.83 1515.22,1042.06L1515.22,1085.56C1515.22,1092.8 1521.11,1098.68 1528.34,1098.68L1571.84,1098.68C1579.08,1098.68 1584.96,1092.8 1584.96,1085.56L1584.96,1042.06C1584.96,1034.83 1579.08,1028.94 1571.84,1028.94L1528.34,1028.94ZM1571.84,1103.75L1528.34,1103.75C1518.32,1103.75 1510.16,1095.59 1510.16,1085.56L1510.16,1042.06C1510.16,1032.04 1518.32,1023.88 1528.34,1023.88L1571.84,1023.88C1581.87,1023.88 1590.03,1032.04 1590.03,1042.06L1590.03,1085.56C1590.03,1095.59 1581.87,1103.75 1571.84,1103.75Z" style="fill:rgb(120,194,255);fill-rule:nonzero;"/>
        <path d="M1648.48,907.381C1641.25,907.381 1635.36,913.269 1635.36,920.503L1635.36,964.003C1635.36,971.238 1641.25,977.125 1648.48,977.125L1691.98,977.125C1699.21,977.125 1705.1,971.238 1705.1,964.003L1705.1,920.503C1705.1,913.269 1699.21,907.381 1691.98,907.381L1648.48,907.381ZM1691.98,982.188L1648.48,982.188C1638.46,982.188 1630.3,974.031 1630.3,964.003L1630.3,920.503C1630.3,910.476 1638.46,902.318 1648.48,902.318L1691.98,902.318C1702.01,902.318 1710.17,910.476 1710.17,920.503L1710.17,964.003C1710.17,974.031 1702.01,982.188 1691.98,982.188Z" style="fill:rgb(120,194,255);fill-rule:nonzero;"/>
        <path d="M1648.48,1150.5C1641.25,1150.5 1635.36,1156.39 1635.36,1163.63L1635.36,1207.13C1635.36,1214.36 1641.25,1220.24 1648.48,1220.24L1691.98,1220.24C1699.21,1220.24 1705.1,1214.36 1705.1,1207.13L1705.1,1163.63C1705.1,1156.39 1699.21,1150.5 1691.98,1150.5L1648.48,1150.5ZM1691.98,1225.31L1648.48,1225.31C1638.46,1225.31 1630.3,1217.15 1630.3,1207.13L1630.3,1163.63C1630.3,1153.6 1638.46,1145.44 1648.48,1145.44L1691.98,1145.44C1702.01,1145.44 1710.17,1153.6 1710.17,1163.63L1710.17,1207.13C1710.17,1217.15 1702.01,1225.31 1691.98,1225.31Z" style="fill:rgb(120,194,255);fill-rule:nonzero;"/>
        <path d="M1693.43,1103.71L1647.03,1103.71C1637.81,1103.71 1630.33,1096.23 1630.33,1087.01L1630.33,1040.61C1630.33,1031.39 1637.81,1023.92 1647.03,1023.92L1693.43,1023.92C1702.65,1023.92 1710.13,1031.39 1710.13,1040.61L1710.13,1087.01C1710.13,1096.23 1702.65,1103.71 1693.43,1103.71Z" style="fill:rgb(120,194,255);fill-rule:nonzero;"/>
        <path d="M1667.7,1081.39L1647.53,1063.8C1645.88,1062.36 1645.71,1059.85 1647.15,1058.2C1648.59,1056.54 1651.1,1056.37 1652.75,1057.81L1667.02,1070.25L1687.36,1047.56C1688.82,1045.93 1691.34,1045.79 1692.97,1047.25C1694.6,1048.72 1694.74,1051.23 1693.28,1052.87L1667.7,1081.39Z" style="fill:rgb(243,243,243);fill-rule:nonzero;"/>
        <path d="M1573.29,982.149L1526.89,982.149C1517.67,982.149 1510.2,974.674 1510.2,965.452L1510.2,919.054C1510.2,909.832 1517.67,902.357 1526.89,902.357L1573.29,902.357C1582.51,902.357 1589.99,909.832 1589.99,919.054L1589.99,965.452C1589.99,974.674 1582.51,982.149 1573.29,982.149Z" style="fill:rgb(120,194,255);fill-rule:nonzero;"/>
        <path d="M1547.57,959.828L1527.39,942.243C1525.74,940.8 1525.57,938.29 1527.01,936.636C1528.45,934.982 1530.96,934.811 1532.62,936.252L1546.88,948.688L1567.22,925.999C1568.69,924.365 1571.2,924.229 1572.83,925.693C1574.47,927.158 1574.6,929.67 1573.14,931.304L1547.57,959.828Z" style="fill:rgb(243,243,243);fill-rule:nonzero;"/>
        <path d="M1945.03,980.654C1963.87,971.646 1982.61,1031.61 1982.61,1031.61C2014.63,1073.92 2059.37,1017.64 2055,1080.88C2047.34,1191.54 2182.38,1115.68 2120.08,1231.22C2057.78,1346.75 2175.09,1296.54 2136.37,1389.71C2097.66,1482.87 2147.84,1593.98 2089.59,1548.32C2089.59,1548.32 2038.29,1435.84 1985.4,1401.04C1932.5,1366.24 2017.09,1324.95 2000.54,1277.68C1976.5,1209.03 1918.58,1211.73 1960.34,1137.95C2002.1,1064.17 1881,1011.28 1945.03,980.654Z" style="fill:url(#_Linear2);"/>
        <path d="M2108.03,1505.99C2082.78,1488.23 2053.23,1364.48 2051.47,1290.77C2050.56,1253.02 2039.4,1237.29 2029.56,1223.41C2020.14,1210.14 2012.02,1198.69 2016.75,1172.38C2025.8,1122.11 2002.01,1100.41 2001.77,1100.2L2004.52,1097.06C2005.58,1097.98 2030.36,1120.37 2020.86,1173.12C2016.44,1197.7 2023.73,1207.98 2032.96,1220.99C2042.65,1234.65 2054.71,1251.64 2055.64,1290.67C2057.53,1369.78 2087.75,1486.62 2110.43,1502.57L2108.03,1505.99Z" style="fill:white;fill-rule:nonzero;"/>
        <path d="M2239.46,1278.82C2234.83,1281.35 2230.95,1285.41 2226.46,1290.12C2215.24,1301.87 2201.27,1316.49 2165.89,1316.66C2148.27,1316.74 2138.41,1319.04 2133.9,1324.1C2128.97,1329.64 2130.04,1339.24 2131.53,1352.53C2132.09,1357.55 2132.73,1363.23 2133.12,1369.42C2135.51,1407.42 2113.73,1433.98 2112.8,1435.09C2100.13,1450.18 2085.78,1480.21 2091.78,1497.37C2094.11,1504.03 2099.45,1508.26 2107.63,1509.91C2136.19,1515.68 2144.07,1497.81 2157.14,1468.21C2159.53,1462.78 2162.01,1457.17 2164.82,1451.22C2179.96,1419.28 2194.07,1413.74 2215.44,1405.35C2220.57,1403.34 2226.39,1401.06 2232.73,1398.21C2259.74,1386.07 2254.86,1369.4 2249.71,1351.76C2248.97,1349.23 2248.23,1346.72 2247.59,1344.23C2244.34,1331.53 2250.75,1324.99 2258.87,1316.71C2264.71,1310.75 2271.32,1304 2276.55,1293.06C2279.3,1287.33 2281.56,1279.54 2276.76,1275C2270.45,1269.01 2254.42,1270.66 2239.46,1278.82ZM2117.48,1515.16C2114.22,1515.16 2110.68,1514.79 2106.8,1514C2097.07,1512.04 2090.69,1506.9 2087.84,1498.74C2081.03,1479.28 2096.8,1447.65 2109.6,1432.41C2109.81,1432.16 2131.24,1405.97 2128.95,1369.68C2128.57,1363.6 2127.94,1357.96 2127.38,1353C2125.77,1338.63 2124.61,1328.26 2130.78,1321.33C2136.21,1315.22 2146.71,1312.57 2165.87,1312.48C2199.47,1312.32 2212.76,1298.41 2223.44,1287.23C2227.97,1282.48 2232.25,1278 2237.46,1275.16C2254.21,1266.02 2271.94,1264.67 2279.64,1271.96C2283.29,1275.43 2286.38,1282.21 2280.32,1294.86C2274.79,1306.43 2267.62,1313.75 2261.85,1319.63C2254.1,1327.54 2248.97,1332.77 2251.64,1343.19C2252.27,1345.64 2252.99,1348.11 2253.71,1350.59C2258.89,1368.3 2264.77,1388.39 2234.44,1402.02C2228.01,1404.91 2222.14,1407.21 2216.97,1409.24C2195.8,1417.55 2183.02,1422.56 2168.6,1453.01C2165.81,1458.9 2163.34,1464.49 2160.96,1469.89C2149.59,1495.67 2140.98,1515.16 2117.48,1515.16Z" style="fill:url(#_Linear3);"/>
        <path d="M2107.25,1539.27L2103.08,1539.05C2103.29,1535.13 2108.55,1442.78 2145.63,1415.75C2186.31,1386.1 2199.14,1354.23 2205.25,1332.84C2212.44,1307.64 2249.08,1300.9 2250.63,1300.63L2251.36,1304.74C2251.01,1304.8 2215.74,1311.3 2209.26,1333.99C2202.98,1355.97 2189.81,1388.71 2148.09,1419.13C2112.6,1445 2107.3,1538.33 2107.25,1539.27Z" style="fill:url(#_Linear4);"/>
        <path d="M2192.03,1073.85C2165.68,1064.82 2171.15,1115.61 2160.02,1153.2C2148.88,1190.78 2036.13,1169.59 2083.46,1263.71C2130.79,1357.82 2023.6,1295.18 2055.62,1377.31C2087.63,1459.44 2058.4,1547.28 2093.2,1524.93C2128,1502.59 2112.75,1399.17 2148.94,1386.88C2185.14,1374.59 2191.04,1360.26 2155.21,1326.85C2119.37,1293.44 2249.11,1260.28 2217.09,1192.82C2185.07,1125.36 2222.48,1084.29 2192.03,1073.85Z" style="fill:url(#_Linear5);"/>
        <path d="M2109.35,1521C2106.03,1506.94 2077.73,1383.21 2104.14,1368.25C2127.42,1355.07 2126.84,1303.8 2123.21,1255.38C2120,1212.53 2175.04,1192.5 2177.38,1191.66L2178.78,1195.6C2178.24,1195.79 2124.4,1215.4 2127.38,1255.07C2131.11,1304.79 2131.51,1357.55 2106.2,1371.89C2086.14,1383.24 2104.61,1482.68 2113.41,1520.04L2109.35,1521Z" style="fill:white;fill-rule:nonzero;"/>
        <path d="M2169.26,1476.94L2131.63,1619.7L2047.54,1619.7L2009.91,1476.94L2169.26,1476.94Z" style="fill:url(#_Linear6);"/>
        <path d="M2169.26,1476.94C2169.26,1476.94 2086.42,1492.49 2086.42,1619.7L2047.54,1619.7L2009.91,1476.94L2169.26,1476.94Z" style="fill:url(#_Linear7);"/>
        <path d="M1788.94,1487C1788.94,1487 1792.53,1501.1 1793.02,1503.22C1793.51,1505.34 1815.61,1499.5 1815.61,1499.5L1815.59,1482.26C1815.59,1482.26 1791.54,1484.68 1788.94,1487Z" style="fill:rgb(238,168,134);fill-rule:nonzero;"/>
        <path d="M1792.58,1501.43C1792.58,1501.43 1786.4,1510.82 1779.92,1515.32C1773.44,1519.83 1748.44,1525.65 1744.78,1529.98C1742.15,1533.11 1738.48,1544.95 1778.6,1539.54C1807.11,1535.7 1821.17,1536.67 1823.74,1531.71C1826.3,1526.74 1815.61,1497.96 1815.61,1497.96C1815.61,1497.96 1809.51,1501.28 1792.58,1501.43Z" style="fill:rgb(17,34,48);fill-rule:nonzero;"/>
        <path d="M1784.26,1888.15L1704.18,1072.21L1714.28,1071.23L1794.35,1887.17L1784.26,1888.15Z" style="fill:rgb(240,193,65);fill-rule:nonzero;"/>
        <path d="M1947.52,1872.31L1867.44,1056.37L1877.53,1055.39L1957.61,1871.33L1947.52,1872.31Z" style="fill:rgb(240,193,65);fill-rule:nonzero;"/>
        <path d="M1711.56,1095.56L1710.58,1085.46L1873.84,1069.62L1874.82,1079.71L1711.56,1095.56Z" style="fill:rgb(240,193,65);fill-rule:nonzero;"/>
        <path d="M1718.93,1171.47L1717.95,1161.38L1881.21,1145.54L1882.19,1155.63L1718.93,1171.47Z" style="fill:rgb(240,193,65);fill-rule:nonzero;"/>
        <path d="M1726.3,1247.39L1725.32,1237.29L1888.58,1221.45L1889.56,1231.54L1726.3,1247.39Z" style="fill:rgb(240,193,65);fill-rule:nonzero;"/>
        <path d="M1733.67,1323.3L1732.69,1313.21L1895.95,1297.37L1896.92,1307.46L1733.67,1323.3Z" style="fill:rgb(240,193,65);fill-rule:nonzero;"/>
        <path d="M1741.03,1399.22L1740.05,1389.13L1903.31,1373.28L1904.29,1383.38L1741.03,1399.22Z" style="fill:rgb(240,193,65);fill-rule:nonzero;"/>
        <path d="M1748.4,1475.13L1747.42,1465.04L1910.68,1449.2L1911.66,1459.29L1748.4,1475.13Z" style="fill:rgb(240,193,65);fill-rule:nonzero;"/>
        <path d="M1755.77,1551.05L1754.79,1540.96L1918.05,1525.11L1919.03,1535.21L1755.77,1551.05Z" style="fill:rgb(240,193,65);fill-rule:nonzero;"/>
        <path d="M1763.14,1626.97L1762.16,1616.87L1925.42,1601.03L1926.39,1611.12L1763.14,1626.97Z" style="fill:rgb(240,193,65);fill-rule:nonzero;"/>
        <path d="M1770.5,1702.88L1769.52,1692.79L1932.78,1676.94L1933.76,1687.04L1770.5,1702.88Z" style="fill:rgb(240,193,65);fill-rule:nonzero;"/>
        <path d="M1777.87,1778.8L1776.89,1768.7L1940.15,1752.86L1941.13,1762.95L1777.87,1778.8Z" style="fill:rgb(240,193,65);fill-rule:nonzero;"/>
        <path d="M1785.24,1854.71L1784.26,1844.62L1947.52,1828.78L1948.5,1838.87L1785.24,1854.71Z" style="fill:rgb(240,193,65);fill-rule:nonzero;"/>
        <path d="M1761.68,1190.24C1761.68,1190.24 1745.6,1249.96 1741.36,1271.31C1737.67,1289.9 1730.24,1339.44 1729.18,1351.22C1728.12,1363 1776.65,1476.99 1781.7,1497.59L1825.91,1490.49C1825.91,1490.49 1779.27,1371.84 1791.43,1345.47C1809.53,1306.26 1811.89,1307.45 1826.15,1275.14C1840.4,1242.84 1873.04,1242.08 1881.8,1182.14C1881.8,1182.14 1773.55,1171.24 1761.68,1190.24Z" style="fill:rgb(21,43,61);fill-rule:nonzero;"/>
        <path d="M1840.3,900.103C1840.3,900.103 1810.94,889.138 1797.41,911.485C1783.87,933.833 1785.18,978.573 1799.97,984.074C1814.77,989.575 1837,986.699 1844.58,972.716C1852.15,958.731 1858.99,938.516 1858.67,925.005C1858.34,911.495 1848.01,904.003 1840.3,900.103Z" style="fill:rgb(238,168,134);fill-rule:nonzero;"/>
        <path d="M1804.9,982.701C1804.9,982.701 1806.09,990.396 1804.13,994.187C1802.17,997.978 1841.05,998.076 1841.05,998.076C1841.05,998.076 1844.21,977.458 1850.2,960.036C1856.18,942.615 1804.9,982.701 1804.9,982.701Z" style="fill:rgb(238,168,134);fill-rule:nonzero;"/>
        <path d="M1850.2,960.036C1850.2,960.036 1847.51,964.464 1836.56,962.746C1825.6,961.028 1812.24,946.452 1807.66,944.853C1803.09,943.252 1803.04,940.564 1803.04,940.564L1800.18,944.748L1795.32,945.056C1795.32,945.056 1799.75,932.017 1793.07,926.699C1786.38,921.382 1800.01,884.498 1835.14,896.777C1835.14,896.777 1862.13,904.216 1861.14,919.563C1860.16,934.911 1856.23,952.393 1850.2,960.036Z" style="fill:rgb(58,63,71);fill-rule:nonzero;"/>
        <path d="M1803.77,934.983C1804.38,932.409 1810.93,925.053 1813.44,932.929C1815.94,940.806 1809.65,951.4 1806.14,950.493C1802.63,949.586 1802.21,941.51 1803.77,934.983Z" style="fill:rgb(238,168,134);fill-rule:nonzero;"/>
        <path d="M1915.74,1094.95C1915.42,1098.8 1911.02,1102.96 1908.02,1105.02C1906.1,1106.34 1903.8,1107.14 1901.33,1107.22L1899.59,1107.28L1899.58,1107.28L1869.08,1108.32C1869.08,1108.32 1846.4,1035.02 1888.94,1007.06C1890.26,1007.2 1918.69,1059.62 1915.74,1094.95Z" style="fill:rgb(29,59,84);fill-rule:nonzero;"/>
        <path d="M1823.74,1531.71C1821.17,1536.67 1807.11,1535.71 1778.6,1539.54C1770.81,1540.59 1764.68,1540.99 1759.86,1540.93L1758.2,1523.78C1766.54,1520.88 1776.23,1517.89 1779.92,1515.32C1786.4,1510.82 1792.58,1501.43 1792.58,1501.43C1809.51,1501.28 1815.61,1497.96 1815.61,1497.96C1815.61,1497.96 1826.3,1526.74 1823.74,1531.71Z" style="fill:rgb(17,34,48);fill-rule:nonzero;"/>
        <path d="M1804.88,991.951C1804.88,991.951 1828.82,986.383 1842.31,990.938L1844.35,992.823C1844.35,992.823 1848.45,1000.69 1833.01,1001.36C1817.58,1002.04 1793.31,1003.16 1804.88,991.951Z" style="fill:rgb(29,59,84);fill-rule:nonzero;"/>
        <path d="M1898.43,1552.92C1898.43,1552.92 1902.02,1567.01 1902.51,1569.13C1903,1571.26 1925.09,1565.41 1925.09,1565.41L1925.07,1548.18C1925.07,1548.18 1901.02,1550.6 1898.43,1552.92Z" style="fill:rgb(238,168,134);fill-rule:nonzero;"/>
        <path d="M1881.8,1182.14C1881.8,1182.14 1889.86,1215.38 1892.25,1248.66C1894.45,1279.41 1898.47,1313.14 1901.66,1345.3C1905.21,1381.16 1915.36,1439.12 1915.89,1458.3C1916.42,1477.48 1932.56,1561.3 1932.56,1561.3L1891.26,1566.05C1891.26,1566.05 1864.43,1417.92 1858.1,1402.78C1851.76,1387.64 1820.34,1279.69 1819.28,1267.57C1818.22,1255.46 1881.8,1182.14 1881.8,1182.14Z" style="fill:rgb(21,43,61);fill-rule:nonzero;"/>
        <path d="M1902.07,1567.34C1902.07,1567.34 1895.88,1576.74 1889.4,1581.24C1882.93,1585.74 1857.92,1591.57 1854.27,1595.9C1851.63,1599.02 1847.97,1610.86 1888.09,1605.46C1916.6,1601.62 1930.66,1602.59 1933.22,1597.62C1935.79,1592.65 1925.09,1563.87 1925.09,1563.87C1925.09,1563.87 1919,1567.19 1902.07,1567.34Z" style="fill:rgb(17,34,48);fill-rule:nonzero;"/>
        <path d="M1753.33,1264.83C1749.81,1264.33 1762.06,1159.49 1761.12,1152.91C1760.5,1148.52 1760.6,1114.45 1760.85,1093.21L1757.02,1071.71C1754.89,1070.16 1752.03,1068.37 1748.6,1066.39C1743.28,1063.32 1736.6,1059.81 1729.18,1056.1C1730.04,1051.02 1730.64,1047.03 1730.87,1044.69C1732.73,1025.81 1745.41,1015.8 1752.6,1011.59C1755.53,1009.87 1757.55,1009.12 1757.55,1009.12C1760.28,1007.96 1762.97,1006.84 1765.57,1005.77C1782.89,998.641 1804.88,991.951 1804.88,991.951L1840.21,991.951C1840.21,991.951 1867.12,997.326 1883.15,1003.89C1885.2,1004.73 1887.13,1005.8 1888.94,1007.06L1884.14,1107.81C1884.13,1107.83 1884.13,1107.85 1884.13,1107.87C1884.12,1107.9 1884.12,1107.95 1884.11,1108C1881.95,1122.18 1879.67,1138.89 1878.91,1150.62C1878.6,1155.4 1884.07,1181.1 1886.93,1204.7L1896.92,1261.14C1896.92,1261.14 1891.15,1284.54 1753.33,1264.83Z" style="fill:rgb(29,59,84);fill-rule:nonzero;"/>
        <path d="M1572.92,938.104C1572.92,938.104 1575.01,940.688 1576.47,941.373C1576.47,941.373 1579.23,942.415 1581.15,943.274C1581.75,943.549 1582.28,943.801 1582.6,944C1583.94,944.829 1586.63,947.049 1590.41,948.136C1594.18,949.223 1611.25,953.109 1611.25,953.109L1615.22,942.98L1618.07,934.799C1618.07,934.799 1602.27,914.328 1598.87,912.908C1598.53,912.771 1598.2,912.648 1597.88,912.557C1594.88,911.635 1592.27,912.207 1590.64,911.901C1590.04,911.793 1584.02,911.115 1582.72,912.372C1580.91,914.114 1580.36,916.057 1580.67,917.749C1580.67,917.749 1577.28,921.317 1577.04,924.624C1577.04,924.624 1573.8,927.814 1574.66,932.015C1574.66,932.015 1571.74,935.62 1572.92,938.104Z" style="fill:rgb(238,168,134);fill-rule:nonzero;"/>
        <path d="M1755.88,1070.91C1751.94,1068.37 1746.84,1064.93 1729.18,1056.1C1696.31,1039.65 1655.72,1009.84 1648,1005.53C1636.13,998.909 1598.65,953.109 1598.65,953.109C1600.58,946.21 1618.35,932.365 1618.35,932.365C1618.35,932.365 1675.18,986.194 1687.6,992.819C1698.28,998.516 1751.04,1004.27 1765.57,1005.77C1767.93,1006.01 1769.28,1006.14 1769.28,1006.14C1784.46,1026.84 1764.36,1076.37 1755.88,1070.91Z" style="fill:rgb(29,59,84);fill-rule:nonzero;"/>
        <rect x="829.835" y="839.071" width="85.248" height="10.502" style="fill:rgb(214,214,214);fill-rule:nonzero;"/>
        <rect x="809.153" y="820.367" width="126.612" height="10.502" style="fill:rgb(214,214,214);fill-rule:nonzero;"/>
        <path d="M894.664,676.201C894.664,688.357 884.809,698.212 872.652,698.212C860.496,698.212 850.641,688.357 850.641,676.201C850.641,664.044 860.496,654.189 872.652,654.189C884.809,654.189 894.664,664.044 894.664,676.201Z" style="fill:rgb(120,194,255);fill-rule:nonzero;"/>
        <path d="M912.357,747.958L912.357,789.818C900.201,795.347 886.686,798.421 872.459,798.421C858.233,798.421 844.717,795.347 832.561,789.818L832.561,747.958C832.561,725.931 850.417,708.06 872.459,708.06C894.501,708.06 912.357,725.931 912.357,747.958Z" style="fill:rgb(120,194,255);fill-rule:nonzero;"/>
        <path d="M872.459,607.957C820.669,607.957 778.536,650.091 778.536,701.881C778.536,738.639 800.167,772.221 833.644,787.435C845.853,792.988 858.912,795.804 872.459,795.804C886.006,795.804 899.065,792.988 911.273,787.436C944.751,772.221 966.383,738.639 966.383,701.881C966.383,650.091 924.249,607.957 872.459,607.957ZM872.459,801.039C858.159,801.039 844.37,798.065 831.477,792.2C796.137,776.139 773.301,740.687 773.301,701.881C773.301,647.205 817.783,602.723 872.459,602.723C927.135,602.723 971.617,647.205 971.617,701.881C971.617,740.687 948.782,776.139 913.44,792.201C900.548,798.065 886.759,801.039 872.459,801.039Z" style="fill:url(#_Linear8);"/>
        <rect x="1024.78" y="636.759" width="6.9" height="159.045" style="fill:rgb(201,224,255);fill-rule:nonzero;"/>
        <rect x="1056.52" y="636.759" width="6.91" height="159.045" style="fill:rgb(201,224,255);fill-rule:nonzero;"/>
        <rect x="1088.27" y="636.759" width="6.91" height="159.045" style="fill:rgb(201,224,255);fill-rule:nonzero;"/>
        <rect x="1120.01" y="636.759" width="6.91" height="159.045" style="fill:rgb(201,224,255);fill-rule:nonzero;"/>
        <rect x="1151.76" y="636.759" width="6.91" height="159.045" style="fill:rgb(201,224,255);fill-rule:nonzero;"/>
        <rect x="1183.51" y="636.759" width="6.91" height="159.045" style="fill:rgb(201,224,255);fill-rule:nonzero;"/>
        <rect x="1215.25" y="636.759" width="6.91" height="159.045" style="fill:rgb(201,224,255);fill-rule:nonzero;"/>
        <rect x="1247" y="636.759" width="6.91" height="159.045" style="fill:rgb(201,224,255);fill-rule:nonzero;"/>
        <rect x="1278.74" y="636.759" width="6.91" height="159.045" style="fill:rgb(201,224,255);fill-rule:nonzero;"/>
        <rect x="1310.49" y="636.759" width="6.91" height="159.045" style="fill:rgb(201,224,255);fill-rule:nonzero;"/>
        <rect x="1342.24" y="636.759" width="6.91" height="159.045" style="fill:rgb(201,224,255);fill-rule:nonzero;"/>
        <rect x="1373.98" y="636.759" width="6.91" height="159.045" style="fill:rgb(201,224,255);fill-rule:nonzero;"/>
        <rect x="1024.78" y="684.309" width="6.9" height="111.495" style="fill:rgb(74,175,255);fill-rule:nonzero;"/>
        <rect x="1056.52" y="722.84" width="6.91" height="72.964" style="fill:rgb(74,175,255);fill-rule:nonzero;"/>
        <rect x="1088.27" y="659.714" width="6.91" height="136.09" style="fill:rgb(74,175,255);fill-rule:nonzero;"/>
        <rect x="1120.01" y="756.179" width="6.91" height="39.625" style="fill:rgb(74,175,255);fill-rule:nonzero;"/>
        <rect x="1151.76" y="716.281" width="6.91" height="79.523" style="fill:rgb(74,175,255);fill-rule:nonzero;"/>
        <rect x="1183.51" y="686.495" width="6.91" height="109.309" style="fill:rgb(74,175,255);fill-rule:nonzero;"/>
        <rect x="1215.25" y="725.3" width="6.91" height="70.504" style="fill:rgb(74,175,255);fill-rule:nonzero;"/>
        <rect x="1247" y="676.384" width="6.91" height="119.42" style="fill:rgb(74,175,255);fill-rule:nonzero;"/>
        <rect x="1278.74" y="730.218" width="6.91" height="65.586" style="fill:rgb(74,175,255);fill-rule:nonzero;"/>
        <rect x="1310.49" y="690.867" width="6.91" height="104.937" style="fill:rgb(74,175,255);fill-rule:nonzero;"/>
        <rect x="1342.24" y="743.335" width="6.91" height="52.469" style="fill:rgb(74,175,255);fill-rule:nonzero;"/>
        <rect x="1373.98" y="690.867" width="6.91" height="104.937" style="fill:rgb(74,175,255);fill-rule:nonzero;"/>
        <path d="M1606.17,777.163C1579.15,786.827 1550.03,778.105 1532.48,757.475C1528.3,752.558 1524.77,746.962 1522.09,740.776C1521.49,739.411 1520.94,738.016 1520.43,736.595C1515.33,722.317 1515.35,707.453 1519.56,694.021C1525.63,674.633 1540.4,658.224 1561,650.858C1567.8,648.426 1574.73,647.16 1581.58,646.951C1609.86,646.098 1636.69,663.345 1646.74,691.423C1659.21,726.303 1641.05,764.688 1606.17,777.163ZM1667.82,683.887C1654.42,646.437 1618.63,623.436 1580.91,624.569C1571.78,624.844 1562.53,626.533 1553.46,629.777C1525.98,639.605 1506.28,661.491 1498.19,687.347C1492.58,705.267 1492.54,725.092 1499.35,744.136C1500.03,746.029 1500.77,747.893 1501.55,749.712C1505.14,757.961 1509.84,765.422 1515.42,771.98C1538.83,799.502 1577.67,811.132 1613.71,798.247C1660.23,781.607 1684.45,730.408 1667.82,683.887Z" style="fill:rgb(74,175,255);fill-rule:nonzero;"/>
        <path d="M1519.56,694.021L1498.19,687.347C1506.28,661.491 1525.98,639.605 1553.46,629.777C1562.53,626.533 1571.78,624.844 1580.91,624.569L1581.58,646.951C1574.73,647.16 1567.8,648.426 1561,650.858C1540.4,658.224 1525.63,674.633 1519.56,694.021Z" style="fill:rgb(26,89,140);fill-rule:nonzero;"/>
        <path d="M1522.09,740.776L1501.55,749.712C1500.77,747.893 1500.03,746.029 1499.35,744.136C1492.54,725.092 1492.58,705.267 1498.19,687.347L1519.56,694.021C1515.35,707.453 1515.33,722.317 1520.43,736.595C1520.94,738.016 1521.49,739.411 1522.09,740.776Z" style="fill:rgb(34,115,181);fill-rule:nonzero;"/>
        <path d="M1515.42,771.98C1509.84,765.422 1505.14,757.961 1501.55,749.712L1522.09,740.776C1524.77,746.962 1528.3,752.558 1532.48,757.475L1515.42,771.98Z" style="fill:rgb(55,136,204);fill-rule:nonzero;"/>
        <path d="M1754.63,783.846C1749.55,794.575 1738.49,800.542 1727.32,799.642C1724.66,799.427 1721.99,798.822 1719.39,797.797C1718.82,797.571 1718.25,797.325 1717.69,797.058C1712.02,794.375 1707.68,790.02 1704.98,784.86C1701.08,777.415 1700.6,768.295 1704.47,760.115C1705.75,757.414 1707.41,755.017 1709.35,752.953C1717.37,744.432 1730.27,741.626 1741.42,746.901C1755.27,753.456 1761.18,769.995 1754.63,783.846ZM1745.38,738.532C1730.51,731.495 1713.31,735.236 1702.61,746.602C1700.02,749.353 1697.81,752.551 1696.1,756.153C1690.94,767.064 1691.58,779.229 1696.77,789.16C1700.38,796.042 1706.16,801.852 1713.73,805.429C1714.48,805.785 1715.24,806.115 1716,806.416C1719.46,807.781 1723.02,808.588 1726.57,808.874C1741.47,810.076 1756.23,802.117 1763,787.808C1771.74,769.333 1763.85,747.272 1745.38,738.532Z" style="fill:rgb(74,175,255);fill-rule:nonzero;"/>
        <path d="M1704.98,784.86L1696.77,789.16C1691.58,779.229 1690.94,767.064 1696.1,756.153C1697.81,752.551 1700.02,749.353 1702.61,746.602L1709.35,752.953C1707.41,755.017 1705.75,757.414 1704.47,760.115C1700.6,768.295 1701.08,777.415 1704.98,784.86Z" style="fill:rgb(26,89,140);fill-rule:nonzero;"/>
        <path d="M1719.39,797.797L1716,806.416C1715.24,806.115 1714.48,805.785 1713.73,805.429C1706.16,801.852 1700.38,796.042 1696.77,789.16L1704.98,784.86C1707.68,790.02 1712.02,794.375 1717.69,797.058C1718.25,797.325 1718.82,797.571 1719.39,797.797Z" style="fill:rgb(34,115,181);fill-rule:nonzero;"/>
        <path d="M1717.69,684.373C1706.96,679.297 1700.99,668.229 1701.89,657.06C1702.11,654.398 1702.71,651.729 1703.74,649.136C1703.96,648.563 1704.21,647.993 1704.47,647.429C1707.16,641.759 1711.51,637.419 1716.67,634.721C1724.12,630.825 1733.24,630.345 1741.42,634.217C1744.12,635.494 1746.52,637.151 1748.58,639.093C1757.1,647.115 1759.91,660.01 1754.63,671.16C1748.08,685.011 1731.54,690.926 1717.69,684.373ZM1763,675.121C1770.04,660.25 1766.3,643.053 1754.93,632.351C1752.18,629.76 1748.98,627.55 1745.38,625.846C1734.47,620.684 1722.3,621.321 1712.37,626.517C1705.49,630.117 1699.68,635.906 1696.1,643.469C1695.75,644.22 1695.42,644.98 1695.12,645.744C1693.75,649.204 1692.95,652.762 1692.66,656.313C1691.46,671.21 1699.42,685.974 1713.73,692.745C1732.2,701.485 1754.26,693.595 1763,675.121Z" style="fill:rgb(74,175,255);fill-rule:nonzero;"/>
        <path d="M1716.67,634.721L1712.37,626.517C1722.3,621.321 1734.47,620.684 1745.38,625.846C1748.98,627.55 1752.18,629.76 1754.93,632.351L1748.58,639.093C1746.52,637.151 1744.12,635.494 1741.42,634.217C1733.24,630.345 1724.12,630.825 1716.67,634.721Z" style="fill:rgb(74,175,255);fill-rule:nonzero;"/>
        <path d="M1703.74,649.136L1695.12,645.744C1695.42,644.98 1695.75,644.22 1696.1,643.469C1699.68,635.906 1705.49,630.117 1712.37,626.517L1716.67,634.721C1711.51,637.419 1707.16,641.759 1704.47,647.429C1704.21,647.993 1703.96,648.563 1703.74,649.136Z" style="fill:rgb(34,115,181);fill-rule:nonzero;"/>
        <path d="M1692.66,656.313C1692.95,652.762 1693.75,649.204 1695.12,645.744L1703.74,649.136C1702.71,651.729 1702.11,654.398 1701.89,657.06L1692.66,656.313Z" style="fill:rgb(55,136,204);fill-rule:nonzero;"/>
        <path d="M1718.18,833.263L1649.08,833.263L1649.08,831.89L1716.81,831.89L1716.81,805.784L1718.18,805.784L1718.18,833.263Z" style="fill:rgb(226,243,254);fill-rule:nonzero;"/>
        <path d="M1588.06,833.263L1498.19,833.263L1498.19,831.89L1586.69,831.89L1586.69,789.16L1588.06,789.16L1588.06,833.263Z" style="fill:rgb(226,243,254);fill-rule:nonzero;"/>
        <rect x="1498.19" y="817.596" width="61.84" height="8.24" style="fill:rgb(74,175,255);fill-rule:nonzero;"/>
        <rect x="1649.08" y="817.596" width="36.38" height="8.24" style="fill:rgb(74,175,255);fill-rule:nonzero;"/>
        <path d="M697.938,1082.78C697.938,1082.78 671.819,1081.9 663.484,1103.3C655.149,1124.71 661.441,1141.13 663.818,1148.92C670.026,1169.29 670.536,1176.68 667.531,1188.97C664.867,1199.86 662.417,1205.49 659.344,1215.67C656.271,1225.86 661.396,1224.72 661.842,1225.47C662.288,1226.21 764.117,1235.62 764.117,1235.62C764.117,1235.62 761.396,1213.56 754.226,1208.44C747.056,1203.32 739.967,1202.28 745.422,1180.45C750.877,1158.62 754.337,1148.49 751.28,1132.66C747.737,1114.32 745.507,1102.86 728.26,1090.83C717.863,1083.58 706.181,1081.98 697.938,1082.78Z" style="fill:rgb(59,59,64);fill-rule:nonzero;"/>
        <path d="M667.805,1802.79C667.805,1802.79 682.169,1824.12 687.958,1829.26C687.958,1829.26 700.82,1833.98 702.107,1842.98C703.393,1851.99 703.179,1858 687.958,1858.42C672.736,1858.85 662.757,1856.12 659.97,1846.9C657.184,1837.68 651.083,1831.41 651.083,1831.41L651.083,1850.7L647.653,1850.7C647.653,1850.7 646.795,1832.05 646.581,1828.62C646.367,1825.19 644.118,1812 651.353,1806.16C658.587,1800.32 667.805,1802.79 667.805,1802.79Z" style="fill:rgb(204,204,204);fill-rule:nonzero;"/>
        <path d="M739.71,1785.74C739.71,1785.74 742.196,1791.62 746.892,1797.75C750.334,1802.24 761.041,1820.69 765.757,1821.97C770.474,1823.26 785.052,1825.83 786.338,1833.98C787.625,1842.13 788.268,1847.91 773.904,1848.56C759.541,1849.2 750.107,1850.06 743.247,1839.98C736.387,1829.91 725.453,1822.62 725.453,1822.62L725.453,1848.91L719.879,1848.91C719.879,1848.91 717.307,1821.54 715.806,1819.62C714.305,1817.69 710.446,1796.68 723.738,1785.74C737.03,1774.81 739.71,1785.74 739.71,1785.74Z" style="fill:rgb(204,204,204);fill-rule:nonzero;"/>
        <path d="M658.158,1391.06C658.158,1391.06 642.016,1415.06 637.096,1443.04C632.176,1471.02 638.006,1564.5 637.792,1578.33C637.577,1592.15 624.714,1626.56 627.287,1652.61C629.859,1678.66 651.353,1806.16 651.353,1806.16L667.805,1802.79C667.805,1802.79 666.197,1670.62 667.805,1659.68C669.413,1648.75 672.641,1608.9 673.283,1604.39C673.927,1599.89 714.112,1481.68 714.112,1461.5C714.112,1441.33 701.893,1358.15 658.158,1391.06Z" style="fill:rgb(238,168,134);fill-rule:nonzero;"/>
        <path d="M749.271,1400.28C749.271,1400.28 779.071,1514.01 782.608,1529.77C786.146,1545.52 791.27,1558.52 791.27,1565.21C791.27,1580.73 785.502,1605.66 785.502,1605.66L739.71,1785.74L720.716,1788.73C720.716,1788.73 731.702,1678.06 732.243,1656.83C732.785,1635.55 749.164,1605.34 745.948,1596.33C742.732,1587.33 694.175,1483.46 694.175,1483.46C694.175,1483.46 657.408,1367.26 749.271,1400.28Z" style="fill:rgb(238,168,134);fill-rule:nonzero;"/>
        <path d="M687.958,1829.26C687.958,1829.26 673.249,1837.49 663.777,1826.93C655.78,1818.01 651.353,1806.16 651.353,1806.16L667.805,1802.79L687.958,1829.26Z" style="fill:rgb(238,168,134);fill-rule:nonzero;"/>
        <path d="M765.757,1821.97C765.757,1821.97 752.895,1825.19 747.964,1821.97C743.033,1818.76 726.27,1790.42 720.716,1788.73C720.716,1788.73 726.096,1777.81 739.71,1785.74C739.71,1785.74 762.113,1817.26 765.757,1821.97Z" style="fill:rgb(238,168,134);fill-rule:nonzero;"/>
        <path d="M791.27,1565.21C791.27,1565.21 722.344,1594.8 619.721,1594.8C619.721,1594.8 630.53,1439.3 645.45,1405.82C660.369,1372.33 751.648,1409.2 751.648,1409.2C751.648,1409.2 791.27,1537.16 791.27,1565.21Z" style="fill:rgb(235,71,71);fill-rule:nonzero;"/>
        <path d="M868.798,1339.94C868.798,1339.94 805.936,1345.35 790.379,1338.42C782.593,1334.96 772.044,1320.59 762.3,1304.83C760.646,1302.15 759.012,1299.43 757.421,1296.72C745.508,1276.42 735.882,1256.47 735.882,1256.47C735.882,1256.47 707.124,1220.3 737.732,1207.37C737.732,1207.37 749.619,1210.67 757.002,1222.1C764.39,1233.53 770.166,1250.68 771.625,1256.33C773.083,1261.98 797.693,1311.69 799.237,1313.09C800.78,1314.49 816.247,1313.56 828.17,1314.68C847.625,1316.52 868.14,1317.59 868.14,1317.59L868.798,1339.94Z" style="fill:rgb(235,71,71);fill-rule:nonzero;"/>
        <path d="M759.951,1289.45C752.218,1307.35 759.511,1313.33 755.973,1331.23C752.435,1349.13 751.171,1400.13 751.834,1410.08C752.498,1420.02 663.675,1430.24 643.117,1412.12C643.117,1412.12 649.969,1373.43 662.555,1349.38C664.947,1344.81 663.801,1326.81 661.372,1320.62C660.625,1318.73 657.649,1311.41 653.873,1302.16C653.873,1302.16 653.867,1302.15 653.862,1302.14C649.932,1292.52 645.142,1280.82 641.101,1270.96C636.316,1259.28 632.583,1250.18 632.583,1250.18C632.583,1250.18 629.517,1221.38 641.477,1212.09C651.868,1204.02 680.18,1201.15 685.261,1199.38C690.348,1197.61 705.135,1196.84 715.525,1198.39C715.525,1198.39 731.437,1205.9 736.964,1207.01C742.49,1208.11 763.929,1235.96 767.689,1246.13C771.444,1256.3 767.689,1271.55 759.951,1289.45Z" style="fill:rgb(235,71,71);fill-rule:nonzero;"/>
        <path d="M723.12,1180.02C723.12,1180.02 719.945,1209.22 720.608,1218.72C720.608,1218.72 707.309,1234.89 688.5,1198.97C688.5,1198.97 693.178,1184.58 687.221,1164.41C681.264,1144.24 723.12,1180.02 723.12,1180.02Z" style="fill:rgb(238,168,134);fill-rule:nonzero;"/>
        <path d="M672.559,1201.93C672.559,1201.93 683.934,1235.53 715.166,1233.06C746.399,1230.59 729.972,1204.69 729.972,1204.69C729.972,1204.69 722.188,1200.22 719.997,1199.8C717.807,1199.38 689.003,1198.16 689.003,1198.16L672.559,1201.93Z" style="fill:rgb(238,168,134);fill-rule:nonzero;"/>
        <path d="M873.731,1352.61L799.29,1352.61C796.021,1352.61 793.372,1349.96 793.372,1346.69L793.372,1235.28C793.372,1232.01 796.021,1229.36 799.29,1229.36L873.731,1229.36C877,1229.36 879.649,1232.01 879.649,1235.28L879.649,1346.69C879.649,1349.96 877,1352.61 873.731,1352.61Z" style="fill:rgb(67,67,67);fill-rule:nonzero;"/>
        <rect x="799.237" y="1237.74" width="74.546" height="106.49" style="fill:white;fill-rule:nonzero;"/>
        <path d="M771.842,1327.43C771.842,1327.43 774.662,1327.49 776.515,1326.09C779.716,1323.68 780.869,1317.73 786.517,1318.17C792.165,1318.6 794.786,1336.31 793.371,1339.67C791.957,1343.02 784.112,1344.7 772.519,1342.39C760.926,1340.08 771.842,1327.43 771.842,1327.43Z" style="fill:rgb(238,168,134);fill-rule:nonzero;"/>
        <path d="M784.579,1318.29C784.579,1318.29 792.699,1315.52 802.072,1313.49C810.295,1311.71 820.12,1311.13 821.076,1312.56C822.142,1314.15 813.066,1315.52 805.009,1317.81C797.591,1319.91 799.358,1320.69 799.358,1320.69C799.358,1320.69 798.869,1320.44 807.339,1319.65C816.445,1318.8 825.824,1318.81 826.75,1320.63C827.2,1321.52 826.885,1322.12 823.604,1322.95C825.576,1322.86 825.854,1323.37 825.93,1324.16C826.32,1328.26 813.037,1331.53 807.762,1332.82C811.819,1331.85 814.883,1331.56 813.423,1334.31C811.752,1337.45 792.798,1341.25 786.113,1343.24C778.82,1345.41 784.579,1318.29 784.579,1318.29Z" style="fill:rgb(238,168,134);fill-rule:nonzero;"/>
        <path d="M869.813,1253.02C869.813,1253.02 882.075,1250.17 886.021,1256.08C889.967,1261.98 890.111,1269.59 889.127,1273.11C888.144,1276.62 884.965,1285.67 880.816,1283.81C867.503,1277.84 869.813,1253.02 869.813,1253.02Z" style="fill:rgb(238,168,134);fill-rule:nonzero;"/>
        <path d="M881.949,1253.15C881.949,1253.15 880.232,1244.86 876.914,1246.28C873.596,1247.7 876.593,1253.16 876.593,1253.16L881.949,1253.15Z" style="fill:rgb(238,168,134);fill-rule:nonzero;"/>
        <path d="M869.813,1253.02C869.813,1253.02 870.012,1248.29 878.587,1253.16C887.162,1258.03 869.813,1253.02 869.813,1253.02Z" style="fill:rgb(238,168,134);fill-rule:nonzero;"/>
        <path d="M757.421,1296.71C757.421,1296.71 766.771,1274.49 767.175,1269.48C767.09,1272.43 766.422,1290.43 762.3,1304.83C760.646,1302.15 759.012,1299.43 757.421,1296.72L757.421,1296.71Z" style="fill:rgb(163,49,49);fill-rule:nonzero;"/>
        <path d="M767.175,1269.48C767.18,1269.2 767.186,1269.06 767.186,1269.06C767.19,1269.18 767.186,1269.32 767.175,1269.48Z" style="fill:rgb(209,192,186);fill-rule:nonzero;"/>
        <path d="M719.231,1327.45L680.29,1258.89C680.29,1258.89 693.894,1327.28 704.191,1329.58C714.489,1331.88 719.231,1327.45 719.231,1327.45Z" style="fill:rgb(163,49,49);fill-rule:nonzero;"/>
        <path d="M643.123,1210.84C643.123,1210.84 624.444,1220.14 630.884,1244.21C637.323,1268.27 643.732,1275.19 649.883,1284.19C655.692,1292.69 667.546,1315.58 668.997,1318.14C670.447,1320.71 684.73,1358.07 697.831,1362.31C711.001,1366.58 775.858,1345.92 777.322,1348.17C778.786,1350.43 777.239,1325.42 777.239,1325.42C777.239,1325.42 747.099,1327.64 740.45,1327.19C729.649,1326.46 712.322,1330.87 708.154,1321.52C703.259,1310.53 685.703,1274.41 683.855,1268.46C682.008,1262.51 660.448,1204.73 643.123,1210.84Z" style="fill:rgb(235,71,71);fill-rule:nonzero;"/>
        <path d="M718.3,1096.48C718.3,1096.48 747.111,1115.28 737.747,1160.75C728.382,1206.21 694.368,1181.21 690.672,1178.64C686.977,1176.06 675.559,1147.61 675.111,1135.19C674.69,1123.5 668.596,1076.65 718.3,1096.48Z" style="fill:rgb(238,169,135);fill-rule:nonzero;"/>
        <path d="M716.32,1105.6C713.314,1104.71 703.175,1124.31 697.717,1129.15C692.258,1133.98 682.219,1146.13 681.237,1159.43C680.256,1172.73 669.03,1130.36 672.914,1114.64C676.797,1098.92 681.979,1075.86 717.09,1094.15C752.202,1112.43 743.122,1145.12 743.122,1145.12C743.122,1145.12 731.503,1110.08 716.32,1105.6Z" style="fill:rgb(59,59,64);fill-rule:nonzero;"/>
        <path d="M691.991,1136.98C691.062,1131.6 679.189,1127.05 679.364,1135.14C679.54,1143.22 686.094,1152.55 689.801,1151.96C693.507,1151.37 692.849,1141.95 691.991,1136.98Z" style="fill:rgb(238,169,135);fill-rule:nonzero;"/>
        <path d="M693.444,1180.52C693.654,1180.92 700.509,1194.1 721.482,1197.42C721.949,1192.28 722.601,1185.98 722.601,1185.98C722.601,1185.98 707.501,1191.06 693.444,1180.52Z" style="fill:rgb(168,120,96);fill-rule:nonzero;"/>
        <rect x="807.71" y="1250.37" width="26.17" height="5.51" style="fill:rgb(230,230,230);fill-rule:nonzero;"/>
        <path d="M849.499,1265.31L845.793,1259.24C845.49,1258.74 845.646,1258.09 846.144,1257.79C846.642,1257.49 847.291,1257.64 847.595,1258.14L850.215,1262.43L857.18,1258.31C857.682,1258.01 858.329,1258.18 858.626,1258.68C858.923,1259.18 858.757,1259.83 858.255,1260.13L849.499,1265.31Z" style="fill:rgb(120,194,255);fill-rule:nonzero;"/>
        <path d="M851.986,1249.91C845.688,1249.91 840.565,1255.04 840.565,1261.33C840.565,1267.63 845.688,1272.75 851.986,1272.75C858.284,1272.75 863.407,1267.63 863.407,1261.33C863.407,1255.04 858.284,1249.91 851.986,1249.91ZM851.986,1274.66C844.639,1274.66 838.662,1268.68 838.662,1261.33C838.662,1253.99 844.639,1248.01 851.986,1248.01C859.333,1248.01 865.311,1253.99 865.311,1261.33C865.311,1268.68 859.333,1274.66 851.986,1274.66Z" style="fill:rgb(120,194,255);fill-rule:nonzero;"/>
        <path d="M849.499,1298.96L845.793,1292.9C845.49,1292.4 845.646,1291.75 846.144,1291.45C846.642,1291.14 847.291,1291.3 847.595,1291.8L850.215,1296.09L857.18,1291.96C857.682,1291.67 858.329,1291.83 858.626,1292.34C858.923,1292.84 858.757,1293.49 858.255,1293.78L849.499,1298.96Z" style="fill:rgb(120,194,255);fill-rule:nonzero;"/>
        <path d="M851.986,1283.57C845.688,1283.57 840.565,1288.69 840.565,1294.99C840.565,1301.29 845.688,1306.41 851.986,1306.41C858.284,1306.41 863.407,1301.29 863.407,1294.99C863.407,1288.69 858.284,1283.57 851.986,1283.57ZM851.986,1308.32C844.639,1308.32 838.662,1302.34 838.662,1294.99C838.662,1287.64 844.639,1281.67 851.986,1281.67C859.333,1281.67 865.311,1287.64 865.311,1294.99C865.311,1302.34 859.333,1308.32 851.986,1308.32Z" style="fill:rgb(120,194,255);fill-rule:nonzero;"/>
        <rect x="807.71" y="1261.33" width="26.17" height="5.52" style="fill:rgb(230,230,230);fill-rule:nonzero;"/>
        <rect x="807.71" y="1286.33" width="26.17" height="5.51" style="fill:rgb(230,230,230);fill-rule:nonzero;"/>
        <rect x="807.71" y="1297.29" width="26.17" height="5.52" style="fill:rgb(230,230,230);fill-rule:nonzero;"/>
        <path d="M897.535,1384.54C897.535,1384.54 889.199,1387.71 882.789,1388.34C876.379,1388.97 867.086,1395.67 864.716,1398.58C862.347,1401.49 842.955,1422.32 842.615,1424.97C842.275,1427.63 847.572,1426.75 849.354,1424.64C851.134,1422.54 868.05,1405.77 868.05,1405.77C868.05,1405.77 849.071,1426.9 849.193,1429.38C849.316,1431.85 852.171,1433.97 855.676,1431.78C855.676,1431.78 858.473,1437.51 863.411,1432.55L873.292,1422.68C873.292,1422.68 869.11,1428.7 874.597,1426.97C877.515,1426.05 887.295,1413.61 890.031,1411.76C892.768,1409.92 903.238,1393.98 903.238,1393.98L897.535,1384.54Z" style="fill:rgb(238,168,134);fill-rule:nonzero;"/>
        <path d="M964.997,1793.92C964.997,1793.92 957.777,1808.36 953.401,1811.2C949.026,1814.05 924.523,1837.89 919.491,1840.08C914.459,1842.27 898.27,1845.33 898.488,1852.99C898.707,1860.65 940.275,1858.24 948.37,1855.4C956.464,1852.55 970.028,1834.17 975.498,1834.39C980.967,1834.61 978.999,1856.93 978.999,1856.93L984.905,1856.93C984.905,1856.93 992.344,1833.3 992.125,1824.99C991.906,1816.67 987.312,1793.92 987.312,1793.92L964.997,1793.92Z" style="fill:rgb(22,45,64);fill-rule:nonzero;"/>
        <path d="M1066.32,1784.95C1066.32,1784.95 1063.15,1799.25 1057.93,1804.24C1052.71,1809.23 1033.14,1830.33 1028.17,1832.6C1023.21,1834.87 1013.68,1836.46 1010.73,1840.09C1007.78,1843.72 1009.54,1854.38 1028.17,1853.25C1046.81,1852.12 1052.88,1852.29 1057.3,1848.54C1061.73,1844.8 1076.02,1831.86 1080.28,1831.52L1080.28,1852.12L1085.38,1852.12C1085.38,1852.12 1094.4,1825.06 1091.17,1813.65C1087.94,1802.25 1088.11,1786.77 1088.11,1786.77L1066.32,1784.95Z" style="fill:rgb(22,45,64);fill-rule:nonzero;"/>
        <path d="M1058.92,1172.68C1058.92,1172.68 1067.42,1194.56 1060.81,1211.47C1060.81,1211.47 1091.97,1209.5 1093.15,1205.96C1094.33,1202.42 1091.9,1169.63 1096.18,1159.94C1100.46,1150.25 1058.92,1172.68 1058.92,1172.68Z" style="fill:rgb(238,168,134);fill-rule:nonzero;"/>
        <path d="M1115.34,1466.1C1115.34,1466.1 1113.54,1470.88 1113.81,1474.4C1114.03,1477.19 1112.48,1481.76 1111.89,1484.22C1111.3,1486.69 1109.91,1497.58 1110.25,1500.26C1110.39,1501.36 1113.94,1507.69 1113.98,1509.96C1114.01,1512.22 1113.53,1516.82 1115.5,1516.7C1117.48,1516.57 1119.06,1512.54 1119.06,1512.54C1119.06,1512.54 1119.22,1514.6 1120.98,1515.01C1124.41,1515.83 1125.86,1514.15 1125.86,1514.15C1125.86,1514.15 1127.41,1516.11 1128.93,1516.09C1132.28,1516.05 1133.64,1514.39 1133.64,1514.39C1133.64,1514.39 1135.28,1515.32 1137.5,1514.8C1140.35,1514.13 1141.13,1511.34 1141.13,1511.34C1141.13,1511.34 1144.88,1511.31 1145.63,1509.36C1146.39,1507.4 1145.89,1505.6 1146.06,1503.94C1146.23,1502.29 1143.48,1488.24 1137.04,1479.08C1130.61,1469.93 1133.84,1458.43 1133.84,1458.43L1115.34,1466.1Z" style="fill:rgb(238,168,134);fill-rule:nonzero;"/>
        <path d="M1109.11,1512.61C1107.7,1512.81 1106.71,1514.13 1106.92,1515.54L1110.78,1542.17C1110.99,1543.58 1112.3,1544.57 1113.71,1544.36L1155.95,1538.23C1157.36,1538.03 1158.35,1536.71 1158.14,1535.3L1154.28,1508.67C1154.07,1507.26 1152.76,1506.28 1151.35,1506.48L1109.11,1512.61ZM1105.56,1542.93L1101.7,1516.29C1101.08,1512 1104.06,1508.01 1108.35,1507.38L1150.59,1501.26C1154.88,1500.64 1158.88,1503.62 1159.5,1507.91L1163.36,1534.55C1163.98,1538.84 1161,1542.83 1156.71,1543.46L1114.47,1549.58C1110.18,1550.2 1106.18,1547.22 1105.56,1542.93Z" style="fill:rgb(14,30,43);fill-rule:nonzero;"/>
        <path d="M1073.42,1657.77L1229.35,1635.15L1212.88,1521.61L1056.95,1544.23L1073.42,1657.77Z" style="fill:rgb(237,218,211);fill-rule:nonzero;"/>
        <path d="M1118.32,1511.33C1118.32,1511.33 1115.83,1498.73 1118.64,1495.32C1121.44,1491.92 1122.59,1496.41 1122.59,1496.41C1122.59,1496.41 1121.38,1491.99 1124.84,1490.61C1128.31,1489.23 1129.38,1494.57 1129.38,1494.57C1129.38,1494.57 1129.37,1490.96 1133.24,1490.86C1137.11,1490.77 1136.98,1495.41 1136.98,1495.41C1136.98,1495.41 1139.81,1490.27 1142.85,1493.96C1147.98,1500.19 1145.63,1509.36 1145.63,1509.36C1145.63,1509.36 1144.85,1511.51 1141.13,1511.34C1141.13,1511.34 1139.58,1516.76 1133.64,1514.39C1133.64,1514.39 1128.69,1518.64 1125.86,1514.15C1125.86,1514.15 1120.33,1518.37 1118.32,1511.33Z" style="fill:rgb(219,156,124);fill-rule:nonzero;"/>
        <path d="M1055.91,1204.07C1055.91,1204.07 1037.5,1210.44 1029.18,1212.21C1020.86,1213.98 1003.45,1222.01 1004.87,1252.22C1006.29,1282.43 1011.48,1308.63 1013.37,1321.61C1015.26,1334.6 1014.08,1367.64 1011.01,1383.69C1011.01,1383.69 1055.15,1394.55 1107.07,1383.69C1107.07,1383.69 1097.87,1356.31 1098.1,1349.23C1098.34,1342.15 1128.79,1283.85 1130.21,1274.64C1131.62,1265.44 1137.76,1224.84 1123.83,1215.87C1109.91,1206.9 1098.58,1208.08 1092.68,1204.07C1086.77,1200.06 1064.52,1201.19 1055.91,1204.07Z" style="fill:rgb(235,71,71);fill-rule:nonzero;"/>
        <path d="M1032.27,1211.47C1032.27,1211.47 1011.95,1210.91 997.554,1242.78C983.155,1274.64 979.615,1293.29 976.311,1297.77C973.006,1302.26 961.44,1319.73 950.11,1328.22C938.781,1336.72 891.607,1384.58 891.607,1384.58L904.556,1401.16C904.556,1401.16 972.534,1353.01 979.615,1344.75C986.696,1336.48 1029.7,1273.93 1032.27,1264.49C1034.85,1255.05 1054.72,1221.23 1032.27,1211.47Z" style="fill:rgb(235,71,71);fill-rule:nonzero;"/>
        <path d="M1154.16,1369.76C1154.29,1382.51 1141.06,1469.49 1141.06,1469.49L1116.05,1470.55C1116.05,1470.55 1124.07,1384.28 1126.9,1364.45C1127.74,1358.61 1127.03,1349.51 1125.62,1339.61L1125.62,1339.6C1124.73,1333.3 1123.54,1326.68 1122.29,1320.35C1118.84,1302.88 1114.86,1287.63 1114.86,1287.63C1114.86,1287.63 1092.32,1213.37 1126.96,1218.81C1126.96,1218.81 1138.94,1233.1 1142.83,1255.41C1146.73,1277.71 1150.62,1310.99 1149.91,1324.09C1149.21,1337.19 1154.07,1360.39 1154.16,1369.76Z" style="fill:rgb(235,71,71);fill-rule:nonzero;"/>
        <path d="M1011.01,1383.69C1011.01,1383.69 1002.98,1402.66 1002.27,1407.46C1001.57,1412.25 976.409,1474.88 974.658,1493.21C972.888,1511.74 967.577,1561.19 965.688,1568.27C963.8,1575.35 969.938,1606.98 970.881,1614.06C971.826,1621.14 971.354,1736.8 962.856,1793.92C962.856,1793.92 982.683,1802.42 997.79,1793.92C997.79,1793.92 1022.81,1704.7 1021.39,1653.24C1019.98,1601.79 1013.45,1580.07 1021.43,1559.3C1029.42,1538.53 1076.15,1476.22 1080.87,1469.61C1085.59,1463 1115.17,1426.48 1087.16,1386.91C1059.16,1347.34 1011.01,1383.69 1011.01,1383.69Z" style="fill:rgb(29,59,84);fill-rule:nonzero;"/>
        <path d="M1107.65,1552.69C1105.17,1569.22 1107.78,1590.93 1112.97,1651.36C1118.17,1711.78 1103.89,1784.95 1103.89,1784.95C1085.95,1791.09 1065.3,1784.95 1065.3,1784.95C1065.77,1780.7 1065.3,1637.66 1065.3,1624.92C1065.3,1612.17 1061.63,1597.7 1060.69,1583.07C1060.05,1573.1 1055.41,1554.72 1050.19,1535.96C1048.63,1530.33 1047.01,1524.68 1045.44,1519.21L1045.44,1519.2C1044.56,1516.14 1043.69,1513.12 1042.85,1510.2C1035.5,1484.71 1025.61,1386.28 1025.61,1386.28C1025.61,1386.28 1080.4,1342.15 1107.07,1383.69C1133.75,1425.23 1120.05,1455.45 1119.11,1460.64C1118.17,1465.83 1110.14,1536.17 1107.65,1552.69Z" style="fill:rgb(29,59,84);fill-rule:nonzero;"/>
        <path d="M1006.73,1306.41C1006.73,1306.41 1010.42,1380.74 992.715,1423.58C992.715,1423.58 1051.13,1443.05 1126.55,1423.58C1126.55,1423.58 1110.38,1370.3 1111.68,1362.15C1112.97,1354.01 1141.19,1260.07 1132.51,1237.97C1123.83,1215.87 1015.43,1236.68 1006.73,1306.41Z" style="fill:rgb(235,71,71);fill-rule:nonzero;"/>
        <path d="M1076.39,1086.52C1063.24,1085.03 1029.18,1087.7 1031.78,1138.92C1034.38,1190.14 1053.02,1187.07 1071.67,1181.64C1090.32,1176.22 1112.5,1136.56 1112.5,1125.94C1112.5,1115.32 1113.92,1090.77 1076.39,1086.52Z" style="fill:rgb(238,168,134);fill-rule:nonzero;"/>
        <path d="M1033.67,1115.47C1033.67,1115.47 1048.48,1134.37 1063.38,1138.89C1063.38,1138.89 1074.85,1159.39 1094.86,1164.62C1094.86,1164.62 1137.52,1123.82 1101.65,1093.13C1065.77,1062.45 1033.43,1099.81 1033.67,1115.47Z" style="fill:rgb(252,204,162);fill-rule:nonzero;"/>
        <path d="M1060.57,1131.84C1061.07,1129.04 1067.29,1123.34 1072.07,1129.72C1076.86,1136.09 1068.13,1150.96 1064.82,1150.96C1061.52,1150.96 1058.69,1142.46 1060.57,1131.84Z" style="fill:rgb(238,168,134);fill-rule:nonzero;"/>
        <path d="M1107.66,1102.36C1108.72,1100.74 1141.06,1086.17 1147.79,1116.62C1154.52,1147.07 1121.75,1182.47 1116,1197.7C1110.26,1212.92 1116,1249.03 1116,1249.03C1116,1249.03 1098.88,1230.46 1092.91,1211.47C1086.36,1190.61 1084.16,1138.03 1107.66,1102.36Z" style="fill:rgb(252,204,162);fill-rule:nonzero;"/>
        <path d="M1084.94,1463.91C1084.51,1464.86 1057.22,1525.45 1050.19,1535.96C1048.63,1530.33 1047.01,1524.68 1045.44,1519.21L1045.44,1519.2C1045.44,1519.2 1084.02,1465.25 1084.94,1463.91Z" style="fill:rgb(22,45,64);fill-rule:nonzero;"/>
        <path d="M1131.33,1277.74C1131.33,1277.74 1130.47,1316.28 1125.62,1339.6C1124.73,1333.3 1123.54,1326.68 1122.29,1320.35C1122.49,1319.48 1130.38,1283.77 1131.33,1277.74Z" style="fill:rgb(171,52,52);fill-rule:nonzero;"/>
        <path d="M434.166,1818.55C434.166,1818.55 442.414,1830.89 453.984,1833.55C465.553,1836.22 476.949,1840.46 477.036,1847.76C477.124,1855.06 443.586,1859.42 430.346,1852.05C410.586,1841.07 408.578,1844.38 406.387,1838.89C404.196,1833.4 409.019,1818.71 408.876,1816.97C408.7,1814.81 434.166,1818.55 434.166,1818.55Z" style="fill:rgb(53,58,61);fill-rule:nonzero;"/>
        <path d="M432.885,1812.46C432.885,1812.46 434.39,1818.42 434.166,1818.55C433.942,1818.67 408.094,1821.75 408.876,1816.97C409.51,1813.09 410.415,1808.87 410.415,1808.87L432.885,1812.46Z" style="fill:rgb(129,128,126);fill-rule:nonzero;"/>
        <path d="M347.177,1817.73C347.177,1817.73 353.061,1829.53 363.112,1833.55C373.857,1837.85 382.474,1842.79 382.278,1849.9C382.083,1857.02 356.011,1864.23 337.044,1850.57C325.061,1841.95 321.263,1841.91 319.34,1836.47C317.417,1831.04 322.679,1816.93 322.607,1815.22C322.519,1813.11 347.177,1817.73 347.177,1817.73Z" style="fill:rgb(53,58,61);fill-rule:nonzero;"/>
        <path d="M347.471,1811.6C347.471,1811.6 347.399,1817.61 347.177,1817.73C346.954,1817.84 321.972,1819.9 322.607,1815.22C323.111,1811.5 325.031,1807.01 325.031,1807.01L347.471,1811.6Z" style="fill:rgb(129,128,126);fill-rule:nonzero;"/>
        <path d="M439.069,1451.01C439.069,1451.01 462.278,1553.39 467.58,1584.57C472.092,1611.11 475.688,1638.75 473.526,1657.91C470.85,1681.63 437.27,1804.57 438.673,1811.53C440.077,1818.48 403.534,1812.64 403.534,1812.64C403.534,1812.64 429.074,1675.51 423.972,1649.98C420.193,1631.08 387.087,1505.5 382.013,1511.94C376.939,1518.38 370.648,1630.46 366.891,1649.06C363.133,1667.67 351.598,1814.67 351.598,1814.67C351.598,1814.67 325.806,1818.47 318.917,1812.64C318.917,1812.64 315.781,1687.12 318.176,1652.24C319.088,1638.95 302.601,1492.86 323.742,1434.05C334.915,1402.97 439.069,1451.01 439.069,1451.01Z" style="fill:rgb(45,49,51);fill-rule:nonzero;"/>
        <path d="M540.094,1357.94C523.552,1355.62 471.508,1378.67 466.78,1376.93C463.527,1375.74 455.896,1350.87 450.443,1332.05C447.218,1320.92 444.758,1311.9 444.416,1311.15L444.396,1311.11C444.448,1311.61 445.292,1320.12 444.219,1331.31C444.15,1332.03 443.821,1332.22 443.736,1332.97C443.712,1333.16 443.604,1333.76 443.525,1333.94C442.313,1336.7 441.863,1341.89 440.75,1346.21C439.097,1352.59 438.188,1361.27 438.843,1370.32L438.843,1370.36C438.839,1370.42 438.839,1370.49 438.831,1370.56C438.827,1370.77 438.815,1370.97 438.815,1371.17C438.815,1371.25 438.807,1371.34 438.807,1371.42C438.345,1387.54 439.458,1404.92 439.921,1414.17C440.648,1428.49 435.936,1434.94 435.799,1435.13L435.795,1435.13L430.81,1434.43L427.207,1433.92L427.163,1433.92L422.35,1433.24L403.476,1430.59L396.641,1429.63L395.024,1429.4L383.066,1427.72L349.352,1422.97L345.652,1422.45L344.129,1422.24L331.415,1420.45L325.669,1419.64L325.649,1419.64C325.649,1419.64 320.768,1385.02 320.394,1366.31C320.056,1349.13 310.856,1314.24 309.356,1308.66C309.349,1308.62 309.336,1308.58 309.324,1308.54C309.313,1308.49 309.3,1308.43 309.284,1308.39C309.256,1308.29 309.236,1308.21 309.216,1308.14C309.208,1308.1 309.196,1308.06 309.184,1308.02C309.184,1308.01 309.18,1308 309.176,1307.99C309.172,1307.98 309.168,1307.96 309.168,1307.95C309.156,1307.91 309.156,1307.89 309.156,1307.89C309.156,1307.89 281.637,1336.8 276.297,1349.42C274.669,1353.24 269.691,1363.65 263.354,1376.33C259.019,1368.06 256.306,1362.31 256.306,1360.87C256.306,1360.69 256.31,1360.5 256.314,1360.3C256.72,1347.83 269.792,1297.26 280.105,1264.22C288.115,1248.12 295.022,1235.1 297.238,1233.51C300.595,1231.1 314.72,1225.05 327.048,1220.16C327.454,1220 327.856,1219.84 328.25,1219.68C329.4,1219.23 330.534,1218.79 331.636,1218.36C332.187,1218.14 332.729,1217.93 333.265,1217.73C333.558,1217.62 333.848,1217.51 334.137,1217.4C334.374,1217.31 334.607,1217.22 334.841,1217.13L334.845,1217.13C341.009,1214.79 345.693,1213.15 346.658,1213.09C346.819,1213.08 347.076,1213.08 347.426,1213.1C347.832,1213.11 348.358,1213.13 348.986,1213.17C356.605,1213.62 379.347,1215.75 386.665,1216.44C387.996,1216.57 388.82,1216.65 388.945,1216.66L388.961,1216.66C388.961,1216.66 392.447,1218.25 397.694,1220.65L397.698,1220.65L398.185,1220.87C401.357,1222.33 405.028,1224.27 408.908,1226.39C416.516,1230.56 424.919,1235.43 431.887,1238.75C438.723,1242 448.079,1246.53 448.875,1247.17L483.498,1347.01L543.563,1336.03L540.094,1357.94Z" style="fill:rgb(222,203,196);fill-rule:nonzero;"/>
        <path d="M435.798,1435.13C435.798,1435.13 438.335,1438.16 439.069,1451.01C439.069,1451.01 334.768,1438.84 323.742,1434.05C323.742,1434.05 323.311,1419.89 325.65,1419.64C328.219,1419.37 435.798,1435.13 435.798,1435.13Z" style="fill:rgb(73,80,85);fill-rule:nonzero;"/>
        <path d="M346.853,1209.55C347.177,1225.92 378.871,1234.88 378.871,1234.88C378.871,1234.88 392.128,1218.26 388.961,1216.67C387.718,1216.04 387.213,1213.56 387.058,1210.78C386.915,1208.13 387.084,1205.21 387.238,1203.35C387.333,1202.2 387.422,1201.45 387.422,1201.45C387.422,1201.45 382.894,1196.67 377.133,1190.98C367.066,1181.03 353.226,1168.28 353.205,1173.35C353.203,1173.62 353.24,1173.94 353.321,1174.31C355.754,1185.73 346.853,1209.55 346.853,1209.55Z" style="fill:rgb(238,168,134);fill-rule:nonzero;"/>
        <path d="M349.482,1422.15C349.482,1422.15 347.205,1436.51 347.008,1440.25L342.183,1439.29C342.183,1439.29 343.512,1424.1 344.293,1421.55L349.482,1422.15Z" style="fill:rgb(53,58,61);fill-rule:nonzero;"/>
        <path d="M427.097,1433.45C427.097,1433.45 428.925,1446.5 428.968,1451.43L423.864,1450.76C423.864,1450.76 422.818,1434.47 422.234,1432.77L427.097,1433.45Z" style="fill:rgb(53,58,61);fill-rule:nonzero;"/>
        <path d="M359.059,1185.57L359.062,1185.57C359.124,1185.67 360.468,1187.68 362.763,1190.57C367.628,1196.69 376.775,1206.74 387.058,1210.78C386.915,1208.13 387.084,1205.21 387.238,1203.35C388.291,1203.33 389.343,1203.21 390.386,1202.97C387.566,1198.05 383.495,1192.88 383.495,1192.88L377.133,1190.98L359.059,1185.57Z" style="fill:rgb(167,120,96);fill-rule:nonzero;"/>
        <path d="M352.975,1173.57C355.717,1179.54 358.32,1183.86 359.059,1185.57L359.062,1185.57C359.542,1186.69 360.851,1188.51 362.763,1190.57C367.985,1196.19 377.694,1203.61 387.238,1203.35C388.291,1203.33 389.343,1203.21 390.386,1202.97C394.24,1202.13 398.791,1200.34 401.294,1195.44C421.067,1156.73 406.751,1125.07 406.751,1125.07C406.751,1125.07 352.687,1109.78 344.228,1126.06C338.292,1137.47 346.534,1159.56 352.975,1173.57Z" style="fill:rgb(238,168,134);fill-rule:nonzero;"/>
        <path d="M406.751,1125.07C406.751,1125.07 411.773,1124.79 413.014,1115.27C414.241,1105.87 411.76,1103.26 411.76,1103.26C411.76,1103.26 389.441,1093.92 381.426,1092.7C373.41,1091.49 353.701,1090.32 349.082,1095.6C349.082,1095.6 337.857,1093 334.799,1111.63C329.948,1141.19 351.33,1169.9 351.33,1169.9C351.33,1169.9 351.148,1150.58 355.407,1148.02C359.666,1145.46 363.342,1151.55 363.342,1151.55L372.054,1153.11C372.054,1153.11 358.822,1124.54 374.695,1123.48C390.567,1122.42 397.665,1126.73 406.751,1125.07Z" style="fill:rgb(214,214,214);fill-rule:nonzero;"/>
        <path d="M363.103,1143.85C362.274,1135.34 346.888,1132.1 347.918,1141.01C348.949,1149.93 356.526,1158.5 360.026,1158.2C363.526,1157.9 363.734,1150.34 363.103,1143.85Z" style="fill:rgb(238,168,134);fill-rule:nonzero;"/>
        <path d="M314.053,1370.11C314.053,1376.32 312.034,1383.43 308.931,1391C308.85,1391.19 308.773,1391.38 308.693,1391.57C306.554,1387.01 304.54,1382.64 302.734,1378.59C302.73,1378.58 302.727,1378.58 302.727,1378.57C297.761,1367.46 294.351,1358.79 294.162,1355.36C292.936,1333.32 309.168,1307.95 309.168,1307.95C309.168,1307.96 309.172,1307.98 309.176,1307.99C309.18,1308 309.184,1308.01 309.184,1308.02C309.196,1308.06 309.208,1308.1 309.216,1308.14C309.24,1308.22 309.264,1308.3 309.284,1308.39C309.3,1308.43 309.313,1308.49 309.324,1308.54C309.336,1308.58 309.349,1308.62 309.356,1308.66C312.682,1321.76 314.053,1370.11 314.053,1370.11ZM263.354,1376.33C270.057,1389.11 280.632,1407.93 291.074,1426.17C289.699,1428.73 288.356,1431.28 287.069,1433.79C283.929,1439.94 281.143,1445.88 279.165,1451.43C276.784,1458.09 273.475,1475.17 279.808,1478.34L313.172,1496.76C313.172,1496.76 313.406,1496.11 313.848,1494.9C314.954,1491.9 317.35,1485.5 320.667,1477.19C320.776,1476.92 321.109,1476.13 321.604,1474.96C322.268,1473.4 323.225,1471.17 324.318,1468.61C324.809,1467.47 325.323,1466.26 325.858,1465.03C326.461,1463.61 327.088,1462.15 327.712,1460.7C328.62,1458.58 329.525,1456.48 330.361,1454.54C332.637,1449.24 334.415,1445.11 334.415,1445.11C334.527,1444.87 334.64,1444.62 334.752,1444.38C335.838,1442.03 336.952,1439.67 338.085,1437.33C339.838,1433.69 341.644,1430.06 343.489,1426.52C343.674,1426.16 343.859,1425.8 344.048,1425.44C344.378,1424.82 344.708,1424.2 345.037,1423.58C345.242,1423.21 345.447,1422.83 345.652,1422.45C345.697,1422.37 345.745,1422.28 345.789,1422.2C345.874,1422.05 345.954,1421.9 346.039,1421.75C355.685,1404.16 366.549,1389.45 370.015,1367.87C370.349,1365.79 370.666,1363.72 370.968,1361.66C371.47,1358.24 371.933,1354.86 372.355,1351.54C372.512,1350.29 372.668,1349.05 372.817,1347.82C374.554,1333.42 375.592,1320.6 376.428,1311.66C379.037,1283.83 361.989,1253.7 348.901,1235.08C341.901,1225.12 336.039,1218.46 334.909,1217.2C334.881,1217.17 334.861,1217.15 334.841,1217.13C334.607,1217.22 334.374,1217.31 334.137,1217.4C333.848,1217.51 333.558,1217.62 333.265,1217.73C332.729,1217.93 332.187,1218.14 331.636,1218.36C330.534,1218.79 329.4,1219.23 328.25,1219.68C327.856,1219.84 327.454,1220 327.048,1220.16C314.375,1225.13 284.502,1233.96 281.145,1236.37C279.207,1237.76 278.052,1248.96 273.046,1265.01C262.732,1298.05 256.611,1347.86 256.314,1360.3C256.31,1360.5 256.306,1360.69 256.306,1360.87C256.306,1362.31 259.019,1368.06 263.354,1376.33Z" style="fill:rgb(60,65,69);fill-rule:nonzero;"/>
        <path d="M562.265,1324.11L486.714,1340.56L450.7,1246.38C449.904,1245.75 439.579,1240.19 432.744,1236.94C425.627,1233.55 416.62,1229.37 408.631,1225.68C404.815,1223.92 401.22,1222.27 398.185,1220.87L397.936,1221.07C397.936,1221.07 402.395,1235.92 408.164,1272.98C408.164,1272.99 408.164,1272.99 408.168,1273C408.365,1274.24 408.558,1275.51 408.755,1276.8C408.775,1276.95 408.8,1277.1 408.824,1277.25C408.952,1278.11 409.085,1278.98 409.214,1279.86C409.229,1279.96 409.246,1280.07 409.262,1280.17C409.351,1280.76 409.439,1281.35 409.523,1281.96C409.74,1283.42 409.958,1284.91 410.175,1286.43C412.748,1304.47 416.358,1335.18 419.829,1366.17L419.829,1366.19C422.571,1390.62 428.819,1415.69 430.806,1434.39C430.806,1434.41 430.81,1434.42 430.81,1434.43C431.204,1438.1 432.141,1442.98 433.407,1448.5C433.548,1449.12 433.696,1449.75 433.845,1450.39C439.434,1474 450.286,1507.43 450.286,1507.43L453.447,1504.51L462.807,1495.87C464.962,1493.88 465.778,1490.84 464.91,1488.04C459.719,1471.29 442.076,1412.03 438.843,1370.36C438.839,1370.34 438.839,1370.33 438.839,1370.32C437.826,1357.23 441.654,1344.9 443.873,1333.2C443.913,1333.3 443.95,1333.4 443.986,1333.51C445.843,1338.68 447.902,1344.29 449.977,1349.76C455.545,1364.45 461.243,1378.06 463.615,1378.92C468.895,1380.87 568.374,1353.67 569.061,1349.76L562.265,1324.11Z" style="fill:rgb(60,65,69);fill-rule:nonzero;"/>
        <path d="M343.641,1257.75L359.059,1266.45L352.472,1273.17L370.013,1367.87C373.589,1345.67 375.217,1324.59 376.428,1311.67C380.461,1268.64 337.515,1220.1 334.843,1217.13C332.78,1217.91 330.552,1218.78 328.249,1219.69L343.641,1257.75Z" style="fill:rgb(81,86,92);fill-rule:nonzero;"/>
        <path d="M397.697,1220.65C397.697,1220.65 403.458,1239.47 410.173,1286.43C412.746,1304.47 416.358,1335.18 419.83,1366.17L423.419,1277.48L416.074,1269.52L422.604,1261.36L408.631,1225.68C404.815,1223.92 401.222,1222.27 398.184,1220.87L397.697,1220.65Z" style="fill:rgb(81,86,92);fill-rule:nonzero;"/>
        <path d="M334.069,1217.32L346.853,1209.55C346.853,1209.55 347.211,1216.56 378.871,1234.88L369.88,1260.2L334.069,1217.32Z" style="fill:rgb(245,226,217);fill-rule:nonzero;"/>
        <path d="M387.293,1213.09C387.293,1213.09 386.795,1220.65 378.871,1234.88L396.418,1257.75L397.697,1220.65L387.293,1213.09Z" style="fill:rgb(245,226,217);fill-rule:nonzero;"/>
        <path d="M378.823,1234.88C378.823,1234.88 375.423,1248.48 376.647,1252.29C376.647,1252.29 384.125,1255.01 389.5,1251.61C389.5,1251.61 385.692,1242.09 378.823,1234.88Z" style="fill:rgb(50,54,87);fill-rule:nonzero;"/>
        <path d="M396.403,1431.06C398.306,1421.46 396.495,1392.7 396.417,1391.48L394.788,1391.59C394.807,1391.88 396.664,1421.35 394.802,1430.74L396.403,1431.06Z" style="fill:rgb(173,159,153);fill-rule:nonzero;"/>
        <path d="M383.088,1426.63C383.088,1426.63 398.435,1428.46 403.51,1429.73L402.845,1446.93L382.748,1444.79L383.088,1426.63Z" style="fill:rgb(105,115,122);fill-rule:nonzero;"/>
        <path d="M386.447,1250.38C386.447,1250.38 403.563,1293.61 400.771,1341.99C397.876,1392.16 393.129,1410.35 393.129,1410.35L382.574,1423.58L377.92,1407.31C377.92,1407.31 392.083,1343.36 382.94,1281.13C381.283,1269.85 378.823,1248.48 378.823,1248.48L386.447,1250.38Z" style="fill:rgb(50,54,87);fill-rule:nonzero;"/>
        <path d="M335.013,1454.52C335.013,1454.52 338.686,1461.87 342.358,1463.09C346.031,1464.31 351.387,1470.28 351.387,1470.28L325.525,1483.9C325.525,1483.9 318.639,1470.44 318.333,1461.87C318.027,1453.3 335.013,1454.52 335.013,1454.52Z" style="fill:rgb(238,168,134);fill-rule:nonzero;"/>
        <path d="M337.468,1455.21L339.181,1458.65C339.181,1458.65 322.756,1470.66 318.329,1471.43L316.809,1466.84L337.468,1455.21Z" style="fill:rgb(222,203,196);fill-rule:nonzero;"/>
        <path d="M339.181,1455.36C339.181,1455.36 326.872,1465.54 316.501,1470.23L281.616,1407.48L299.692,1372.54C299.692,1372.54 338.365,1449.24 339.181,1455.36Z" style="fill:rgb(60,65,69);fill-rule:nonzero;"/>
        <path d="M443.986,1333.51C445.843,1338.68 447.902,1344.29 449.977,1349.76C450.459,1343.42 450.584,1337.52 450.443,1332.05C449.611,1299.5 439.374,1282.43 439.374,1282.43C441.722,1288.11 442.848,1300.28 443.387,1311.28C443.958,1322.89 443.873,1333.2 443.873,1333.2L443.986,1333.51Z" style="fill:rgb(45,49,51);fill-rule:nonzero;"/>
        <path d="M287.069,1433.79L314.998,1467.52L291.074,1426.17C289.699,1428.73 288.356,1431.28 287.069,1433.79Z" style="fill:rgb(45,49,51);fill-rule:nonzero;"/>
        <path d="M489.887,1391.5L554.367,1391.5C558.786,1391.5 562.632,1388.48 563.672,1384.18L591.68,1268.54C593.139,1262.52 588.574,1256.71 582.375,1256.71L517.895,1256.71C513.474,1256.71 509.63,1259.74 508.59,1264.04L480.582,1379.67C479.123,1385.7 483.688,1391.5 489.887,1391.5Z" style="fill:rgb(217,201,194);fill-rule:nonzero;"/>
        <path d="M568.755,1359.35C565.6,1356.43 559.514,1354.74 554.302,1351.26C549.09,1347.77 553.442,1344.18 553.442,1344.18C548.087,1342.34 548.663,1339.9 549.35,1338.24C550.276,1335.99 556.124,1336.62 556.124,1336.62C556.124,1336.62 550.88,1335.46 548.724,1334.51C546.566,1333.55 547.298,1329.79 550.617,1328.61C553.935,1327.42 567.457,1330.75 567.457,1330.75C567.457,1330.75 565.252,1329.67 558.583,1326.32C551.915,1322.98 550.45,1319.93 554.383,1318.47C557.116,1317.45 562.487,1319.58 572.798,1326.51C580.561,1331.73 579.93,1332.41 579.93,1332.41C579.93,1332.41 572.523,1362.84 568.755,1359.35Z" style="fill:rgb(238,168,134);fill-rule:nonzero;"/>
    </g>
    <defs>
        <linearGradient id="_Linear1" x1="0" y1="0" x2="1" y2="0" gradientUnits="userSpaceOnUse" gradientTransform="matrix(1106.5,0,0,1106.5,720.503,521.949)"><stop offset="0" style="stop-color:rgb(255,158,84);stop-opacity:1"/><stop offset="1" style="stop-color:rgb(255,209,84);stop-opacity:1"/></linearGradient>
        <linearGradient id="_Linear2" x1="0" y1="0" x2="1" y2="0" gradientUnits="userSpaceOnUse" gradientTransform="matrix(218.456,0,0,218.456,1925.94,1269.32)"><stop offset="0" style="stop-color:rgb(63,212,230);stop-opacity:1"/><stop offset="1" style="stop-color:rgb(84,119,255);stop-opacity:1"/></linearGradient>
        <linearGradient id="_Linear3" x1="0" y1="0" x2="1" y2="0" gradientUnits="userSpaceOnUse" gradientTransform="matrix(197.554,0,0,197.554,2086.2,1391.22)"><stop offset="0" style="stop-color:rgb(63,212,230);stop-opacity:1"/><stop offset="1" style="stop-color:rgb(84,119,255);stop-opacity:1"/></linearGradient>
        <linearGradient id="_Linear4" x1="0" y1="0" x2="1" y2="0" gradientUnits="userSpaceOnUse" gradientTransform="matrix(148.277,0,0,148.277,2103.08,1419.95)"><stop offset="0" style="stop-color:rgb(63,212,230);stop-opacity:1"/><stop offset="1" style="stop-color:rgb(84,119,255);stop-opacity:1"/></linearGradient>
        <linearGradient id="_Linear5" x1="0" y1="0" x2="1" y2="0" gradientUnits="userSpaceOnUse" gradientTransform="matrix(172.683,0,0,172.683,2049.54,1300.63)"><stop offset="0" style="stop-color:rgb(63,212,230);stop-opacity:1"/><stop offset="1" style="stop-color:rgb(84,119,255);stop-opacity:1"/></linearGradient>
        <linearGradient id="_Linear6" x1="0" y1="0" x2="1" y2="0" gradientUnits="userSpaceOnUse" gradientTransform="matrix(159.348,0,0,159.348,2009.91,1548.32)"><stop offset="0" style="stop-color:rgb(255,147,63);stop-opacity:1"/><stop offset="1" style="stop-color:rgb(255,205,68);stop-opacity:1"/></linearGradient>
        <linearGradient id="_Linear7" x1="0" y1="0" x2="1" y2="0" gradientUnits="userSpaceOnUse" gradientTransform="matrix(159.348,0,0,159.348,2009.91,1548.32)"><stop offset="0" style="stop-color:rgb(200,114,49);stop-opacity:1"/><stop offset="1" style="stop-color:rgb(255,205,68);stop-opacity:1"/></linearGradient>
        <linearGradient id="_Linear8" x1="0" y1="0" x2="1" y2="0" gradientUnits="userSpaceOnUse" gradientTransform="matrix(-9.01862e-06,206.322,-206.322,-9.01862e-06,872.459,633.487)"><stop offset="0" style="stop-color:rgb(211,218,223);stop-opacity:1"/><stop offset="1" style="stop-color:white;stop-opacity:1"/></linearGradient>
    </defs>
</svg>
