<?xml version="1.0" encoding="UTF-8" standalone="no"?>
<!DOCTYPE svg PUBLIC "-//W3C//DTD SVG 1.1//EN" "http://www.w3.org/Graphics/SVG/1.1/DTD/svg11.dtd">
<svg width="100%" height="100%" viewBox="0 0 952 741" version="1.1" xmlns="http://www.w3.org/2000/svg" xmlns:xlink="http://www.w3.org/1999/xlink" xml:space="preserve" xmlns:serif="http://www.serif.com/" style="fill-rule:evenodd;clip-rule:evenodd;stroke-linejoin:round;stroke-miterlimit:2;">
    <g id="Artboard1" transform="matrix(1,0,0,1,-85.6792,-26.521)">
        <rect x="85.679" y="26.521" width="951.207" height="740.567" style="fill:none;"/>
        <g transform="matrix(1,0,0,1,0.679191,0.520954)">
            <path d="M896.332,754.559C890.593,754.559 884.823,754.327 878.987,753.761C856.695,751.597 834.099,750.516 811.918,747.428C761.011,740.341 710.081,739.922 658.805,739.922C638.445,739.922 618.086,739.725 597.73,739.725C568.093,739.725 538.467,740.144 508.888,742.202C462.744,745.414 416.529,745.926 370.302,745.926C363.327,745.926 356.346,745.914 349.371,745.898C348.921,745.897 348.474,745.897 348.024,745.897C322.429,745.897 296.933,747.537 271.376,748.695C245.704,749.859 220.741,751.77 195.218,751.77C192.916,751.77 190.607,751.755 188.295,751.721C162.793,751.357 123.961,743.63 105.767,723.937C94.964,712.235 96.429,684.085 107.248,672.804C111.974,667.875 119.592,664.015 125.816,661.667C143.544,654.977 161.586,654.96 180.111,654.822C180.339,654.82 180.564,654.819 180.792,654.819C182.071,654.819 183.354,654.846 184.641,654.898L178.38,697.775L194.894,702.318L210.351,658.797C213.317,659.534 216.246,660.349 219.117,661.222C230.264,664.609 241.652,665.796 252.989,667.904C254.185,668.127 255.392,668.334 256.609,668.527L263.112,708.341L278.714,707.009L280.909,670.452C281.275,670.455 281.642,670.456 282.008,670.456C288.394,670.456 294.737,670.106 300.819,669.426C308.269,668.594 315.742,667.963 323.222,667.388C323.188,668.475 323.253,669.507 323.53,670.345C324.985,674.748 331.386,675.837 335.418,676.313C338.174,676.638 340.949,676.801 343.724,676.801C344.491,676.801 345.258,676.789 346.024,676.764C346.746,672.98 347.557,669.209 348.438,665.449C349.08,665.395 349.723,665.339 350.364,665.283C363.663,664.115 376.778,662.063 389.928,660.194C389.632,664.594 389.251,668.98 388.753,673.348C392.098,674.511 395.531,675.422 399.013,676.071C400.696,676.386 402.815,676.721 404.903,676.721C407.768,676.721 410.577,676.091 412.138,673.91C413.518,671.982 413.854,668.253 414.44,665.987C415.231,662.934 415.993,659.874 416.736,656.809C425.105,655.572 433.366,653.639 441.772,652.666C468.833,649.536 495.942,648.858 523.051,648.774C525.25,648.768 527.447,648.765 529.645,648.765C542.551,648.765 555.457,648.865 568.355,648.865C578.147,648.865 587.93,648.837 597.716,648.833C598.172,661.656 598.459,674.491 598.263,687.399C598.191,692.251 596.341,698.598 600.349,702.151C601.664,703.317 603.057,703.94 604.352,703.94C606.001,703.94 607.491,702.929 608.461,700.74C610.232,696.744 609.925,692.111 610.533,687.876C612.419,674.75 616.018,661.868 618.888,648.883C632.642,648.967 646.397,649.175 660.138,649.655C660.456,655.828 660.928,661.996 661.305,668.163C661.961,678.918 659.794,690.004 664.896,699.972C665.906,701.945 667.635,703.54 669.425,703.54C670.471,703.54 671.536,702.995 672.492,701.664C674.488,698.882 673.569,694.067 674.063,690.837C676.124,677.335 679.174,664.02 682.066,650.675C690.492,651.173 698.916,651.803 707.336,652.6C718.425,653.649 729.442,653.014 740.377,655.51C751.355,658.015 762.438,660.301 773.687,660.748C783.31,661.13 792.96,661.255 802.622,661.255C819.811,661.255 837.033,660.857 854.164,660.793C855.88,660.786 858.267,660.775 861.229,660.775C899.574,660.775 1033.15,662.607 1023.57,699.677C1019.89,713.922 998.483,732.462 986.476,738.429C971.307,745.968 954.719,750.428 938.022,751.932C923.949,753.199 910.228,754.559 896.332,754.559Z" style="fill:rgb(246,234,234);fill-rule:nonzero;"/>
            <path d="M350.088,393.514C349.86,393.325 349.623,393.132 349.36,393.02C346.906,391.973 345,392.897 342.363,392.563C341.187,392.414 339.865,389.666 338.269,391.558C337.68,392.257 336.477,394.174 335.235,395.676C333.424,397.865 329.805,399.546 326.686,400.35C322.494,401.431 318.031,402.478 313.759,402.918C304.783,403.84 294.691,403.879 285.692,403.076C286.355,388.156 277.957,373.192 264.875,365.987C263.508,365.234 262.038,364.546 260.476,364.53C259.157,364.517 257.877,364.989 256.703,365.59C244.28,371.952 250.839,383.45 255.736,392.937C258.792,398.858 262.271,404.674 266.169,410.083C271.628,417.657 279.527,419.165 288.623,418.893C298.262,418.605 308.021,418.14 317.417,415.8C321.983,414.663 326.007,412.748 330.344,411.042C334.629,409.356 335.14,411.359 339.271,410.845C341.575,410.559 343.979,410.703 346.198,409.99C350.178,408.712 351.548,404.618 353.097,401.159C353.482,400.298 353.746,399.717 353.688,398.835C353.594,397.4 352.676,396.348 351.803,395.272C351.286,394.635 350.715,394.036 350.088,393.514Z" style="fill:rgb(229,209,189);fill-rule:nonzero;"/>
            <path d="M252.313,400.979C255.131,405.288 258.081,409.395 261.075,413.239C265.542,418.971 270.576,425.076 277.666,426.668C280.398,427.282 283.236,427.161 286.034,427.023C299.296,426.365 312.542,425.375 325.755,424.053C326.737,417.148 326.665,410.094 325.542,403.211C325.227,401.279 324.746,399.213 323.264,397.935C321.063,396.035 317.727,396.677 314.918,397.427C310.342,398.649 305.767,399.87 301.192,401.092C299.708,401.488 298.049,401.867 296.699,401.132C295.818,400.652 295.235,399.776 294.702,398.926C284.619,382.856 279.365,367.535 273.761,349.563C271.29,341.641 268.668,333.451 263.114,327.286C251.253,314.123 229.285,321.964 230.057,340.279C230.937,361.161 240.466,382.862 252.313,400.979Z" style="fill:rgb(214,112,134);fill-rule:nonzero;"/>
            <path d="M659.144,591.516L659.833,633.386C659.551,645.003 660.598,656.584 661.305,668.163C661.961,678.918 659.794,690.004 664.896,699.972C666.496,703.097 669.901,705.274 672.492,701.664C674.488,698.882 673.569,694.067 674.063,690.837C677.769,666.564 684.667,642.893 688.109,618.575C691.715,593.101 681.86,593.774 659.144,591.516Z" style="fill:rgb(234,205,176);fill-rule:nonzero;"/>
            <path d="M661.523,692.814L658.831,699.799L672.078,711.459L684.212,711.959L688.137,705.556L671.816,691.365L661.523,692.814Z" style="fill:rgb(41,41,73);fill-rule:nonzero;"/>
            <path d="M629.482,591.923L621.845,633.099C619.198,651.518 613.18,669.456 610.533,687.876C609.925,692.111 610.232,696.744 608.461,700.74C606.73,704.648 603.34,704.802 600.349,702.151C596.341,698.598 598.191,692.251 598.263,687.399C598.754,655.073 596.211,623.206 595.6,590.828C595.592,590.404 595.61,589.917 595.939,589.648C596.205,589.428 596.586,589.433 596.93,589.456C600.074,589.666 629.317,592.812 629.482,591.923Z" style="fill:rgb(234,205,176);fill-rule:nonzero;"/>
            <path d="M598.17,694.533L593.971,700.73L604.244,715.079L615.953,718.305L621.221,712.953L608.525,695.445L598.17,694.533Z" style="fill:rgb(41,41,73);fill-rule:nonzero;"/>
            <path d="M702.298,618.157L696.586,558.295L693.831,519.401L684.568,487.634L634.555,479.872L572.721,490.47L569.749,502.484L581.649,613.687L641.29,618.157L640.481,548.945L649.681,591.845L649.29,618.157L702.298,618.157Z" style="fill:rgb(26,49,81);fill-rule:nonzero;"/>
            <path d="M585.847,370.676C585.763,372.697 585.708,374.717 585.672,376.733C584.948,417.794 587.212,459.378 587.472,500.78C608.676,497.46 630.112,495.632 651.571,495.308C656.539,495.232 679.122,498.72 682.266,495.754C686.533,491.73 681.84,492.488 682.153,487.244C682.557,480.46 679.297,474.904 680.528,466.865C681.976,457.417 684.854,448.072 686.513,438.625C689.837,419.683 691.839,400.509 692.489,381.289C693.064,364.241 692.446,346.561 685.115,331.159C667.036,293.178 608.75,293.861 592.757,333.518C588.02,345.264 586.375,357.981 585.847,370.676Z" style="fill:white;fill-rule:nonzero;"/>
            <path d="M651.618,317.397L635.787,346.247C636.615,375.39 637.442,404.533 638.269,433.677C638.65,447.108 639.032,460.539 639.413,473.97C639.545,478.633 639.661,483.298 639.81,487.961C639.877,490.054 639.299,493.578 640.493,495.286C643.084,498.994 652.559,497.838 656.691,498.163C663.136,498.67 669.675,499.197 675.745,501.422C679.787,502.903 683.617,505.134 687.88,505.733C688.838,505.867 689.909,505.886 690.661,505.278C691.502,504.599 691.646,503.393 691.725,502.315C693.207,482.307 693.237,461.681 694.347,441.459C695.22,425.555 697.374,409.524 696.615,393.597C695.834,377.215 693.27,360.918 690.138,344.838C688.284,335.318 686.104,325.612 680.864,317.451C674.923,308.2 666.514,304.494 656.155,302.408C652.497,301.672 638.88,296.523 641.153,304.84C642.277,308.954 648.841,314.093 651.618,317.397Z" style="fill:rgb(71,78,187);fill-rule:nonzero;"/>
            <path d="M617.177,320.11L633.007,348.96C632.676,348.96 631,419.678 630.865,424.451C630.349,442.604 629.834,460.757 629.319,478.91C629.176,483.955 629.854,489.866 628.867,494.825C627.489,501.75 620.2,500.387 613.988,500.947C600.401,502.172 586.096,504.491 572.472,503.803C568.542,503.605 573.714,421.589 573.707,413.936C573.68,386.409 568.001,355.869 581.984,330.906C586.053,323.643 593.225,311.999 601.142,308.413C608.52,305.071 619.081,304.503 627.09,302.63L627.507,307.82L617.177,320.11Z" style="fill:rgb(71,78,187);fill-rule:nonzero;"/>
            <path d="M651.536,250.23C654.029,254.598 655.23,259.629 655.451,264.653C655.51,265.989 655.601,267.531 656.681,268.32C657.837,269.164 656.821,271.016 657.7,269.887C658.58,268.757 661.566,264.835 661.7,263.41C662.015,260.071 662.01,256.702 661.686,253.364C661.404,250.461 660.811,247.428 658.911,245.215C657.785,243.902 656.282,242.98 654.802,242.086C652.655,240.789 650.443,239.481 647.978,239.021C643.728,238.23 641.122,239.754 644.871,242.718C647.558,244.84 649.829,247.238 651.536,250.23Z" style="fill:rgb(41,41,73);fill-rule:nonzero;"/>
            <path d="M624.985,307.218C625.014,309.274 624.592,311.407 626.406,313.001C627.278,313.768 628.457,314.075 629.604,314.257C632.567,314.726 635.639,314.508 638.507,313.625C639.687,313.261 640.862,312.768 641.753,311.913C642.806,310.903 642.859,309.945 642.909,308.622C642.968,307.072 643.282,305.497 643.484,303.925C643.928,300.488 644.128,297.023 644.227,293.56C649.319,292.686 655.307,291.04 657.048,285.706C657.596,284.026 657.615,282.199 657.628,280.411C657.683,273.022 657.737,265.633 657.791,258.243C657.81,255.688 657.815,253.054 656.94,250.682C655.404,246.521 651.502,244.04 647.676,242.479C637.911,238.496 626.529,238.655 617.516,244.321C615.118,245.828 612.854,247.767 611.472,250.4C609.342,254.459 609.61,259.471 609.941,264.155C610.246,268.478 610.551,272.802 610.857,277.125C611.208,282.098 611.955,287.821 615.816,290.448C617.867,291.842 620.516,292.098 622.283,293.902C625.368,297.052 623.897,301.757 624.809,305.574C624.937,306.108 624.978,306.66 624.985,307.218Z" style="fill:rgb(234,205,176);fill-rule:nonzero;"/>
            <path d="M640.99,287.87C638.337,289.654 635.414,289.75 632.457,288.86C631.2,288.482 631.733,286.372 632.992,286.751C635.442,287.489 637.755,287.47 639.964,285.985C641.075,285.238 642.095,287.128 640.99,287.87ZM659.42,277.465C659.337,276.095 658.739,272.08 656.678,274.603C656.14,275.263 656.007,276.196 655.974,277.074C655.94,277.953 655.98,278.857 655.704,279.685C655.068,281.584 652.967,282.448 651.094,282.414C650.35,282.401 649.591,282.279 648.933,281.904C648.294,281.54 647.787,280.962 647.292,280.394C646.09,279.015 644.889,277.637 643.688,276.258C641.623,273.888 637.526,274.913 634.743,275.276C631.537,275.695 628.328,276.663 625.708,278.773C625.443,278.986 625.185,279.209 624.926,279.433C624.294,279.978 623.659,280.517 622.925,280.875C620.448,282.081 617.381,280.822 615.645,278.566C614.849,277.532 614.107,276.202 612.872,276.029C611.905,275.894 610.964,276.587 610.468,277.491C609.972,278.396 609.838,279.475 609.771,280.523C609.527,284.34 610.053,288.276 611.707,291.661C615.295,299.002 622.231,299.903 629.202,299.739C631.957,299.674 634.712,299.609 637.468,299.544C642.505,299.425 647.83,299.216 652.074,296.288C655.817,293.704 658.042,289.312 658.954,284.712C659.425,282.338 659.566,279.887 659.42,277.465Z" style="fill:rgb(41,41,73);fill-rule:nonzero;"/>
            <path d="M660.472,237.425C660.959,235.634 661.319,233.809 661.547,231.967C659.843,232.565 657.986,232.725 656.204,232.425C656.2,231.363 656.196,230.3 656.192,229.237C656.184,228.354 644.229,227.735 643.257,227.655C634.163,226.909 625.846,226.2 617.623,231.08C610.598,235.25 606.094,241.475 605.017,249.579C603.987,257.321 606.521,267.433 610.998,273.859C610.972,271.797 609.786,266.936 610.272,264.977C610.57,263.014 611.248,261.121 612.184,259.373C614.052,255.884 616.946,252.948 620.29,250.852C625.62,247.512 631.817,245.746 638.007,244.883C643.678,244.093 650.589,243.365 656.191,244.867C658.884,245.589 659.331,246.265 660.962,243.546C661.25,243.067 663.53,237.471 663.307,237.467C662.362,237.453 661.417,237.439 660.472,237.425Z" style="fill:rgb(41,41,73);fill-rule:nonzero;"/>
            <path d="M696.848,345.009C694.223,344.953 691.745,343.771 689.556,342.322C680.807,336.53 677.004,325.94 672.195,317.05C669.327,311.748 666.518,303.881 662.071,299.773C661.237,299.003 651.671,294.456 651.751,294.158L652.236,291.543L654.836,292.043L656.379,290.986L649.417,287.387L653.987,279.687L664.358,279.426C667.379,285.198 668.969,291.876 673.324,296.833C675.166,298.93 677.336,300.709 679.351,302.641C682.81,305.959 685.795,309.718 688.924,313.338C692.932,317.977 699.031,321.759 701.377,327.579C702.686,330.824 704.84,338.133 703.346,341.387C702.25,343.772 699.472,345.064 696.848,345.009Z" style="fill:rgb(234,205,176);fill-rule:nonzero;"/>
            <path d="M704.468,333.135C705.101,333.233 705.778,333.352 706.236,333.8C706.75,334.301 706.852,335.078 706.91,335.793C707.583,344.03 706.306,352.29 704.947,360.442C703.058,371.782 700.653,383.8 692.698,392.098C688.114,396.879 680.695,400.06 674.854,396.935C669.746,394.203 667.874,387.871 667.079,382.132C664.727,365.168 667.612,347.514 675.244,332.182C675.754,331.157 676.318,330.104 677.246,329.434C679.522,327.791 686.625,330.37 689.312,330.787C694.364,331.569 699.416,332.352 704.468,333.135Z" style="fill:rgb(71,78,187);fill-rule:nonzero;"/>
            <path d="M573.86,297.932C577.274,295.13 578.529,290.486 576.996,286.332C574.193,278.742 571.391,271.151 568.588,263.561C567.015,259.299 564.011,254.219 563.957,249.773C563.861,241.915 566.661,233.004 568.273,225.344C569.091,221.455 569.392,215.954 571.433,212.522C571.815,211.879 577.011,207.21 576.904,207.037L576.107,205.474L574.557,206.278L573.383,205.899L577.11,202.318L572.776,198.307L566.17,200.087C565.343,204.303 565.59,208.823 563.767,212.775C562.996,214.446 561.957,215.977 561.046,217.577C559.481,220.324 558.299,223.26 557,226.136C555.744,228.918 553.938,231.462 552.739,234.217C550.065,240.364 547.435,246.531 544.783,252.688L557.074,292.835C559.266,299.995 568.083,302.672 573.86,297.932Z" style="fill:rgb(234,205,176);fill-rule:nonzero;"/>
            <path d="M603.102,301.705C598.118,299.532 593.42,296.612 589.564,293.039C587.789,291.394 579.766,276.178 581.227,275.777C581.104,275.816 580.98,275.855 580.857,275.894L579.777,276.296L579.63,276.28C577.234,276.037 572.914,278.42 570.58,279.162C563.001,281.572 555.494,284.325 547.704,285.661C547.706,292.479 549.022,299.255 550.93,305.779C552.675,311.748 555.657,316.628 557.924,322.252C560.277,328.088 563.325,333.503 566.407,338.977C567.16,340.314 574.71,355.864 574.273,355.939C578.65,355.19 582.023,351.725 584.71,348.19C591.021,339.885 594.021,328.632 601.942,321.856C608.095,316.591 616.14,316.081 615.352,305.444C611.275,304.71 607.097,303.448 603.102,301.705Z" style="fill:rgb(71,78,187);fill-rule:nonzero;"/>
            <path d="M472.544,274.275C472.615,275.504 471.934,276.899 471.499,278.015C469.981,281.908 469.485,286.194 470.075,290.33C474.107,290.317 478.141,290.973 481.962,292.264C482.798,289.243 483.633,286.223 484.469,283.203C484.6,282.729 484.739,282.24 485.051,281.859C485.453,281.369 486.078,281.133 486.667,280.899C489.908,279.611 492.928,277.774 495.562,275.488C496.135,274.991 496.707,274.448 496.994,273.746C497.253,273.112 497.255,272.406 497.254,271.721C497.246,266.259 497.237,260.798 497.228,255.336C497.228,254.726 497.213,254.073 496.865,253.572C496.507,253.057 495.878,252.819 495.287,252.609C494.354,252.278 493.42,251.947 492.487,251.617C492.227,251.48 491.947,251.379 491.644,251.318C489.746,250.645 489.293,250.698 487.417,251.313C487.053,251.432 482.983,252.346 482.95,252.002C483.511,257.792 481.856,263.769 478.397,268.446C478.161,268.766 477.87,269.106 477.474,269.14C477.054,269.176 476.698,268.853 476.412,268.544C475.136,267.167 474.081,265.587 473.297,263.881C471.791,264.258 470.284,264.635 468.777,265.012C468.379,267.419 469.181,270.114 470.894,271.87C471.075,272.056 471.246,272.207 471.402,272.339C472.053,272.888 472.478,273.124 472.544,274.275Z" style="fill:rgb(234,205,176);fill-rule:nonzero;"/>
            <path d="M487.724,282.509L468.9,279.426L449.702,331.966L404.347,324.24L414.225,384.693L471.921,350.138L487.724,282.509Z" style="fill:rgb(53,58,133);fill-rule:nonzero;"/>
            <path d="M338.518,685.783C335.655,685.973 333.037,684.967 330.263,684.656C330.395,674.856 331.457,665.46 333.568,655.785C337.882,660.574 341.515,657.79 341.368,666.789C341.32,669.702 337.957,681.351 338.518,685.783Z" style="fill:rgb(229,209,189);fill-rule:nonzero;"/>
            <path d="M329.636,679.782C326.381,678.617 325.647,686.39 325.622,688.218C325.607,689.316 325.737,690.436 325.458,691.498C325.151,692.668 324.379,693.651 323.627,694.597C322.051,696.578 320.475,698.559 318.899,700.54C318.191,701.431 317.47,702.343 317.09,703.416C316.149,706.075 317.704,709.228 320.222,710.501C328.958,714.913 336.938,704.227 338.83,697.173C339.12,696.091 339.332,694.991 339.543,693.891C339.98,691.617 341.702,686.658 340.799,684.436C339.746,681.844 336.556,683.722 334.465,682.745C332.526,681.839 330.953,680.254 329.636,679.782Z" style="fill:rgb(41,41,73);fill-rule:nonzero;"/>
            <path d="M391.702,524.32C383.557,546.493 374.159,568.181 368.799,591.392C362.178,620.065 351.503,648.027 346.024,676.764C342.484,676.879 338.936,676.728 335.418,676.313C331.386,675.837 324.985,674.748 323.53,670.345C322.786,668.094 323.575,664.434 323.688,662.096C324.052,654.608 324.586,647.128 325.137,639.652C326.695,618.498 327.764,597.086 331.654,576.232C335.747,554.295 339.667,532.282 343.268,510.347C345.129,499.011 347.421,487.745 350.241,476.607C350.968,473.737 358.534,444.158 360.019,444.394C377.647,447.199 394.139,453.037 409.491,462.141C410.983,463.026 412.423,464.081 412.942,465.656C413.461,467.231 412.991,468.589 412.51,470.018C407.922,483.653 401.804,496.439 396.912,510.02C395.21,514.745 393.483,519.47 391.702,524.32Z" style="fill:rgb(93,102,211);fill-rule:nonzero;"/>
            <path d="M393.237,684.191C395.914,685.224 398.713,685.043 401.454,685.57C404.242,676.175 406.023,666.888 406.885,657.023C401.342,660.312 398.701,656.574 396.165,665.209C395.344,668.004 395.091,680.127 393.237,684.191Z" style="fill:rgb(229,209,189);fill-rule:nonzero;"/>
            <path d="M404.256,682.742C404.263,688.055 408.445,693.776 410.759,698.554C411.031,699.116 411.309,699.701 411.32,700.325C411.336,701.253 410.77,702.077 410.226,702.829C409.472,703.873 408.652,704.97 407.453,705.44C406.274,705.901 404.95,705.67 403.713,705.398C401.645,704.944 399.597,704.396 397.579,703.754C397.076,703.595 396.563,703.423 396.152,703.091C395.667,702.697 395.375,702.12 395.097,701.56C393.669,698.687 392.456,696.648 392.533,693.448C392.612,690.142 393.029,686.717 392.425,683.441C392.126,681.852 391.73,679.82 393.092,678.948C394.144,678.273 396.071,679.203 397.217,679.39C399.238,679.719 401.106,679.594 402.968,680.656C403.347,680.872 403.717,681.132 403.951,681.501C404.188,681.876 404.255,682.299 404.256,682.742Z" style="fill:rgb(41,41,73);fill-rule:nonzero;"/>
            <path d="M390.481,514.217C391.662,537.809 394.185,561.311 392.399,585.066C390.193,614.411 392.069,644.282 388.753,673.348C392.098,674.511 395.531,675.422 399.013,676.071C403.005,676.817 409.439,677.681 412.138,673.91C413.518,671.982 413.854,668.253 414.44,665.987C416.32,658.73 418.035,651.428 419.732,644.127C424.536,623.468 429.884,602.706 432.372,581.639C434.988,559.477 437.793,537.294 440.878,515.282C442.473,503.904 443.635,492.466 444.255,480.994C444.415,478.038 445.989,447.547 444.5,447.33C426.836,444.766 409.355,445.435 391.989,449.562C390.301,449.963 388.613,450.541 387.649,451.891C386.684,453.241 386.73,454.677 386.764,456.185C387.09,470.566 389.128,484.593 389.759,499.015C389.978,504.032 390.223,509.057 390.481,514.217Z" style="fill:rgb(93,102,211);fill-rule:nonzero;"/>
            <path d="M380.56,324.897C380.273,324.994 379.987,325.096 379.703,325.204C374.961,327.004 370.927,330.242 366.981,333.43C361.054,338.217 358.135,340.316 355.846,347.406C353.711,354.019 352.375,361.002 351.067,367.816C344.356,402.799 343.059,437.636 338.242,472.882C336.93,482.476 335.918,493.755 343.013,500.345C355.602,490.547 371.428,489.981 386.697,489.968C397.42,489.958 407.904,486.485 418.652,487.682C424.131,488.292 429.241,487.846 434.399,487.4C438.91,487.01 443.457,486.62 448.321,486.937C450.835,487.1 454.037,487.073 455.028,484.757C451.42,473.943 451.482,462.313 450.666,450.943C448.554,421.531 438.81,393.308 434.878,364.095C433.541,354.165 432.828,337.684 425.139,330.168C416.782,322 397.721,321.833 386.982,323.431C384.807,323.754 382.641,324.193 380.56,324.897Z" style="fill:rgb(53,58,133);fill-rule:nonzero;"/>
            <path d="M388.535,324.403C388.711,324.746 388.948,325.075 389.264,325.387C390.512,326.618 392.241,327.316 393.957,327.562C396.219,327.886 398.519,327.51 400.763,327.082C403.796,326.504 403.688,324.728 404.128,321.976C404.368,320.471 404.519,318.956 404.632,317.437C404.694,316.605 404.372,313.625 404.902,313.041C405.262,312.646 406.728,312.779 407.37,312.444C408.388,311.912 409.239,310.933 409.85,309.982C410.836,308.448 411.379,306.679 411.911,304.935C412.835,301.901 413.76,298.866 414.684,295.832C415.629,292.731 416.579,289.605 416.882,286.378C417.339,281.514 416.553,274.648 412.882,271.091C409.533,267.847 404.647,266.711 400.166,266.138C394.233,265.38 388.083,266.466 382.958,269.616C380.888,270.887 378.926,272.537 377.705,274.804C375.821,278.3 375.964,282.664 376.167,286.745C376.354,290.511 376.541,294.277 376.728,298.044C376.942,302.375 377.482,307.367 380.728,309.716C382.451,310.964 384.704,311.23 386.179,312.83C388.027,314.833 387.907,317.839 387.984,320.379C388.029,321.831 387.92,323.205 388.535,324.403Z" style="fill:rgb(234,205,176);fill-rule:nonzero;"/>
            <path d="M407.317,275.715C407.521,276.068 407.692,276.434 407.824,276.815C408.516,278.812 408.048,281.066 408.724,283.069C409.794,286.243 413.499,288.151 414.057,291.455C414.514,294.156 412.668,296.725 412.512,299.46C412.342,302.449 414.256,305.277 413.959,308.227C413.701,310.79 412.075,314.391 410.545,316.444C411.02,315.808 415.309,316.035 416.422,315.355C418.127,314.314 418.321,313.657 418.828,311.881C419.332,310.117 418.942,308.378 419.727,306.571C420.689,304.354 422.668,302.727 423.361,300.363C424.307,297.137 422.59,293.733 422.724,290.374C422.927,285.289 427.321,280.499 425.727,275.667C424.791,272.832 422.039,271.02 420.49,268.467C419.315,266.529 418.881,264.245 418.066,262.13C417.25,260.015 415.849,257.898 413.674,257.257C412.467,256.9 411.167,257.046 409.929,256.816C407.789,256.418 406.011,254.941 403.949,254.243C400.999,253.245 395.795,256.228 394.073,258.729C392.364,261.21 393.227,263.32 394.974,265.514C397.883,269.168 404.915,271.559 407.317,275.715Z" style="fill:rgb(41,41,73);fill-rule:nonzero;"/>
            <path d="M367.59,260.696C365.822,261.993 363.64,262.93 362.025,264.446C358.878,267.4 358.279,272.126 358.166,276.442C358.064,280.284 356.384,283.699 356.8,287.704C357.08,290.393 358.223,293.113 360.412,294.701C363.137,296.679 367.417,297.003 368.632,300.144C369.953,303.555 366.419,307.851 368.564,310.814C369.748,312.449 372.067,312.688 373.76,313.787C375.649,315.013 376.62,317.201 377.773,319.135C378.927,321.069 380.66,323.006 382.911,323.054C383.002,319.63 383.103,316.917 381.641,313.786C380.789,311.962 378.28,308.596 380.207,306.621C381.422,304.979 384.291,304.445 384.365,302.404C384.399,301.445 383.73,300.629 383.203,299.828C381.16,296.728 380.952,292.598 382.337,289.153C383.722,285.709 386.576,282.957 389.917,281.339C393.833,279.443 393.202,278.486 394.34,274.737C395.387,271.287 397.345,270.478 400.451,269.22C403.24,268.091 404.136,267.388 405.166,264.778C405.918,262.868 406.846,260.58 405.753,258.449C404.885,256.755 403.323,255.543 401.809,254.389C398.647,251.978 395.094,249.444 391.128,249.729C388.926,249.888 386.854,250.923 384.649,251.048C383.178,251.131 381.716,250.806 380.244,250.757C377.734,250.673 375.087,251.436 373.055,252.93C371.005,254.437 371.063,256.015 369.924,258.154C369.367,259.201 368.538,260.001 367.59,260.696Z" style="fill:rgb(41,41,73);fill-rule:nonzero;"/>
            <path d="M376.47,246.618C376.855,244.233 376.608,241.124 374.33,240.319C373.082,239.877 371.683,240.361 370.385,240.097C367.621,239.535 366.679,236.186 365.229,233.766C365.012,233.404 364.754,233.037 364.368,232.865C363.816,232.619 363.184,232.837 362.584,232.91C359.833,233.246 357.742,230.531 355.15,229.546C351.943,228.328 347.908,230.333 346.941,233.625C346.544,234.978 346.614,236.431 346.241,237.791C344.731,243.299 336.665,245.643 336.46,251.351C336.323,255.208 340.098,258.903 338.63,262.473C337.692,264.756 334.755,266.312 335.091,268.757C335.307,270.33 336.982,271.401 338.57,271.379C340.157,271.357 341.616,270.486 342.812,269.441C344.71,267.783 346.141,265.656 347.949,263.901C349.758,262.145 352.169,260.722 354.67,261.034C357.092,261.336 359.284,263.222 361.691,262.819C363.617,262.496 365.046,260.778 366.938,260.294C368.708,259.841 370.548,260.536 372.371,260.646C374.195,260.756 376.435,259.807 376.483,257.981C376.495,257.539 376.371,257.081 376.51,256.661C376.899,255.484 378.91,255.551 379.292,254.372C378.34,252.904 376.998,253.43 376.315,251.513C375.787,250.031 376.228,248.117 376.47,246.618Z" style="fill:rgb(41,41,73);fill-rule:nonzero;"/>
            <rect x="366.287" y="356.234" width="375.388" height="260.626" style="fill:rgb(140,171,239);fill-rule:nonzero;"/>
            <path d="M375.038,422.411L375.038,364.52L464.638,364.52C425.969,364.52 393.022,386.282 380.467,416.778C378.742,418.568 376.932,420.445 375.038,422.411Z" style="fill:rgb(156,180,238);fill-rule:nonzero;"/>
            <path d="M741.675,616.86L530.372,616.86C722.155,616.86 741.675,483.439 741.675,483.439L741.675,616.86Z" style="fill:rgb(124,147,218);fill-rule:nonzero;"/>
            <path d="M703.148,174.66C703.132,174.565 703.12,174.469 703.102,174.374L703.266,174.52L703.148,174.66Z" style="fill:rgb(193,193,193);fill-rule:nonzero;"/>
            <path d="M179.07,700.559L178.469,709.005L194.759,718.652L203.805,710.808L195.961,701.762L179.671,692.114L179.07,700.559Z" style="fill:rgb(41,41,73);fill-rule:nonzero;"/>
            <path d="M170.683,443.738L168.857,469.387L195.145,582.965L178.38,697.775L194.894,702.318L243.688,564.938L245.334,523.341L235.569,437.57L170.683,443.738Z" style="fill:rgb(41,41,73);fill-rule:nonzero;"/>
            <path d="M276.719,458.876L287.155,566.445L278.714,707.009L263.112,708.341L242.324,581.08L210.04,454.801L276.719,458.876Z" style="fill:rgb(41,41,73);fill-rule:nonzero;"/>
            <path d="M263.043,706.476L263.763,714.912L281.355,721.908L289.071,712.752L279.916,705.036L263.043,706.476Z" style="fill:rgb(41,41,73);fill-rule:nonzero;"/>
            <path d="M155.68,457.163C154.447,466.948 153.383,480.197 157.1,481.071C157.797,481.235 158.51,480.957 159.162,480.684C166.046,477.803 171.175,473.275 177.954,470.505C185.059,467.602 192.957,466.487 200.647,465.931C212.153,465.04 223.828,464.959 235.353,465.952C244.414,466.733 253.421,468.447 262.349,470.131C269.777,471.533 276.518,474.477 284.206,474.741C292.086,475.01 300.041,473.414 307.155,469.998C307.416,469.873 307.692,469.729 307.822,469.47C307.964,469.188 307.89,468.85 307.813,468.543C306.669,463.998 305.971,459.543 303.445,455.615C300.625,451.229 298.856,445.845 296.993,440.992C293.108,430.878 289.556,420.332 287.207,409.743C283.496,395.296 279.012,381.134 275.477,366.659C273.027,356.626 270.898,346.452 267.164,336.794C264.239,329.231 258.786,318.061 251.235,314.081C248.68,312.734 245.748,312.332 242.884,311.951C234.196,310.797 225.508,309.642 216.82,308.487C213.653,308.066 210.356,307.656 207.325,308.664C202.781,310.175 199.855,314.478 197.27,318.507C185.675,336.575 177.41,356.494 171.775,377.336C168.833,388.219 166.023,399.137 163.577,410.135C160.847,422.408 158.563,434.784 157.056,447.261C156.889,448.647 156.265,452.514 155.68,457.163Z" style="fill:rgb(214,112,134);fill-rule:nonzero;"/>
            <path d="M224.737,358.033C224.553,363.005 223.336,367.873 222.125,372.7C214.749,402.1 207.373,431.501 199.997,460.901C223.415,463.126 246.833,465.351 270.252,467.576C270.565,456.306 270.879,445.036 271.192,433.767C271.394,426.542 271.593,419.291 270.811,412.099C269.547,400.499 265.759,389.31 261.995,378.226C255.039,357.746 248.083,337.265 241.127,316.785C240.756,315.689 240.362,314.557 239.554,313.713C238.587,312.702 237.171,312.249 235.811,311.865C229.243,310.008 221.793,308.242 214.97,308.53C212.654,314.474 217.749,325.755 219.455,331.685C221.938,340.315 225.075,348.95 224.737,358.033Z" style="fill:rgb(247,247,247);fill-rule:nonzero;"/>
            <path d="M233.475,315.914C228.646,315.2 223.819,314.486 218.991,313.772C219.131,309.883 219.582,306.006 220.338,302.188C220.246,302.652 212.91,297.755 212.32,296.755C210.621,293.878 210.856,289.367 210.364,286.103C209.315,279.149 208.461,271.354 212.663,265.716C217.015,259.877 225.254,258.579 232.515,259.142C241.63,259.848 251.506,263.552 255.372,271.838C258.863,279.322 252.457,289.161 250.162,296.454C249.031,300.05 247.451,304.124 243.877,305.32C241.979,305.956 239.79,305.638 238.051,306.63C234.986,308.379 235.174,312.821 233.475,315.914Z" style="fill:rgb(234,205,176);fill-rule:nonzero;"/>
            <path d="M271.095,259.853C272.157,254.884 273.219,249.915 274.282,244.946C274.676,243.1 275.071,241.184 274.652,239.344C273.955,236.284 271.145,234.125 268.216,232.997C265.288,231.869 262.118,231.509 259.139,230.521C255.959,229.467 252.946,227.689 249.602,227.49C243.243,227.112 237.788,232.48 231.427,232.831C222.62,233.316 215.077,228.521 208.787,238.173C207.632,239.947 207.142,242.076 206.094,243.915C204.741,246.291 202.544,248.048 200.755,250.116C192.887,259.207 193.558,274.314 200.999,283.483C204.606,287.929 205.874,291.743 211.287,293.611C209.282,288.184 214.771,267.966 221.964,266.38C223.87,265.961 229.167,268.788 231.177,269.298C235.627,270.427 239.945,271.608 244.014,273.81C250.052,277.078 256.709,279.641 263.485,280.86C264.352,281.016 265.325,281.15 266.044,280.642C266.721,280.164 266.943,279.277 267.116,278.467C268.442,272.262 269.769,266.058 271.095,259.853Z" style="fill:rgb(41,41,73);fill-rule:nonzero;"/>
            <path d="M524.797,152.374C521.367,129.45 537.043,108.085 559.868,104.41C559.729,103.694 559.597,102.976 559.488,102.248C555.301,74.25 574.604,48.158 602.602,43.97C617.836,41.692 632.497,46.379 643.38,55.626C650.509,44.546 662.183,36.469 676.236,34.368C701.249,30.627 724.61,47.159 729.661,71.628C730.708,71.389 731.766,71.175 732.845,71.014C755.929,67.562 777.44,83.476 780.893,106.559C783.669,125.128 773.909,142.672 757.971,150.624C760.789,155.192 762.751,160.39 763.595,166.034C766.936,188.373 751.536,209.19 729.197,212.531C727.484,212.787 725.781,212.928 724.093,212.968L730.564,256.234C730.817,258.114 728.521,259.224 727.697,258.37L694.52,223.997C688.758,229.199 681.462,232.827 673.208,234.062C658.241,236.3 643.964,230.116 635.163,219.078C628.872,224.462 621.048,228.21 612.254,229.526C587.309,233.256 564.063,216.058 560.332,191.113C560.169,190.028 560.061,188.948 559.977,187.871C542.242,185.065 527.593,171.074 524.797,152.374Z" style="fill:rgb(93,102,211);fill-rule:nonzero;"/>
            <path d="M605.133,144.891C611.305,143.968 612.75,153.559 606.567,154.484C600.395,155.407 598.95,145.816 605.133,144.891Z" style="fill:white;fill-rule:nonzero;"/>
            <path d="M648.299,138.435C654.472,137.512 655.917,147.103 649.734,148.028C643.562,148.951 642.117,139.36 648.299,138.435Z" style="fill:white;fill-rule:nonzero;"/>
            <path d="M702.258,130.365C708.431,129.442 709.875,139.033 703.693,139.958C697.521,140.881 696.076,131.29 702.258,130.365Z" style="fill:white;fill-rule:nonzero;"/>
            <path d="M710.31,408.611C705.039,412.819 699.768,417.027 694.498,421.235C697.18,425.345 699.809,429.49 702.352,433.694C703.625,435.8 700.196,437.46 698.935,435.374C696.535,431.404 694.053,427.491 691.523,423.61C686.39,427.708 681.256,431.806 676.124,435.904C674.209,437.432 671.72,434.543 673.641,433.009C678.904,428.806 684.168,424.605 689.431,420.402C686.34,415.753 683.158,411.165 679.877,406.641C678.443,404.665 681.314,402.155 682.757,404.146C686.068,408.711 689.278,413.342 692.4,418.032C697.542,413.927 702.685,409.821 707.827,405.716C709.741,404.188 712.231,407.078 710.31,408.611Z" style="fill:white;fill-rule:nonzero;"/>
            <path d="M438.927,492.54C439.176,492.645 439.452,492.687 439.737,492.668C440.125,492.732 440.511,492.789 440.899,492.878C464.321,498.205 456.28,537.192 433.003,533.499C434.005,532.211 433.177,529.838 431.271,530.416C417.388,534.629 414.87,513.726 418.267,505.063C421.597,496.573 430.057,491.45 438.927,492.54ZM691.405,464.033C690.25,456.95 688.397,450.134 685.87,443.426C685.312,441.944 683.429,442.212 682.596,443.182C677.53,449.082 673.505,455.493 670.3,462.58C669.468,464.42 671.958,465.778 673.333,464.671C675.131,463.222 676.768,461.674 678.284,460.039C669.527,488.113 661.05,522.626 629.365,529.117C601.024,534.923 585.045,503.277 572.751,483.155C562.205,465.894 551.011,447.196 533.383,436.359C514.551,424.784 491.367,425.581 472.234,436.035C452.938,446.58 437.493,465.934 437.918,488.595C425.879,487.897 415.498,496.655 413.308,508.701C411.463,518.849 416.611,535.281 428.412,534.792C428.281,535.59 428.619,536.409 429.639,536.672C442.99,540.134 455.702,531.615 458.386,518.107C460.834,505.787 454.336,492.06 441.711,489.157C440.415,458.331 472.141,432.333 501.281,431.611C549.438,430.418 564.562,485.115 590.023,515.704C597.631,524.844 607.321,532.472 619.529,533.511C630.92,534.481 641.887,529.792 650.59,522.653C671.757,505.292 676.171,476.943 684.815,452.269C686.015,456.365 686.979,460.513 687.673,464.774C688.069,467.203 691.8,466.459 691.405,464.033Z" style="fill:white;fill-rule:nonzero;"/>
            <path d="M419.402,519.752C419.181,518.576 419.091,517.365 419.067,516.17C418.791,502.298 425.939,493.064 440.208,496.413C447.554,498.137 451.821,507.39 451.787,514.307C451.763,518.953 450.36,524.065 446.436,526.523C440.051,530.521 424.961,530.985 420.692,523.435C420.047,522.294 419.646,521.044 419.402,519.752Z" style="fill:rgb(214,112,134);fill-rule:nonzero;"/>
            <path d="M528.088,343.185L427.924,201.213L417.883,208.297L518.047,350.269L528.088,343.185Z" style="fill:rgb(214,112,134);fill-rule:nonzero;"/>
            <path d="M548.171,329.016L448.007,187.044L437.965,194.128L538.129,336.1L548.171,329.016Z" style="fill:rgb(214,112,134);fill-rule:nonzero;"/>
            <path d="M538.129,336.1L437.965,194.128L427.924,201.213L528.088,343.185L538.129,336.1Z" style="fill:white;fill-rule:nonzero;"/>
            <path d="M415.972,205.589L417.883,208.297L448.007,187.044L446.096,184.336L415.972,205.589Z" style="fill:rgb(186,188,190);fill-rule:nonzero;"/>
            <path d="M414.061,202.881L415.972,205.589L446.096,184.336L444.185,181.627L414.061,202.881Z" style="fill:rgb(247,247,247);fill-rule:nonzero;"/>
            <path d="M412.15,200.172L414.061,202.881L444.185,181.627L442.274,178.919L412.15,200.172Z" style="fill:rgb(186,188,190);fill-rule:nonzero;"/>
            <path d="M398.027,180.153L410.24,197.464L440.364,176.211L428.151,158.9C423.308,152.036 413.818,150.398 406.954,155.24L401.687,158.956C394.823,163.799 393.184,173.289 398.027,180.153Z" style="fill:rgb(232,232,232);fill-rule:nonzero;"/>
            <path d="M410.24,197.464L412.15,200.172L442.274,178.919L440.364,176.211L410.24,197.464Z" style="fill:rgb(247,247,247);fill-rule:nonzero;"/>
            <path d="M548.17,329.016L518.047,350.269L559.3,376.766L548.17,329.016Z" style="fill:rgb(238,213,213);fill-rule:nonzero;"/>
            <path d="M556.699,365.605L549.658,370.573L559.3,376.766L556.699,365.605Z" style="fill:rgb(41,41,73);fill-rule:nonzero;"/>
            <path d="M332.747,570.35C317.342,569.777 301.407,569.154 287.027,568.581L287.155,566.445L282.495,518.407C300.394,499.846 321.05,478.42 340.008,458.753C339.468,463.455 338.886,468.167 338.242,472.882C336.93,482.476 335.918,493.755 343.013,500.345C343.78,499.748 344.56,499.185 345.35,498.655C344.602,502.542 343.909,506.441 343.268,510.347C339.989,530.322 336.445,550.362 332.747,570.35Z" style="fill:rgb(206,208,214);fill-rule:nonzero;"/>
            <path d="M366.287,571.538C356.043,571.2 344.55,570.789 332.747,570.35C336.445,550.362 339.989,530.322 343.268,510.347C343.909,506.441 344.602,502.542 345.35,498.655C351.75,494.359 358.879,492.183 366.287,491.083L366.287,571.538Z" style="fill:rgb(84,94,181);fill-rule:nonzero;"/>
            <path d="M343.013,500.345C335.918,493.755 336.93,482.476 338.242,472.882C338.886,468.167 339.468,463.455 340.008,458.753C349.358,449.053 358.296,439.78 366.287,431.49L366.287,491.083C358.879,492.183 351.75,494.359 345.35,498.655C344.56,499.185 343.78,499.748 343.013,500.345Z" style="fill:rgb(55,61,122);fill-rule:nonzero;"/>
            <path d="M401.832,572.428C395.585,572.428 382.497,572.074 366.287,571.538L366.287,431.49C369.354,428.309 372.28,425.272 375.038,422.411L375.038,444.134C375.038,434.524 376.955,425.308 380.467,416.778C392.472,404.322 400.127,396.379 400.127,396.379C406.646,402.81 407.879,570.936 405.789,572.262C405.61,572.376 404.223,572.428 401.832,572.428Z" style="fill:rgb(120,145,202);fill-rule:nonzero;"/>
            <path d="M375.038,444.134L375.038,422.411C376.932,420.445 378.742,418.568 380.467,416.778C376.955,425.308 375.038,434.524 375.038,444.134Z" style="fill:rgb(132,152,201);fill-rule:nonzero;"/>
            <path d="M238.622,566.6C236.971,566.531 236.082,566.493 236.082,566.493C236.504,566.059 237.174,565.368 238.071,564.442L238.622,566.6Z" style="fill:rgb(46,48,77);fill-rule:nonzero;"/>
            <path d="M287.027,568.581C264.179,567.669 245.257,566.879 238.622,566.6L238.071,564.442C244.31,557.996 261.509,540.169 282.495,518.407L287.155,566.445L287.027,568.581Z" style="fill:rgb(46,48,77);fill-rule:nonzero;"/>
            <path d="M399.936,566.493L227.894,566.493C231.859,540.432 234.701,509.651 234.378,475.119C234.122,447.79 234.241,424.178 230.259,398.006C287.606,398.006 342.588,394.45 399.936,394.45C402.375,418.478 404.002,444.688 404.256,472.804C404.562,506.857 402.802,538.246 399.936,566.493Z" style="fill:rgb(71,78,187);fill-rule:nonzero;"/>
            <path d="M289.343,500.048C281.14,507.479 271.477,513.039 261.056,516.675C259.475,491.316 264.344,465.946 261.717,440.601C271.52,436.407 282.554,433.192 292.428,438.364C302.891,443.845 306.477,458.869 306.391,469.767C306.294,482.138 298.095,492.119 289.343,500.048ZM308.901,464.852C307.677,453.56 303.654,440.323 292.433,435.299C279.597,429.552 265.838,435.534 254.077,441.019C252.459,441.774 253.867,444.169 255.479,443.417C256.64,442.875 257.832,442.324 259.045,441.776C261.446,467.139 256.579,492.525 258.372,517.901C258.01,518.45 258.104,519.221 258.512,519.693C258.558,520.255 258.588,520.815 258.642,521.375C258.811,523.138 261.59,523.156 261.419,521.375C261.361,520.768 261.328,520.16 261.278,519.552C283.992,511.77 311.798,491.587 308.901,464.852Z" style="fill:white;fill-rule:nonzero;"/>
            <path d="M341.969,504.478C339.98,513.594 332.639,522.117 322.706,522.105C310.409,522.092 307.829,509.07 309.927,499.271C310.876,494.835 312.974,490.642 316.442,487.646C318.496,485.872 322.013,483.852 325.313,483.448C325.566,484.005 326.138,484.427 326.903,484.265C327.732,484.088 328.526,483.996 329.292,483.967C329.6,484.113 329.901,484.281 330.185,484.489C330.876,484.996 331.552,484.703 331.914,484.149C340.204,485.721 343.738,496.371 341.969,504.478ZM330.021,481.234C325.921,479.598 320.369,481.593 316.946,483.806C311.807,487.129 308.51,492.608 307.249,498.532C304.896,509.585 307.89,523.781 321.213,524.824C334.049,525.829 343.761,514.268 345.12,502.344C346.258,492.355 340.225,481.548 330.021,481.234Z" style="fill:white;fill-rule:nonzero;"/>
            <path d="M367.661,512.901L367.499,512.682C365.901,511.028 363.743,512.082 362.851,513.777C362.015,514.87 361.33,516.073 361.521,517.516C361.721,519.027 362.893,520.341 364.497,520.315C366.196,520.289 367.458,518.912 367.907,517.371C368.555,516.735 368.929,515.82 368.734,514.712C368.605,513.983 368.207,513.341 367.661,512.901Z" style="fill:white;fill-rule:nonzero;"/>
            <path d="M367.962,459.941C368.161,460.091 368.398,460.17 368.646,460.184C368.35,461.677 368.034,463.08 367.892,464.168C367.914,462.759 367.935,461.35 367.962,459.941ZM368.182,450.656C368.301,450.668 368.42,450.68 368.538,450.694C368.451,450.864 368.382,451.048 368.362,451.259C368.313,451.765 368.228,452.248 368.133,452.724C368.151,452.035 368.163,451.346 368.182,450.656ZM374.023,450.202C372.728,447.902 369.145,447.926 366.828,447.804C366.063,447.764 365.46,448.474 365.439,449.193C364.965,465.53 364.842,481.873 365.07,498.216C365.084,499.222 365.972,499.663 366.741,499.536C366.906,501.238 369.46,501.238 369.507,499.466C369.829,487.346 370.832,475.258 372.657,463.269C373.062,460.612 373.51,457.962 373.981,455.316C374.269,453.7 374.896,451.753 374.023,450.202Z" style="fill:white;fill-rule:nonzero;"/>
            <path d="M269.101,447.497C268.993,447.194 268.88,446.882 268.697,446.63C266.99,444.287 264.698,444.087 262.422,442.307C261.407,441.513 261.704,438.212 259.161,439.09C258.222,439.413 256.032,440.532 254.037,441.242C251.128,442.276 246.815,441.829 243.457,440.842C238.942,439.516 234.195,438.008 229.964,436.038C221.075,431.9 211.636,426.315 203.686,420.554C212.614,407.002 213.111,388.361 204.918,374.351C204.062,372.887 203.073,371.426 201.625,370.542C200.401,369.795 198.944,369.523 197.513,369.43C182.378,368.447 182.094,382.829 181.38,394.409C180.935,401.636 180.941,409.001 181.566,416.219C182.442,426.328 188.973,432.134 197.611,436.946C206.767,442.045 216.132,447.047 226.203,450.096C231.097,451.578 235.918,452.033 240.915,452.856C245.853,453.67 245.214,455.823 249.354,457.645C251.664,458.661 253.827,460.133 256.295,460.705C260.72,461.729 264.278,458.672 267.65,456.307C268.49,455.718 269.059,455.322 269.497,454.467C270.208,453.075 269.938,451.583 269.722,450.092C269.595,449.21 269.396,448.333 269.101,447.497Z" style="fill:rgb(229,209,189);fill-rule:nonzero;"/>
            <path d="M173.708,400.007C173.937,405.597 174.402,411.072 175.056,416.328C176.031,424.164 177.328,432.664 183.057,438.098C185.265,440.193 187.98,441.661 190.668,443.09C203.41,449.863 216.321,456.316 229.386,462.441C234.148,456.545 238.01,449.923 240.795,442.874C241.577,440.896 242.28,438.7 241.609,436.682C240.613,433.684 237.143,432.425 234.104,431.561C229.154,430.152 224.204,428.744 219.254,427.335C217.648,426.878 215.89,426.308 215.04,424.871C214.485,423.932 214.429,422.79 214.405,421.7C213.946,401.089 217.576,383.866 222.357,363.975C224.462,355.206 226.578,346.105 224.829,337.258C221.093,318.369 196.226,313.451 186.746,330.971C175.937,350.947 172.742,376.504 173.708,400.007Z" style="fill:rgb(214,112,134);fill-rule:nonzero;"/>
            <path d="M712.733,411.214C713.605,410.227 713.881,409.858 715.297,409.22C716.714,408.583 718.399,408.364 720.085,407.253C721.309,406.447 721,403.505 723.832,404.622C724.878,405.034 726.704,406.346 728.702,407.107C731.615,408.219 735.766,408.124 739.276,407.353C753.065,404.322 766.924,401.549 781.042,400.128C781.847,400.048 782.646,399.992 783.323,399.516C784.535,398.662 784.696,397.271 785.005,395.906C786.439,389.578 788.057,383.378 790.677,377.404C793.015,372.075 795.778,366.999 800.278,363.23C804.777,359.461 810.716,357.572 816.247,359.34C820.389,360.663 823.827,363.551 824.687,367.869C826.821,378.577 816.984,386.587 811.087,394.094C805.508,401.196 800.738,407.22 794.896,413.732C794.175,414.536 793.488,415.287 792.478,415.744C791.467,416.202 790.296,416.228 789.198,416.214C775.056,416.027 761.275,415.483 747.429,418.354C743.624,419.143 740.151,418.338 736.57,419.554C734.284,420.33 733.09,422.596 730.989,423.681C728.887,424.766 726.404,425.868 724.05,426.026C719.408,426.34 716.554,422.929 713.391,420.122C710.865,417.879 708.948,417.232 705.66,418.107C705.274,418.21 704.856,418.459 704.416,418.361C703.14,418.078 702.597,416.583 703.259,415.455C703.92,414.327 705.093,413.992 706.308,413.578C707.523,413.164 708.895,412.82 710.212,412.745C710.776,412.714 711.407,412.737 711.817,412.337C712.227,411.938 712.365,411.632 712.733,411.214Z" style="fill:rgb(229,209,189);fill-rule:nonzero;"/>
            <path d="M810.926,390.191C802.96,387.177 794.609,385.334 786.846,381.685C789.662,374.925 797.806,347.422 799.207,344.129C804.558,331.561 805.593,326.146 812.967,319.51C828.713,305.338 847.411,314.736 846.642,334.85C845.809,356.685 834.109,375.428 821.436,392.316C821.16,392.683 820.785,392.97 820.306,393.149C819.826,393.329 819.09,393.147 818.511,392.919C816.034,391.942 813.441,391.143 810.926,390.191Z" style="fill:rgb(170,180,181);fill-rule:nonzero;"/>
            <path d="M815.925,690.595C813.138,690.689 810.46,690.064 807.723,689.811C806.311,662.676 808.875,634.238 809.987,606.974C816.958,607.346 823.929,607.718 830.899,608.09C826.045,622.661 822.58,637.693 820.553,652.917C820.232,655.329 816.322,690.582 815.925,690.595Z" style="fill:rgb(229,209,189);fill-rule:nonzero;"/>
            <path d="M806.879,684.548C805.159,684.241 804.144,685.007 802.997,686.055C802.331,686.664 801.877,687.525 801.074,687.961C800.271,688.397 799.482,688.482 798.527,688.578C793.499,689.083 781.914,688.873 788.085,697.284C793.69,704.922 808.576,701.881 817.175,699.806C817.741,699.67 818.338,699.585 818.752,699.147C819.167,698.71 819.446,698.086 819.623,697.44C820.604,693.846 821.945,689.359 817.526,687.853C815.642,687.211 813.905,688.459 811.91,687.767C810.275,687.2 808.6,684.854 806.879,684.548Z" style="fill:rgb(41,41,73);fill-rule:nonzero;"/>
            <path d="M794.357,623.34C808.573,623.064 822.788,622.789 837.004,622.513C848.503,567.77 858.63,512.739 867.372,457.488C868.05,453.205 868.71,448.75 867.475,444.592C865.141,436.729 856.719,432.242 848.656,430.735C836.125,428.394 813.102,431.654 806.677,444.682C799.886,458.451 801.026,483.041 799.379,498.255C794.885,539.773 793.202,581.595 794.357,623.34Z" style="fill:rgb(41,41,73);fill-rule:nonzero;"/>
            <path d="M897.22,690.595C900.007,690.689 902.685,690.064 905.422,689.811C906.835,662.676 904.271,634.238 903.158,606.974C896.188,607.346 889.217,607.718 882.246,608.09C887.1,622.661 890.566,637.693 892.592,652.917C892.914,655.329 896.823,690.582 897.22,690.595Z" style="fill:rgb(229,209,189);fill-rule:nonzero;"/>
            <path d="M906.266,684.548C907.987,684.241 909.001,685.007 910.149,686.055C910.815,686.664 911.268,687.525 912.071,687.961C912.875,688.397 913.663,688.482 914.618,688.578C919.647,689.083 931.232,688.873 925.06,697.284C919.455,704.922 904.569,701.881 895.97,699.806C895.405,699.67 894.808,699.585 894.393,699.147C893.979,698.71 893.699,698.086 893.523,697.44C892.542,693.846 891.2,689.359 895.619,687.853C897.504,687.211 899.24,688.459 901.235,687.767C902.87,687.2 904.545,684.854 906.266,684.548Z" style="fill:rgb(41,41,73);fill-rule:nonzero;"/>
            <path d="M918.788,623.34C904.572,623.064 890.357,622.789 876.142,622.513C864.642,567.77 854.515,512.739 845.773,457.488C845.096,453.205 844.436,448.75 845.67,444.592C848.005,436.729 856.427,432.242 864.49,430.735C877.021,428.394 900.043,431.654 906.468,444.682C913.26,458.451 912.12,483.041 913.767,498.255C918.261,539.773 919.944,581.595 918.788,623.34Z" style="fill:rgb(41,41,73);fill-rule:nonzero;"/>
            <path d="M882.337,323.159C893.734,334.005 902.27,347.939 907.413,362.372C916.518,387.93 916.693,415.22 916.777,441.961C916.805,450.861 916.832,459.761 916.86,468.661C916.889,477.418 916.114,479.303 906.597,478.148C888.962,476.009 870.629,472.374 854.651,464.537C847.047,460.808 839.941,456.098 831.969,453.161C820.373,448.89 808.483,450.824 797.011,448.045C801.992,432.989 805.556,420.165 808.112,404.653C810.744,388.68 813.137,371.257 816.995,355.499C819.309,346.043 823.613,337.209 827.992,328.515C830.935,322.67 834.051,316.689 839.049,312.464C854.103,299.74 870.983,312.353 882.337,323.159Z" style="fill:rgb(71,78,187);fill-rule:nonzero;"/>
            <path d="M841.215,285.664C843.367,290.368 846.884,294.289 849.756,298.593C852.55,302.779 853.555,306.567 854.296,311.422C854.831,314.928 856.084,317.669 860.308,318.269C868.273,319.401 865.995,312.819 867.805,308.032C869.873,302.559 874.283,298.235 877.365,293.35C886.271,279.235 883.729,251.337 865.218,245.383C844.979,238.874 834.683,271.387 841.215,285.664Z" style="fill:rgb(229,209,189);fill-rule:nonzero;"/>
            <path d="M873.479,272.005C875.776,272.098 878.304,272.279 880.008,273.823C881.712,275.366 881.527,278.732 879.277,279.096C877.238,279.425 874.597,277.298 873.352,278.851C872.624,279.759 873.263,281.087 873.815,282.149C875.935,286.223 876.57,290.947 875.581,295.287C876.419,296.065 877.728,295.258 878.465,294.448C882.125,290.429 884.984,285.734 886.856,280.668C887.591,281.894 888.669,282.938 889.94,283.654C889.178,281.75 889.661,279.666 890.131,277.723C891.861,270.583 893.038,262.218 888.052,256.383C885.384,253.262 881.327,251.465 877.247,250.711C873.167,249.956 869.009,250.139 864.897,250.325C863.138,250.405 860.971,250.784 860.548,252.412C864.406,253.959 868.398,256.972 870.33,260.626C870.923,261.747 873.244,271.995 873.479,272.005Z" style="fill:rgb(41,41,73);fill-rule:nonzero;"/>
            <path d="M865.325,254.85C865.466,254.952 865.604,255.055 865.739,255.158C867.488,256.489 869.128,258.108 871.245,258.698C874.295,259.549 877.572,258.079 880.575,259.118C883.933,260.28 886.139,264.294 888.59,266.67C892.608,270.566 897.591,273.43 902.939,275.058C905.671,275.89 908.501,276.4 911.352,276.562C912.645,276.635 914.374,276.88 915.634,276.54C917.326,276.085 917.268,275.316 915.465,274.739C909.814,272.928 908.043,264.991 908.47,259.73C908.807,255.577 910.24,251.236 908.656,247.383C907.446,244.439 904.848,242.919 902.336,241.235C899.566,239.378 896.563,239.878 893.418,238.985C890.137,238.053 887.464,235.469 884.117,234.81C880.583,234.114 877.05,235.681 873.513,236.368C870.591,236.936 867.553,236.898 864.646,236.259C862.042,235.686 859.5,234.631 856.833,234.656C852.9,234.693 849.283,237.147 846.987,240.341C843.741,244.86 841.642,252.591 842.786,258.54C842.608,257.617 845.715,254.272 846.354,253.553C847.703,252.034 849.332,250.611 851.391,250.366C856.052,249.81 861.578,252.129 865.325,254.85Z" style="fill:rgb(41,41,73);fill-rule:nonzero;"/>
            <path d="M770,529.818L768.923,541.645C768.574,545.486 771.072,548.853 774.502,549.166L802.25,551.69C805.681,552.002 808.746,549.141 809.096,545.3L810.171,533.474L770,529.818Z" style="fill:rgb(177,177,178);fill-rule:nonzero;"/>
            <path d="M871.818,378.975C875.603,337.369 848.548,300.9 811.389,297.518C774.229,294.137 741.036,325.125 737.251,366.731C735.905,381.516 738.458,395.65 743.971,407.883L743.968,407.883C759.495,444.712 761.144,474.526 761.144,474.526L795.002,477.607L828.86,480.688C828.86,480.688 835.864,451.661 857.783,418.239L857.78,418.239C865.411,407.201 870.472,393.76 871.818,378.975Z" style="fill:rgb(214,112,134);fill-rule:nonzero;"/>
            <path d="M760.365,474.455L755.794,524.694C755.603,526.793 756.932,528.629 758.762,528.796L821.409,534.496C823.239,534.663 824.877,533.096 825.068,530.997L829.639,480.759L760.365,474.455Z" style="fill:rgb(221,221,221);fill-rule:nonzero;"/>
            <path d="M800.628,478.119L795.002,477.607L761.144,474.526C761.144,474.526 761.142,474.483 761.138,474.413C761.142,474.488 761.144,474.526 761.144,474.526L795.002,477.607L800.628,478.119Z" style="fill:rgb(216,214,231);fill-rule:nonzero;"/>
            <path d="M828.86,480.688L800.628,478.119L828.86,480.688Z" style="fill:rgb(45,43,85);fill-rule:nonzero;"/>
            <path d="M828.86,480.688L800.628,478.119L795.002,477.607L761.144,474.526C761.144,474.526 761.142,474.488 761.138,474.413C761.136,474.386 761.134,474.355 761.132,474.32C812.963,455.387 851.412,400.616 871.906,364.761C872.264,369.403 872.256,374.152 871.818,378.975C870.472,393.76 865.411,407.201 857.78,418.239L857.783,418.239C857.333,418.925 856.89,419.608 856.453,420.29C835.591,452.821 828.867,480.656 828.86,480.688Z" style="fill:rgb(183,100,134);fill-rule:nonzero;"/>
            <path d="M752.504,407.417C745.88,395.624 742.602,381.309 743.975,366.217C747.114,331.712 773.421,305.573 803.857,305.573C805.46,305.573 807.076,305.645 808.7,305.793C830.48,307.775 848.285,322.778 856.634,343.417C847.314,326.826 831.369,315.228 812.407,313.503C810.781,313.355 809.169,313.283 807.564,313.283C777.131,313.283 750.821,339.424 747.682,373.927C746.596,385.864 748.418,397.315 752.504,407.417Z" style="fill:rgb(235,184,195);fill-rule:nonzero;"/>
            <path d="M781.919,476.416L782.542,379.244L792.938,390.851L804.446,374.176L812.941,392.106L825.027,383.018L808.086,478.797L811.561,479.114L830.045,374.603L814.246,386.485L805.03,367.032L792.644,384.976L779.125,369.878L778.444,476.1L781.919,476.416Z" style="fill:rgb(246,247,247);fill-rule:nonzero;"/>
            <path d="M778.506,466.41L778.444,476.1L781.919,476.416L781.996,464.446C780.84,465.117 779.678,465.773 778.506,466.41Z" style="fill:rgb(237,236,237);fill-rule:nonzero;"/>
            <path d="M815.062,439.361L808.086,478.797L811.561,479.114L819.322,435.235C817.92,436.627 816.5,438.003 815.062,439.361Z" style="fill:rgb(237,236,237);fill-rule:nonzero;"/>
            <path d="M827.661,502.51L758.386,496.207L759.23,486.93L828.505,493.233L827.661,502.51Z" style="fill:rgb(196,196,196);fill-rule:nonzero;"/>
            <path d="M825.858,522.323L756.583,516.021L757.427,506.743L826.702,513.047L825.858,522.323Z" style="fill:rgb(196,196,196);fill-rule:nonzero;"/>
            <path d="M795.407,510.198L826.702,513.047L827.661,502.51L808.355,500.754C803.953,504.386 799.621,507.509 795.407,510.198Z" style="fill:rgb(194,194,196);fill-rule:nonzero;"/>
            <path d="M828.505,493.233L829.64,480.759L828.55,480.659C826.958,482.975 823.125,487.154 817.782,492.257L828.505,493.233Z" style="fill:rgb(194,194,196);fill-rule:nonzero;"/>
            <path d="M758.762,528.796L821.409,534.496C823.239,534.663 824.877,533.096 825.068,530.997L825.858,522.323L780.625,518.208C770.983,522.532 762.464,524.651 755.824,525.653C756.044,527.324 757.219,528.655 758.762,528.796Z" style="fill:rgb(194,194,196);fill-rule:nonzero;"/>
            <path d="M808.355,500.754L827.661,502.51L828.505,493.233L817.782,492.257C814.616,495.356 811.468,498.186 808.355,500.754Z" style="fill:rgb(177,177,178);fill-rule:nonzero;"/>
            <path d="M780.625,518.208L825.858,522.323L826.702,513.047L795.407,510.198C790.273,513.474 785.317,516.104 780.625,518.208Z" style="fill:rgb(177,177,178);fill-rule:nonzero;"/>
            <path d="M809.518,540.657C800.938,548.369 785.74,549.555 780.737,549.733L802.25,551.69C805.681,552.002 808.746,549.141 809.096,545.3L809.518,540.657Z" style="fill:rgb(158,158,158);fill-rule:nonzero;"/>
            <path d="M826.104,433.076C826.198,432.813 826.298,432.542 826.458,432.324C827.946,430.294 829.938,430.127 831.919,428.587C832.803,427.9 832.553,425.033 834.76,425.802C835.575,426.085 837.474,427.063 839.205,427.685C841.729,428.592 845.476,428.216 848.395,427.368C852.319,426.229 856.446,424.932 860.127,423.234C863.979,421.456 867.736,419.475 871.404,417.345C874.46,415.57 879.311,413.535 881.622,410.835C885.53,406.267 881.004,395.133 880.49,389.429C879.954,383.484 880.474,365.971 888.498,365.475C901.646,364.664 901.852,377.156 902.439,387.216C902.806,393.493 902.78,399.89 902.216,406.157C901.427,414.934 895.739,419.958 888.223,424.113C880.257,428.516 872.109,432.834 863.354,435.454C859.1,436.727 854.911,437.108 850.569,437.81C846.278,438.503 846.826,440.374 843.226,441.944C841.217,442.821 839.334,444.093 837.189,444.582C833.343,445.459 830.261,442.794 827.339,440.731C826.611,440.217 826.119,439.872 825.741,439.128C825.127,437.917 825.366,436.622 825.557,435.328C825.67,434.562 825.846,433.801 826.104,433.076Z" style="fill:rgb(229,209,189);fill-rule:nonzero;"/>
            <path d="M902.195,390.614C894.762,392.055 887.329,393.496 879.896,394.936C880.374,394.844 871.295,361.609 870.823,359.612C869.019,351.99 867.207,344.079 868.751,336.401C872.049,320.006 879.952,315.971 889.91,333.198C899.309,349.458 914.041,368.925 911.124,387.432C911.06,387.834 910.985,388.255 910.73,388.573C910.381,389.009 909.785,389.143 909.236,389.249C906.889,389.704 904.542,390.159 902.195,390.614Z" style="fill:rgb(71,78,187);fill-rule:nonzero;"/>
        </g>
    </g>
</svg>
