<?xml version="1.0" encoding="UTF-8" standalone="no"?>
<!DOCTYPE svg PUBLIC "-//W3C//DTD SVG 1.1//EN" "http://www.w3.org/Graphics/SVG/1.1/DTD/svg11.dtd">
<svg width="100%" height="100%" viewBox="0 0 1818 1419" version="1.1" xmlns="http://www.w3.org/2000/svg" xmlns:xlink="http://www.w3.org/1999/xlink" xml:space="preserve" xmlns:serif="http://www.serif.com/" style="fill-rule:evenodd;clip-rule:evenodd;stroke-linejoin:round;stroke-miterlimit:2;">
    <g transform="matrix(1,0,0,1,-123.933,-332.396)">
        <g transform="matrix(4.16667,0,0,4.16667,0,0)">
            <path d="M465.681,304.585L449.914,415.294L48.998,415.294L37.157,330.838C35.84,321.376 41.072,312.206 49.9,308.535L85.482,293.769L85.482,258.382C85.482,247.955 93.116,239.115 103.433,237.615L111.846,236.383L125.979,188.595C128.613,179.668 136.808,173.56 146.1,173.56L290.66,173.56C296.159,173.56 301.195,175.681 304.951,179.169C308.707,182.669 311.183,187.534 311.585,193.021L380.42,200.289C390.639,201.374 398.565,209.678 399.175,219.934L401.955,267.686L450.597,281.428C460.718,284.281 467.156,294.183 465.681,304.585Z" style="fill:rgb(218,233,241);fill-rule:nonzero;"/>
        </g>
        <g transform="matrix(4.16667,0,0,4.16667,0,0)">
            <path d="M73.034,327.417L85.549,415.294L403.78,415.294L413.179,348.257C414.225,340.745 410.072,333.467 403.064,330.554L374.82,318.832L374.82,290.743C374.82,282.468 368.762,275.45 360.573,274.26L353.894,273.282L342.676,235.349C340.585,228.264 334.081,223.415 326.705,223.415L211.959,223.415C207.594,223.415 203.597,225.099 200.615,227.867C197.634,230.645 195.669,234.507 195.35,238.863L140.711,244.631C132.6,245.493 126.308,252.084 125.824,260.225L123.617,298.128L85.007,309.036C76.973,311.302 71.862,319.161 73.034,327.417Z" style="fill:rgb(205,218,226);fill-rule:nonzero;"/>
        </g>
        <g transform="matrix(4.16667,0,0,4.16667,0,0)">
            <path d="M335.572,382.549C335.572,373.077 328.637,365.046 319.266,363.683L311.622,362.564L298.782,319.15C296.39,311.042 288.945,305.492 280.504,305.492L149.178,305.492C144.182,305.492 139.606,307.419 136.195,310.588C132.783,313.767 130.534,318.187 130.168,323.172L73.31,329.175L85.575,415.294L337.013,415.294L335.572,414.696L335.572,382.549Z" style="fill:rgb(188,206,216);fill-rule:nonzero;"/>
        </g>
        <g transform="matrix(4.16667,0,0,4.16667,0,0)">
            <rect x="120.231" y="99.119" width="97.555" height="91.053" style="fill:rgb(14,43,70);fill-rule:nonzero;"/>
        </g>
        <g transform="matrix(4.16667,0,0,4.16667,0,0)">
            <rect x="120.231" y="99.119" width="97.555" height="9.629" style="fill:rgb(42,76,104);fill-rule:nonzero;"/>
        </g>
        <g transform="matrix(4.16667,0,0,4.16667,0,0)">
            <path d="M196.698,104.042C196.698,105.017 195.908,105.808 194.934,105.808C193.958,105.808 193.168,105.017 193.168,104.042C193.168,103.067 193.958,102.277 194.934,102.277C195.908,102.277 196.698,103.067 196.698,104.042Z" style="fill:rgb(94,106,177);fill-rule:nonzero;"/>
        </g>
        <g transform="matrix(4.16667,0,0,4.16667,0,0)">
            <path d="M204.069,104.042C204.069,105.017 203.279,105.808 202.304,105.808C201.329,105.808 200.539,105.017 200.539,104.042C200.539,103.067 201.329,102.277 202.304,102.277C203.279,102.277 204.069,103.067 204.069,104.042Z" style="fill:rgb(251,210,90);fill-rule:nonzero;"/>
        </g>
        <g transform="matrix(4.16667,0,0,4.16667,0,0)">
            <path d="M210.913,104.228C210.913,105.203 210.123,105.993 209.148,105.993C208.173,105.993 207.383,105.203 207.383,104.228C207.383,103.253 208.173,102.463 209.148,102.463C210.123,102.463 210.913,103.253 210.913,104.228Z" style="fill:rgb(244,132,121);fill-rule:nonzero;"/>
        </g>
        <g transform="matrix(4.16667,0,0,4.16667,0,0)">
            <rect x="137.578" y="117.7" width="13.817" height="1.161" style="fill:rgb(244,132,121);fill-rule:nonzero;"/>
        </g>
        <g transform="matrix(4.16667,0,0,4.16667,0,0)">
            <rect x="153.795" y="117.7" width="13.817" height="1.161" style="fill:rgb(251,210,90);fill-rule:nonzero;"/>
        </g>
        <g transform="matrix(4.16667,0,0,4.16667,0,0)">
            <rect x="141.852" y="123.956" width="21.425" height="1.161" style="fill:rgb(94,106,177);fill-rule:nonzero;"/>
        </g>
        <g transform="matrix(4.16667,0,0,4.16667,0,0)">
            <rect x="166.82" y="123.956" width="10.891" height="1.161" style="fill:rgb(244,132,121);fill-rule:nonzero;"/>
        </g>
        <g transform="matrix(4.16667,0,0,4.16667,0,0)">
            <rect x="149.284" y="130.211" width="9.41" height="1.162" style="fill:rgb(251,210,90);fill-rule:nonzero;"/>
        </g>
        <g transform="matrix(4.16667,0,0,4.16667,0,0)">
            <rect x="164.133" y="130.211" width="31.218" height="1.162" style="fill:rgb(251,210,90);fill-rule:nonzero;"/>
        </g>
        <g transform="matrix(4.16667,0,0,4.16667,0,0)">
            <rect x="156.593" y="136.467" width="35.677" height="1.161" style="fill:rgb(94,106,177);fill-rule:nonzero;"/>
        </g>
        <g transform="matrix(4.16667,0,0,4.16667,0,0)">
            <rect x="147.673" y="142.723" width="10.98" height="1.161" style="fill:rgb(244,132,121);fill-rule:nonzero;"/>
        </g>
        <g transform="matrix(4.16667,0,0,4.16667,0,0)">
            <rect x="163.351" y="142.723" width="10.98" height="1.161" style="fill:rgb(94,106,177);fill-rule:nonzero;"/>
        </g>
        <g transform="matrix(4.16667,0,0,4.16667,0,0)">
            <rect x="137.578" y="175.179" width="15.974" height="1.161" style="fill:rgb(244,132,121);fill-rule:nonzero;"/>
        </g>
        <g transform="matrix(4.16667,0,0,4.16667,0,0)">
            <rect x="159.146" y="175.179" width="15.973" height="1.161" style="fill:rgb(251,210,90);fill-rule:nonzero;"/>
        </g>
        <g transform="matrix(4.16667,0,0,4.16667,0,0)">
            <rect x="180.133" y="175.179" width="15.973" height="1.161" style="fill:rgb(244,132,121);fill-rule:nonzero;"/>
        </g>
        <g transform="matrix(4.16667,0,0,4.16667,0,0)">
            <rect x="141.852" y="168.923" width="31.217" height="1.161" style="fill:rgb(94,106,177);fill-rule:nonzero;"/>
        </g>
        <g transform="matrix(4.16667,0,0,4.16667,0,0)">
            <rect x="177.937" y="168.923" width="31.216" height="1.161" style="fill:rgb(244,132,121);fill-rule:nonzero;"/>
        </g>
        <g transform="matrix(4.16667,0,0,4.16667,0,0)">
            <rect x="149.284" y="162.667" width="30.978" height="1.161" style="fill:rgb(244,132,121);fill-rule:nonzero;"/>
        </g>
        <g transform="matrix(4.16667,0,0,4.16667,0,0)">
            <rect x="182.963" y="162.667" width="8.622" height="1.161" style="fill:rgb(251,210,90);fill-rule:nonzero;"/>
        </g>
        <g transform="matrix(4.16667,0,0,4.16667,0,0)">
            <rect x="147.261" y="156.411" width="11.662" height="1.161" style="fill:rgb(251,210,90);fill-rule:nonzero;"/>
        </g>
        <g transform="matrix(4.16667,0,0,4.16667,0,0)">
            <rect x="165.116" y="156.411" width="11.662" height="1.161" style="fill:rgb(94,106,177);fill-rule:nonzero;"/>
        </g>
        <g transform="matrix(4.16667,0,0,4.16667,0,0)">
            <rect x="184.278" y="156.411" width="11.662" height="1.161" style="fill:rgb(244,132,121);fill-rule:nonzero;"/>
        </g>
        <g transform="matrix(4.16667,0,0,4.16667,0,0)">
            <rect x="160.779" y="150.155" width="16.353" height="1.162" style="fill:rgb(251,210,90);fill-rule:nonzero;"/>
        </g>
        <g transform="matrix(4.16667,0,0,4.16667,0,0)">
            <rect x="138.258" y="150.155" width="16.352" height="1.162" style="fill:rgb(94,106,177);fill-rule:nonzero;"/>
        </g>
        <g transform="matrix(4.16667,0,0,4.16667,0,0)">
            <rect x="128.535" y="116.584" width="1.486" height="1.487" style="fill:rgb(250,253,254);fill-rule:nonzero;"/>
        </g>
        <g transform="matrix(4.16667,0,0,4.16667,0,0)">
            <path d="M130.021,125.65L128.535,125.65L128.535,122.619L130.021,122.619L130.021,125.65ZM130.021,133.229L128.535,133.229L128.535,130.198L130.021,130.198L130.021,133.229ZM130.021,140.809L128.535,140.809L128.535,137.777L130.021,137.777L130.021,140.809ZM130.021,148.388L128.535,148.388L128.535,145.356L130.021,145.356L130.021,148.388ZM130.021,155.967L128.535,155.967L128.535,152.936L130.021,152.936L130.021,155.967ZM130.021,163.547L128.535,163.547L128.535,160.516L130.021,160.516L130.021,163.547ZM130.021,171.126L128.535,171.126L128.535,168.095L130.021,168.095L130.021,171.126Z" style="fill:rgb(250,253,254);fill-rule:nonzero;"/>
        </g>
        <g transform="matrix(4.16667,0,0,4.16667,0,0)">
            <rect x="128.535" y="175.674" width="1.486" height="1.487" style="fill:rgb(250,253,254);fill-rule:nonzero;"/>
        </g>
        <g transform="matrix(4.16667,0,0,4.16667,0,0)">
            <rect x="238.776" y="79.775" width="80.33" height="49.515" style="fill:rgb(244,132,121);fill-rule:nonzero;"/>
        </g>
        <g transform="matrix(4.16667,0,0,4.16667,0,0)">
            <path d="M269.975,99.691L260.417,103.77L269.975,107.789L268.724,110.676L257.262,105.556L257.262,102.013L268.724,96.863L269.975,99.691Z" style="fill:rgb(250,253,254);fill-rule:nonzero;"/>
        </g>
        <g transform="matrix(4.16667,0,0,4.16667,0,0)">
            <path d="M284.06,90.253L277.123,116.899L273.818,116.125L280.785,89.509L284.06,90.253Z" style="fill:rgb(250,253,254);fill-rule:nonzero;"/>
        </g>
        <g transform="matrix(4.16667,0,0,4.16667,0,0)">
            <path d="M300.646,102.013L300.646,105.556L289.184,110.676L287.934,107.789L297.461,103.77L287.934,99.691L289.184,96.863L300.646,102.013Z" style="fill:rgb(250,253,254);fill-rule:nonzero;"/>
        </g>
        <g transform="matrix(4.16667,0,0,4.16667,0,0)">
            <rect x="316.348" y="175.7" width="45.753" height="32.596" style="fill:rgb(94,106,177);fill-rule:nonzero;"/>
        </g>
        <g transform="matrix(4.16667,0,0,4.16667,0,0)">
            <path d="M335.486,182.737C334.015,182.737 333.523,183.134 333.523,184.232L333.523,189.138C333.523,191.054 332.729,191.638 331.397,192.012C332.729,192.362 333.523,192.946 333.523,194.838L333.523,199.744C333.523,200.842 334.038,201.239 335.486,201.239L335.486,203.389C331.771,203.389 330.72,202.197 330.72,199.721L330.72,195.072C330.72,193.74 330.37,193.226 329.155,193.226L329.155,190.773C330.37,190.773 330.72,190.236 330.72,188.904L330.72,184.255C330.72,181.756 331.771,180.588 335.486,180.588L335.486,182.737Z" style="fill:rgb(243,244,245);fill-rule:nonzero;"/>
        </g>
        <g transform="matrix(4.16667,0,0,4.16667,0,0)">
            <path d="M347.728,184.255L347.728,188.904C347.728,190.236 348.078,190.773 349.316,190.773L349.316,193.226C348.078,193.226 347.728,193.74 347.728,195.072L347.728,199.721C347.728,202.197 346.677,203.389 342.963,203.389L342.963,201.239C344.411,201.239 344.925,200.842 344.925,199.744L344.925,194.838C344.925,192.946 345.719,192.362 347.051,192.012C345.719,191.638 344.925,191.054 344.925,189.138L344.925,184.232C344.925,183.134 344.435,182.737 342.963,182.737L342.963,180.588C346.677,180.588 347.728,181.756 347.728,184.255Z" style="fill:rgb(243,244,245);fill-rule:nonzero;"/>
        </g>
        <g transform="matrix(4.16667,0,0,4.16667,0,0)">
            <rect x="89.183" y="86.876" width="51.33" height="34.332" style="fill:rgb(251,210,90);fill-rule:nonzero;"/>
        </g>
        <g transform="matrix(4.16667,0,0,4.16667,0,0)">
            <path d="M116.984,106.182C114.661,108.504 110.882,108.504 108.559,106.181C106.236,103.858 106.236,100.08 108.559,97.757C110.882,95.435 114.661,95.435 116.984,97.757C119.307,100.08 119.307,103.859 116.984,106.182ZM106.171,96.732C103.72,99.799 103.758,104.28 106.255,107.31C109.092,110.752 113.952,111.307 117.444,108.979L122.832,114.366C123.059,114.593 123.427,114.593 123.655,114.366L125.168,112.852C125.396,112.625 125.396,112.256 125.168,112.029L119.781,106.642C121.963,103.37 121.613,98.897 118.729,96.012C115.219,92.503 109.359,92.743 106.171,96.732Z" style="fill:rgb(250,253,254);fill-rule:nonzero;"/>
        </g>
        <g transform="matrix(4.16667,0,0,4.16667,0,0)">
            <path d="M289.825,192.922C289.714,194.056 288.164,205.896 275.989,205.896C263.208,205.896 265.349,193.241 265.349,193.241L265.333,193.162C266.579,192.906 267.921,192.81 269.343,192.97L269.343,186.979L283.851,178.862L284.378,178.862L284.378,192.842C284.378,192.842 286.678,192.57 289.825,192.922Z" style="fill:url(#_Radial1);"/>
        </g>
        <g transform="matrix(4.16667,0,0,4.16667,0,0)">
            <path d="M282.779,152.117C284.837,154.203 286.392,156.902 287.14,160.201C288.534,166.347 287.223,172.85 285.439,178.773C285.135,179.787 284.788,180.809 284.162,181.662C283.716,182.27 283.141,182.771 282.571,183.267C279.991,185.514 277.411,187.762 274.837,190.016C273.091,191.543 262.348,192.816 260.297,191.351C252.396,185.701 250.875,169.333 252.456,160.964C255.08,147.082 272.923,142.119 282.779,152.117Z" style="fill:url(#_Radial2);"/>
        </g>
        <g transform="matrix(4.16667,0,0,4.16667,0,0)">
            <path d="M278.342,169.882C278.447,168.546 279.821,167.083 281.2,167.95C282.628,168.848 282.292,171.221 281.7,172.526C281.236,173.551 279.685,174.672 278.633,173.72C277.753,172.921 279.121,171.98 279.166,171.251C279.207,170.595 277.895,170.125 278.432,169.423" style="fill:rgb(247,176,148);fill-rule:nonzero;"/>
        </g>
        <g transform="matrix(4.16667,0,0,4.16667,0,0)">
            <path d="M278.595,176.061C280.035,176.493 282.475,175.395 283.092,173.389C283.709,171.383 283.643,169.093 283.643,169.093C283.643,169.093 284.368,170.909 283.995,173.831C283.622,176.752 282.599,179.535 280.306,179.572C278.013,179.608 278.595,176.061 278.595,176.061Z" style="fill:rgb(247,176,148);fill-rule:nonzero;"/>
        </g>
        <g transform="matrix(4.16667,0,0,4.16667,0,0)">
            <path d="M276.828,173.982L276.667,174.03C275.775,174.155 275.419,173.076 275.287,172.401C274.978,170.824 275.026,169.228 274.972,167.633C274.959,167.233 274.99,166.734 274.826,166.358C274.325,165.211 272.99,164.466 272.583,163.281C272.109,161.903 273.447,160.528 272.916,159.02C272.104,156.709 269.136,156.178 266.99,156.203C263.77,156.241 260.63,156.838 257.452,157.331C254.097,157.852 249.809,158.346 246.853,156.224C243.289,153.667 241.801,147.002 244.46,143.354C245.909,141.364 248.658,140.305 251.066,140.25C253.619,140.191 255.776,141.713 258.118,142.479C259.983,143.089 261.786,141.305 263.53,140.957C265.722,140.519 266.652,142.911 268.591,142.976C270.474,143.04 272.321,141.569 274.152,141.235C277.803,140.568 277.588,144.235 280.037,145.487C281.56,146.266 283.526,145.794 285.066,146.585C286.236,147.186 286.4,148.242 286.655,149.438C286.876,150.473 286.888,151.667 287.229,152.65C287.535,153.534 288.277,154.092 288.856,154.783C289.488,155.538 289.892,156.418 290.212,157.364C290.923,159.462 291.081,161.725 290.887,163.921C290.562,167.607 289.375,171.236 288.144,174.708C287.345,176.96 287.048,179.306 285.819,181.438C285.489,182.011 284.023,183.685 283.478,182.438C283.361,182.171 283.379,181.867 283.399,181.576C283.562,179.253 285.724,164.289 280.055,166.086C278.865,166.464 278.067,167.454 277.623,168.583C277.093,169.935 277.056,171.296 277.123,172.724C277.133,172.928 277.138,173.133 277.13,173.337C277.12,173.601 277.054,173.869 276.828,173.982Z" style="fill:rgb(59,62,123);fill-rule:nonzero;"/>
        </g>
        <g transform="matrix(4.16667,0,0,4.16667,0,0)">
            <path d="M269.343,191.599C275.789,190.563 280.042,185.471 280.042,185.471C280.042,185.471 278.304,194.052 268.956,194.506L269.343,191.599Z" style="fill:rgb(247,176,148);fill-rule:nonzero;"/>
        </g>
        <g transform="matrix(4.16667,0,0,4.16667,0,0)">
            <path d="M279.924,308.57L289.15,308.57L289.15,397.096C289.15,397.993 288.422,398.722 287.524,398.722L281.55,398.722C280.651,398.722 279.924,397.993 279.924,397.096L279.924,308.57Z" style="fill:rgb(10,32,50);fill-rule:nonzero;"/>
        </g>
        <g transform="matrix(4.16667,0,0,4.16667,0,0)">
            <path d="M259.165,309.836L309.908,309.836L309.908,311.221C309.908,314.708 307.081,317.535 303.594,317.535L265.48,317.535C261.993,317.535 259.165,314.708 259.165,311.221L259.165,309.836Z" style="fill:rgb(47,71,94);fill-rule:nonzero;"/>
        </g>
        <g transform="matrix(4.16667,0,0,4.16667,0,0)">
            <path d="M279.924,388.226L289.15,388.226L289.15,408.739C289.15,409.637 288.422,410.365 287.524,410.365L281.55,410.365C280.651,410.365 279.924,409.637 279.924,408.739L279.924,388.226Z" style="fill:rgb(10,32,50);fill-rule:nonzero;"/>
        </g>
        <g transform="matrix(4.16667,0,0,4.16667,0,0)">
            <path d="M236.657,404.965C236.657,407.947 239.075,410.365 242.058,410.365C245.039,410.365 247.457,407.947 247.457,404.965C247.457,401.982 245.039,399.565 242.058,399.565C239.075,399.565 236.657,401.982 236.657,404.965Z" style="fill:rgb(10,32,50);fill-rule:nonzero;"/>
        </g>
        <g transform="matrix(4.16667,0,0,4.16667,0,0)">
            <path d="M321.616,404.965C321.616,407.947 324.034,410.365 327.017,410.365C329.999,410.365 332.417,407.947 332.417,404.965C332.417,401.982 329.999,399.565 327.017,399.565C324.034,399.565 321.616,401.982 321.616,404.965Z" style="fill:rgb(10,32,50);fill-rule:nonzero;"/>
        </g>
        <g transform="matrix(4.16667,0,0,4.16667,0,0)">
            <rect x="275.256" y="381.35" width="18.562" height="16.22" style="fill:rgb(47,71,94);fill-rule:nonzero;"/>
        </g>
        <g transform="matrix(4.16667,0,0,4.16667,0,0)">
            <path d="M236.657,401.387L332.417,401.387L332.417,399.505C332.417,396.328 329.842,393.754 326.665,393.754L242.408,393.754C239.232,393.754 236.657,396.328 236.657,399.505L236.657,401.387Z" style="fill:rgb(251,210,90);fill-rule:nonzero;"/>
        </g>
        <g transform="matrix(4.16667,0,0,4.16667,0,0)">
            <rect x="281.337" y="319.354" width="3.2" height="60.548" style="fill:rgb(47,71,94);fill-rule:nonzero;"/>
        </g>
        <g transform="matrix(4.16667,0,0,4.16667,0,0)">
            <path d="M320.786,244.403C318.572,244.333 316.772,246.166 316.9,248.377C317.533,259.367 315.204,286.177 304.968,295.324C292.452,306.509 256.979,304.985 256.979,304.985C256.979,304.985 251.12,312.175 262.837,313.772C274.554,315.37 307.573,314.306 315.562,306.85C323.294,299.632 327.885,280.723 324.425,247.811C324.227,245.924 322.684,244.462 320.786,244.403Z" style="fill:rgb(251,210,90);fill-rule:nonzero;"/>
        </g>
        <g transform="matrix(4.16667,0,0,4.16667,0,0)">
            <path d="M254.324,379.902L258.542,389.521L245.617,395.193L241.383,385.543L254.324,379.902Z" style="fill:url(#_Radial3);"/>
        </g>
        <g transform="matrix(4.16667,0,0,4.16667,0,0)">
            <path d="M315.277,272.999C314.479,274.598 257.049,273.031 251.624,273.526C251.624,273.526 216.475,290.303 211.426,306.008C210.914,307.59 210.771,309.683 210.931,312.176C212.336,334.288 237.517,387.236 237.517,387.236L241.383,385.543L254.324,379.902L256.161,379.104C256.161,379.104 236.19,319.589 240.185,316.394C244.179,313.198 289.442,305.21 305.147,300.96C320.869,296.693 315.277,272.999 315.277,272.999Z" style="fill:rgb(86,85,141);fill-rule:nonzero;"/>
        </g>
        <g transform="matrix(4.16667,0,0,4.16667,0,0)">
            <path d="M205.048,382.377L206.058,396.827L191.949,396.827L190.939,382.345L205.048,382.377Z" style="fill:url(#_Radial4);"/>
        </g>
        <g transform="matrix(4.16667,0,0,4.16667,0,0)">
            <path d="M251.337,273.031L250.825,273.255C250.825,273.255 191.981,281.516 182.396,298.02C176.164,308.756 188.225,387.209 188.225,387.209L209.043,387.257C209.043,387.257 205.93,321.905 206.968,318.263C208.135,314.108 210.132,312.606 210.931,312.176C210.771,309.683 210.914,307.59 211.426,306.008C216.475,290.303 251.624,273.526 251.624,273.526C251.513,273.447 251.416,273.271 251.337,273.031Z" style="fill:rgb(59,62,123);fill-rule:nonzero;"/>
        </g>
        <g transform="matrix(4.16667,0,0,4.16667,0,0)">
            <path d="M308.173,218.661L304.227,219.204C304.227,219.204 303.268,229.845 300.919,240.486L251.758,259.147L251.086,262.71C250.879,262.694 250.671,262.678 250.479,262.662C250.495,263.397 250.495,264.116 250.527,264.787C250.639,268.894 250.91,271.849 251.342,273.031C251.422,273.271 251.518,273.447 251.63,273.526C252.965,274.615 270.353,272.505 289.15,279.407C305.453,285.394 314.591,291.932 315.013,291.054C320.137,280.402 310.809,238.601 308.173,218.661Z" style="fill:rgb(244,132,121);fill-rule:nonzero;"/>
        </g>
        <g transform="matrix(4.16667,0,0,4.16667,0,0)">
            <path d="M303.044,243.042C301.734,249.337 298.347,261.863 291.7,263.541C283.024,265.746 266.249,265.634 250.527,264.787C250.495,264.116 250.495,263.397 250.479,262.662C250.671,262.678 250.879,262.694 251.086,262.71L251.758,259.147L300.919,240.486C303.268,229.845 304.227,219.204 304.227,219.204C304.227,219.204 304.227,219.268 304.242,219.38C304.338,221.026 305.009,233.744 303.044,243.042Z" style="fill:rgb(242,103,93);fill-rule:nonzero;"/>
        </g>
        <g transform="matrix(4.16667,0,0,4.16667,0,0)">
            <path d="M253.766,202.956C252.887,204.553 251.624,221.649 250.938,238.617L240.888,229.238C245.153,220.978 253.766,202.956 253.766,202.956Z" style="fill:rgb(242,103,93);fill-rule:nonzero;"/>
        </g>
        <g transform="matrix(4.16667,0,0,4.16667,0,0)">
            <path d="M247.742,251.015C239.258,252.484 231.461,253.747 231.461,253.747L231.445,254.162C222.003,246.621 207.639,225.26 207.639,225.26C207.639,225.26 211.937,220.099 213.008,218.741C213.167,218.533 236.59,234.654 237.788,234.51C238.092,234.479 239.29,232.37 240.888,229.238L250.938,238.617C250.777,242.659 250.649,246.685 250.569,250.503C249.627,250.679 248.685,250.839 247.742,251.015Z" style="fill:rgb(247,176,148);fill-rule:nonzero;"/>
        </g>
        <g transform="matrix(4.16667,0,0,4.16667,0,0)">
            <path d="M231.461,253.747L231.253,260.745L205.689,260.745C205.689,260.745 208.23,250.759 215.148,250.759C222.066,250.759 224.734,254.418 224.734,254.418L231.461,253.747Z" style="fill:url(#_Radial5);"/>
        </g>
        <g transform="matrix(4.16667,0,0,4.16667,0,0)">
            <path d="M212.815,218.581L213.008,218.741C211.937,220.099 207.639,225.26 207.639,225.26L204.971,223.375C204.971,223.375 202.031,225.164 198.612,223.294C195.049,221.361 197.254,216.745 197.437,216.198C196.746,216.393 192.477,219.843 191.806,219.476C191.135,219.108 190.64,217.894 195.416,213.181C200.178,208.468 206.664,214.523 206.856,214.523L212.815,218.581Z" style="fill:rgb(247,176,148);fill-rule:nonzero;"/>
        </g>
        <g transform="matrix(4.16667,0,0,4.16667,0,0)">
            <path d="M199.168,222.493C199.168,222.493 198.138,224.421 199.969,225.26C201.8,226.098 205.362,226.703 206.893,226.556C208.423,226.408 209.64,224.267 209.64,224.267L205.005,219.918L201.3,219.918L199.168,222.493Z" style="fill:rgb(247,176,148);fill-rule:nonzero;"/>
        </g>
        <g transform="matrix(4.16667,0,0,4.16667,0,0)">
            <path d="M198.894,223.44C199.168,222.493 201.8,222.998 203.431,223.037C204.633,223.065 205.291,222.75 205.662,221.834C206.034,220.919 204.289,219.46 203.946,219.918C203.603,220.375 204.575,221.02 204.604,221.627C204.633,222.235 202.888,222.436 201.543,222.436C200.198,222.436 197.878,222.786 197.878,222.786L198.894,223.44Z" style="fill:rgb(233,152,124);fill-rule:nonzero;"/>
        </g>
        <g transform="matrix(4.16667,0,0,4.16667,0,0)">
            <path d="M298.421,249.561L273.385,240.693C271.563,244.097 269.614,246.653 267.682,247.165C264.758,247.931 257.695,249.257 250.569,250.503C249.627,250.679 248.685,250.839 247.742,251.015C239.258,252.484 231.461,253.747 231.461,253.747L231.445,254.162L231.445,254.434L231.253,260.745L231.253,262.347C231.253,262.347 239.753,261.912 250.474,262.662C265.477,263.732 284.825,264.372 291.231,261.353C294.235,259.93 296.632,255.265 298.518,249.513L298.421,249.561Z" style="fill:url(#_Radial6);"/>
        </g>
        <g transform="matrix(4.16667,0,0,4.16667,0,0)">
            <path d="M273.385,240.693L298.421,249.561L297.288,252.906L272.509,242.277L273.385,240.693Z" style="fill:rgb(247,176,148);fill-rule:nonzero;"/>
        </g>
        <g transform="matrix(4.16667,0,0,4.16667,0,0)">
            <path d="M273.385,240.693C271.563,244.097 269.614,246.653 267.682,247.165C264.758,247.931 257.695,249.257 250.569,250.503C250.649,246.685 250.777,242.659 250.937,238.617C251.624,221.649 252.887,204.553 253.766,202.956C255.203,200.287 259.134,194.488 265.333,193.162L265.349,193.241C265.349,193.241 263.208,205.896 275.989,205.896C288.164,205.896 289.714,194.056 289.825,192.922C296.089,193.625 305.691,196.756 307.017,209.346C307.289,211.839 307.672,215.034 308.167,218.661L304.221,219.204C304.221,219.204 302.623,236.939 298.518,249.513L298.421,249.561L273.385,240.693Z" style="fill:rgb(244,132,121);fill-rule:nonzero;"/>
        </g>
        <g transform="matrix(4.16667,0,0,4.16667,0,0)">
            <path d="M275.759,239.364L273.126,238.386L283.123,214.186L275.759,239.364Z" style="fill:rgb(248,167,149);fill-rule:nonzero;"/>
        </g>
        <g transform="matrix(4.16667,0,0,4.16667,0,0)">
            <path d="M289.825,192.922L284.378,192.922C284.378,192.922 276.624,201.435 271.641,201.435C266.656,201.435 269.343,192.97 269.343,192.97L266.911,192.97C259.927,192.97 254.049,198.215 253.258,205.155C253.168,205.95 253.085,206.704 253.015,207.386C252.481,212.536 273.344,216.284 273.344,216.284L284.086,215.683L290.609,202.956L291.909,197.744L289.825,192.922Z" style="fill:rgb(244,132,121);fill-rule:nonzero;"/>
        </g>
        <g transform="matrix(4.16667,0,0,4.16667,0,0)">
            <path d="M224.083,406.264C224.568,408.866 226.373,410.717 228.976,410.231L263.677,403.759C264.555,403.595 265.133,402.751 264.97,401.873L264.396,398.794C264.396,398.794 227.899,405.181 224.065,406.244L224.083,406.264Z" style="fill:rgb(243,244,245);fill-rule:nonzero;"/>
        </g>
        <g transform="matrix(4.16667,0,0,4.16667,0,0)">
            <path d="M234.407,397.526C234.769,397.212 235.117,396.9 235.479,396.587C236.175,395.964 236.86,395.357 237.52,394.77C237.867,394.459 238.216,394.147 238.538,393.854C239.172,393.287 239.769,392.755 240.304,392.277C240.688,391.931 241.048,391.603 241.371,391.31C241.964,390.778 242.448,390.345 242.788,390.04C243.082,389.777 243.519,389.765 243.82,390.019C245.247,391.218 249.857,393.96 258.209,388.793C258.604,388.548 259.13,388.676 259.345,389.089L264.396,398.794C264.396,398.794 227.899,405.181 224.065,406.244C225.326,405.458 229.984,401.427 234.407,397.526Z" style="fill:rgb(59,62,123);fill-rule:nonzero;"/>
        </g>
        <g transform="matrix(4.16667,0,0,4.16667,0,0)">
            <path d="M169.432,405.923C169.496,408.57 170.982,410.685 173.63,410.619L208.919,409.758C209.812,409.736 210.518,408.995 210.496,408.103L210.419,404.972C210.419,404.972 173.372,405.462 169.418,405.901L169.432,405.923Z" style="fill:rgb(243,244,245);fill-rule:nonzero;"/>
        </g>
        <g transform="matrix(4.16667,0,0,4.16667,0,0)">
            <path d="M181.016,398.942C181.424,398.689 181.816,398.438 182.224,398.186C183.011,397.681 183.783,397.191 184.527,396.717C184.921,396.465 185.314,396.213 185.68,395.976C186.396,395.516 187.069,395.086 187.674,394.7C188.109,394.418 188.516,394.151 188.881,393.915C189.551,393.484 190.099,393.133 190.482,392.887C190.814,392.674 191.248,392.731 191.506,393.03C192.723,394.441 196.838,397.883 205.905,394.112C206.335,393.934 206.833,394.144 206.979,394.586L210.419,404.972C210.419,404.972 173.372,405.462 169.418,405.901C170.787,405.325 176.028,402.088 181.016,398.942Z" style="fill:rgb(59,62,123);fill-rule:nonzero;"/>
        </g>
        <g transform="matrix(4.16667,0,0,4.16667,0,0)">
            <path d="M144.329,262.347L125.482,212.083L179.137,212.083L197.982,262.347L144.329,262.347Z" style="fill:rgb(171,181,187);fill-rule:nonzero;"/>
        </g>
        <g transform="matrix(4.16667,0,0,4.16667,0,0)">
            <path d="M201.3,262.347L197.982,262.347L179.137,212.083L182.148,212.217L199.58,257.714L201.3,262.347Z" style="fill:rgb(132,149,160);fill-rule:nonzero;"/>
        </g>
        <g transform="matrix(4.16667,0,0,4.16667,0,0)">
            <path d="M200.259,262.347L235.712,262.347L235.615,259.179L199.533,259.179" style="fill:rgb(132,149,160);fill-rule:nonzero;"/>
        </g>
        <g transform="matrix(4.16667,0,0,4.16667,0,0)">
            <rect x="342.766" y="271.933" width="8.536" height="140.233" style="fill:rgb(132,149,160);fill-rule:nonzero;"/>
        </g>
        <g transform="matrix(4.16667,0,0,4.16667,0,0)">
            <rect x="296.432" y="271.933" width="8.536" height="140.233" style="fill:rgb(171,181,187);fill-rule:nonzero;"/>
        </g>
        <g transform="matrix(4.16667,0,0,4.16667,0,0)">
            <rect x="147.993" y="271.933" width="8.535" height="140.233" style="fill:rgb(132,149,160);fill-rule:nonzero;"/>
        </g>
        <g transform="matrix(4.16667,0,0,4.16667,0,0)">
            <rect x="101.66" y="271.933" width="8.536" height="140.233" style="fill:rgb(171,181,187);fill-rule:nonzero;"/>
        </g>
        <g transform="matrix(4.16667,0,0,4.16667,0,0)">
            <path d="M359.844,272.465L93.482,272.465C91.191,272.465 89.334,270.607 89.334,268.316L89.334,266.495C89.334,264.204 91.191,262.347 93.482,262.347L359.844,262.347C362.135,262.347 363.992,264.204 363.992,266.495L363.992,268.316C363.992,270.607 362.135,272.465 359.844,272.465Z" style="fill:rgb(32,32,85);fill-rule:nonzero;"/>
        </g>
        <g transform="matrix(4.16667,0,0,4.16667,0,0)">
            <path d="M134.441,217.366L135.359,219.813L146.047,219.813L145.129,217.366L134.441,217.366Z" style="fill:rgb(132,149,160);fill-rule:nonzero;"/>
        </g>
        <g transform="matrix(4.16667,0,0,4.16667,0,0)">
            <path d="M240.888,229.238L240.12,230.72L250.938,241.899L250.938,238.617L240.888,229.238Z" style="fill:rgb(233,152,124);fill-rule:nonzero;"/>
        </g>
        <g transform="matrix(4.16667,0,0,4.16667,0,0)">
            <rect x="29.744" y="410.363" width="431.916" height="9.863" style="fill:rgb(165,184,198);fill-rule:nonzero;"/>
        </g>
        <g transform="matrix(4.16667,0,0,4.16667,0,0)">
            <path d="M393.183,337.215C391.468,345.54 391.984,359.721 380.971,361.967C378.005,362.571 375.14,360.516 373.416,358.16C371.16,355.077 370.62,348.552 370.659,344.819C370.69,341.861 371.699,338.563 372.023,335.578C372.375,332.355 372.66,329.125 373.036,325.904C374.391,314.296 380.455,304.567 390.712,298.772C391.506,302.583 393.315,305.808 394.911,309.467C395.639,311.135 396.295,312.894 396.769,314.642C397.607,317.737 396.593,320.865 395.84,323.83C394.727,328.213 394.097,332.781 393.183,337.215Z" style="fill:url(#_Linear7);"/>
        </g>
        <g transform="matrix(4.16667,0,0,4.16667,0,0)">
            <path d="M379.106,362.247C379.185,361.549 379.271,360.851 379.363,360.153C380.679,360.149 382.049,359.401 383.153,358.829C385.069,357.836 386.623,356.412 388.128,354.89L387.987,354.749C386.486,356.01 384.93,357.231 383.144,358.064C382.147,358.528 380.691,359.287 379.463,359.435C379.579,358.601 379.707,357.77 379.845,356.939C381.215,356.771 382.471,355.871 383.631,355.183C385.603,354.013 387.299,352.499 389.057,351.04L389.032,351.009C386.343,352.962 383.347,355.742 379.944,356.351C380.125,355.311 380.315,354.273 380.534,353.243L380.568,353.082C384.506,352.086 387.169,348.998 390.184,346.502L390.129,346.418C387.16,348.724 384.37,351.354 380.7,352.474C381.019,350.999 381.35,349.529 381.683,348.062C385.245,346.747 388.09,344.66 390.58,341.753L390.508,341.683C387.931,344.365 385.093,345.905 381.825,347.432C382.154,345.979 382.481,344.525 382.791,343.067C384.332,342.31 385.953,341.849 387.376,340.852C388.78,339.869 390.04,338.697 390.944,337.234L390.825,337.158C388.832,340.024 385.827,340.916 382.923,342.423C383.206,341.064 383.47,339.702 383.706,338.332C386.942,336.55 390.459,334.898 392.293,331.483L392.243,331.449C390.3,334.587 386.904,335.938 383.821,337.646C383.861,337.402 383.906,337.16 383.944,336.915C384.143,335.645 384.328,334.372 384.511,333.101C386.37,332.355 388.143,331.304 389.816,330.214C391.004,329.44 392.272,328.674 393.05,327.46L392.935,327.379C391.199,329.866 387.397,331.304 384.59,332.548C384.772,331.263 384.953,329.978 385.136,328.692C388.251,326.807 391.917,325.765 393.834,322.366C393.891,322.266 393.743,322.173 393.68,322.271C391.694,325.374 388.199,326.331 385.222,328.092C385.336,327.296 385.452,326.5 385.572,325.705C388.937,324.468 392.849,321.651 394.623,318.61C394.721,318.442 394.479,318.287 394.369,318.447C392.56,321.116 388.924,324.017 385.671,325.073C385.87,323.784 386.078,322.497 386.308,321.212L386.357,321.099C387.868,320.654 389.361,319.589 390.665,318.784C392.237,317.814 393.737,316.688 394.716,315.093C394.824,314.917 394.537,314.754 394.436,314.935C392.941,317.602 389.395,319.39 386.459,320.408C386.545,319.939 386.63,319.471 386.723,319.003C386.861,318.304 387.004,317.604 387.146,316.905C388.349,316.075 389.875,315.678 391.082,314.801C392.131,314.039 393.047,313.121 393.946,312.19C394.036,312.099 393.903,311.956 393.809,312.045C392.591,313.189 391.338,314.288 389.855,315.081C389.026,315.525 388.081,315.778 387.278,316.265C387.513,315.122 387.747,313.979 387.971,312.834L388.014,312.825L388.057,312.834L388.254,312.772C389.889,312.36 391.139,310.953 392.237,309.754L392.195,309.711C391.042,310.776 389.732,311.956 388.188,312.414L388.173,312.407L388.056,312.389C388.234,311.457 388.404,310.524 388.56,309.589C388.678,309.568 388.781,309.467 388.753,309.349C389.62,308.768 390.407,308.026 391.146,307.301L391.064,307.212C390.296,307.874 389.538,308.42 388.674,308.898C388.979,306.967 389.216,305.024 389.324,303.063C389.334,302.881 389.059,302.879 389.043,303.058C388.872,304.946 388.598,306.816 388.272,308.677C387.371,307.494 386.367,306.276 385.816,304.922L385.701,304.956C385.971,305.797 386.436,306.532 386.896,307.28C387.308,307.949 387.637,308.728 388.162,309.322C387.98,310.321 387.784,311.317 387.578,312.313C386.482,312.137 385.477,311.929 384.572,311.135C383.464,310.164 382.834,308.843 382.725,307.378C382.711,307.198 382.427,307.199 382.443,307.379C382.568,308.741 383.11,310.022 384.042,311.038C385.022,312.106 386.173,312.447 387.493,312.721C387.253,313.87 387.005,315.018 386.752,316.165C385.757,315.568 384.832,314.788 383.935,314.072C382.486,312.918 381.631,311.529 380.374,310.229C380.248,310.1 380.043,310.287 380.167,310.42C381.345,311.672 382.142,313.028 383.481,314.153C384.446,314.963 385.511,315.979 386.662,316.578L386.622,316.76L386.584,316.792L386.558,317.049C386.316,318.147 386.075,319.246 385.843,320.348L385.802,320.555C383.24,319.382 379.412,317.344 379.072,314.372C379.04,314.09 378.618,314.168 378.684,314.457C379.441,317.821 383.138,319.312 385.685,321.146C385.434,322.391 385.203,323.639 384.992,324.891C383.337,324.321 381.764,323.617 380.375,322.513C379.111,321.508 377.324,320.296 376.755,318.739L376.682,318.771C377.208,320.318 378.812,321.382 379.979,322.438C381.459,323.777 382.974,324.914 384.878,325.45L384.873,325.617C384.742,326.411 384.616,327.205 384.495,328.001C381.384,327.762 377.03,325.399 375.44,323.046L375.425,323.058C376.509,324.854 378.148,325.903 379.997,326.813C381.377,327.494 382.869,328.299 384.431,328.415C384.208,329.887 383.991,331.36 383.772,332.833C382.422,332.33 380.992,332.089 379.656,331.555C377.671,330.76 376.154,329.332 374.985,327.577C374.915,327.471 374.738,327.561 374.808,327.671C376.962,331.095 380.061,332.1 383.69,333.382C383.509,334.59 383.319,335.797 383.12,337.003C380.149,336.434 376.308,334.62 374.805,332.04C374.694,331.851 374.393,332.008 374.503,332.199C375.452,333.853 377.088,334.898 378.757,335.741C379.959,336.348 381.614,337.354 383.046,337.462L383.026,337.58C382.732,339.315 382.39,341.042 382.02,342.762C378.701,341.928 376.556,339.47 374.144,337.169C373.977,337.009 373.714,337.253 373.881,337.416C376.338,339.835 378.496,342.372 381.91,343.267C381.604,344.666 381.278,346.063 380.94,347.455C378.114,346.665 375.316,344.659 373.488,342.355C373.358,342.191 373.131,342.413 373.254,342.575C375.154,345.075 377.894,346.962 380.81,347.995C380.443,349.49 380.063,350.981 379.68,352.472C376.776,352.03 374.539,350.212 372.751,347.914L372.655,347.986C374.244,350.197 376.647,352.75 379.539,353.018C379.416,353.493 379.294,353.969 379.171,354.444C379.097,354.73 379.02,355.021 378.94,355.315C376.751,354.671 374.719,353.885 372.912,352.409L372.851,352.489C374.568,354.035 376.624,355.077 378.821,355.753C378.577,356.648 378.32,357.568 378.065,358.506C377.522,358.253 376.997,357.976 376.403,357.798C375.314,357.472 374.609,356.781 373.661,356.212L373.563,356.339C374.396,356.882 374.98,357.581 375.93,357.938C376.633,358.204 377.296,358.541 377.976,358.843C376.978,362.563 376.095,366.517 376.573,370.087C376.68,370.879 378.008,371.089 378.214,370.246C378.844,367.658 378.812,364.893 379.106,362.247Z" style="fill:rgb(114,121,186);fill-rule:nonzero;"/>
        </g>
        <g transform="matrix(4.16667,0,0,4.16667,0,0)">
            <path d="M358.328,334.831C360.287,343.103 366.74,355.74 357.704,362.426C355.271,364.226 351.806,363.57 349.248,362.162C345.902,360.32 342.658,354.632 341.119,351.231C339.898,348.536 339.421,345.12 338.456,342.278C337.413,339.208 336.309,336.159 335.29,333.081C331.619,321.985 333.011,310.606 339.864,301.023C342.191,304.143 345.194,306.303 348.185,308.946C349.547,310.151 350.885,311.47 352.052,312.854C354.119,315.307 354.52,318.57 355.088,321.576C355.929,326.02 357.286,330.427 358.328,334.831Z" style="fill:url(#_Linear8);"/>
        </g>
        <g transform="matrix(4.16667,0,0,4.16667,0,0)">
            <path d="M356.133,363.467C355.908,362.801 355.692,362.131 355.48,361.459C356.673,360.901 357.599,359.645 358.358,358.659C359.677,356.95 360.483,355.005 361.206,352.988C361.244,352.881 361.066,352.819 361.019,352.921C360.19,354.697 359.295,356.461 358.026,357.971C357.319,358.812 356.319,360.113 355.269,360.766C355.021,359.961 354.787,359.153 354.562,358.343C355.732,357.612 356.491,356.267 357.252,355.152C358.546,353.259 359.445,351.171 360.423,349.107L360.388,349.089C358.773,351.994 357.23,355.779 354.403,357.767C354.128,356.748 353.863,355.727 353.626,354.701L353.59,354.54C356.738,351.976 357.85,348.052 359.529,344.517L359.443,344.464C357.726,347.807 356.308,351.37 353.452,353.933C353.118,352.462 352.798,350.99 352.48,349.519C355.156,346.823 356.854,343.73 357.884,340.044L357.789,340.011C356.585,343.53 354.662,346.124 352.344,348.888C352.029,347.431 351.712,345.976 351.377,344.523C352.455,343.186 353.729,342.084 354.6,340.58C355.458,339.097 356.105,337.502 356.307,335.794L356.168,335.775C355.57,339.215 353.223,341.291 351.226,343.883C350.908,342.532 350.572,341.186 350.209,339.844C352.391,336.862 354.882,333.881 355.103,330.011L355.043,330.002C354.606,333.666 352.098,336.324 350.024,339.174C349.957,338.936 349.896,338.697 349.827,338.459C349.471,337.224 349.102,335.992 348.729,334.762C350.102,333.301 351.265,331.601 352.322,329.906C353.072,328.704 353.898,327.473 354.091,326.044L353.952,326.02C353.429,329.007 350.589,331.914 348.568,334.228C348.191,332.985 347.813,331.744 347.437,330.502C349.465,327.478 352.348,324.985 352.652,321.096C352.661,320.98 352.488,320.959 352.473,321.074C351.982,324.726 349.217,327.068 347.261,329.922C347.028,329.151 346.798,328.381 346.571,327.609C349.099,325.068 351.457,320.863 351.781,317.357C351.8,317.164 351.514,317.125 351.483,317.317C350.969,320.5 348.897,324.663 346.395,326.994C346.03,325.742 345.676,324.487 345.342,323.227L345.339,323.102C346.521,322.062 347.425,320.465 348.268,319.186C349.283,317.643 350.168,315.987 350.382,314.13C350.405,313.924 350.077,313.897 350.062,314.104C349.832,317.153 347.371,320.271 345.139,322.433C345.02,321.972 344.898,321.511 344.785,321.048C344.616,320.355 344.45,319.661 344.285,318.967C345.024,317.707 346.24,316.703 346.964,315.398C347.594,314.265 348.037,313.046 348.459,311.823C348.501,311.702 348.321,311.628 348.272,311.749C347.651,313.302 346.979,314.825 345.971,316.17C345.406,316.923 344.656,317.551 344.134,318.331C343.864,317.195 343.594,316.061 343.313,314.929L343.349,314.902L343.391,314.892L343.544,314.753C344.852,313.689 345.392,311.886 345.881,310.335L345.825,310.314C345.229,311.767 344.54,313.389 343.334,314.455L343.316,314.456L343.202,314.489C342.972,313.569 342.731,312.651 342.479,311.738C342.576,311.669 342.627,311.534 342.552,311.438C343.092,310.546 343.493,309.542 343.856,308.572L343.745,308.525C343.328,309.45 342.871,310.265 342.29,311.064C341.751,309.185 341.146,307.323 340.416,305.499C340.349,305.33 340.099,305.444 340.159,305.613C340.801,307.397 341.342,309.208 341.833,311.032C340.516,310.341 339.092,309.66 338.021,308.665L337.931,308.744C338.529,309.393 339.262,309.863 339.995,310.347C340.65,310.78 341.278,311.347 342.004,311.664C342.262,312.646 342.504,313.633 342.737,314.621C341.67,314.924 340.671,315.16 339.515,314.822C338.101,314.409 336.972,313.478 336.255,312.196C336.166,312.039 335.909,312.159 336,312.315C336.688,313.498 337.721,314.432 338.994,314.959C340.334,315.514 341.521,315.337 342.833,315.027C343.1,316.171 343.359,317.315 343.615,318.462C342.46,318.342 341.292,318.024 340.177,317.755C338.377,317.319 337.016,316.421 335.327,315.773C335.158,315.709 335.051,315.966 335.22,316.033C336.816,316.672 338.11,317.564 339.801,318.02C341.018,318.346 342.411,318.817 343.707,318.875L343.747,319.057L343.727,319.103C343.683,319.218 343.733,319.303 343.812,319.346C344.056,320.443 344.301,321.542 344.556,322.638L344.605,322.843C341.788,322.861 337.458,322.63 335.896,320.078C335.747,319.836 335.398,320.085 335.579,320.32C337.686,323.049 341.666,322.84 344.748,323.428C345.047,324.663 345.364,325.892 345.701,327.116C343.961,327.298 342.237,327.324 340.512,326.908C338.942,326.531 336.811,326.187 335.638,325.016L335.584,325.075C336.715,326.256 338.617,326.543 340.12,327.008C342.028,327.598 343.882,327.989 345.834,327.671L345.9,327.825C346.117,328.6 346.338,329.373 346.563,330.146C343.642,331.241 338.698,330.937 336.264,329.475L336.255,329.492C337.995,330.662 339.925,330.922 341.984,330.968C343.523,331.002 345.215,331.102 346.681,330.548C347.099,331.977 347.525,333.403 347.947,334.831C346.512,334.945 345.113,335.33 343.677,335.409C341.541,335.526 339.564,334.872 337.764,333.774C337.655,333.708 337.532,333.863 337.642,333.935C341.04,336.13 344.272,335.732 348.104,335.363C348.45,336.535 348.789,337.709 349.116,338.886C346.183,339.624 341.935,339.602 339.483,337.896C339.303,337.771 339.097,338.042 339.276,338.169C340.836,339.267 342.76,339.524 344.628,339.584C345.974,339.627 347.899,339.841 349.242,339.334L349.275,339.449C349.741,341.146 350.159,342.856 350.549,344.572C347.188,345.217 344.206,343.894 341.049,342.825C340.829,342.751 340.694,343.083 340.915,343.161C344.163,344.316 347.19,345.706 350.663,345.075C350.977,346.474 351.271,347.877 351.552,349.282C348.656,349.758 345.273,349.121 342.644,347.804C342.457,347.71 342.344,348.008 342.524,348.103C345.302,349.566 348.581,350.121 351.661,349.827C351.96,351.337 352.245,352.85 352.526,354.362C349.707,355.187 346.912,354.483 344.321,353.155L344.266,353.261C346.639,354.594 349.895,355.894 352.629,354.916C352.719,355.399 352.808,355.882 352.897,356.365C352.951,356.656 353.004,356.953 353.056,357.252C350.799,357.592 348.625,357.737 346.364,357.162L346.343,357.26C348.552,357.937 350.855,358.014 353.133,357.699C353.289,358.613 353.444,359.557 353.609,360.514C353.011,360.514 352.417,360.484 351.804,360.573C350.679,360.737 349.748,360.409 348.647,360.293C348.547,360.282 348.51,360.435 348.613,360.449C349.597,360.591 350.422,360.978 351.435,360.901C352.184,360.845 352.927,360.871 353.67,360.857C354.335,364.65 355.203,368.607 357.145,371.643C357.575,372.315 358.868,371.945 358.698,371.095C358.178,368.482 356.981,365.989 356.133,363.467Z" style="fill:rgb(114,121,186);fill-rule:nonzero;"/>
        </g>
        <g transform="matrix(4.16667,0,0,4.16667,0,0)">
            <path d="M377.417,328.42C377.882,338.93 382.802,355.787 370.269,361.821C366.893,363.446 362.833,361.848 360.05,359.544C356.408,356.529 353.781,348.863 352.697,344.373C351.838,340.814 352.048,336.551 351.533,332.872C350.977,328.898 350.34,324.936 349.814,320.957C347.921,306.619 352.247,293.107 362.797,283.045C364.904,287.376 368.055,290.697 371.077,294.604C372.456,296.384 373.776,298.296 374.875,300.249C376.82,303.709 376.551,307.77 376.546,311.555C376.54,317.151 377.169,322.824 377.417,328.42Z" style="fill:url(#_Linear9);"/>
        </g>
        <g transform="matrix(4.16667,0,0,4.16667,0,0)">
            <path d="M368.117,362.723C367.999,361.861 367.891,360.997 367.789,360.132C369.368,359.729 370.785,358.416 371.937,357.395C373.935,355.622 375.366,353.443 376.711,351.16C376.782,351.038 376.58,350.922 376.499,351.034C375.08,353.002 373.583,354.939 371.692,356.48C370.638,357.339 369.121,358.69 367.692,359.239C367.578,358.204 367.479,357.168 367.394,356.13C368.986,355.514 370.22,354.053 371.403,352.875C373.414,350.873 374.991,348.542 376.657,346.26L376.618,346.229C373.983,349.388 371.231,353.632 367.335,355.394C367.235,354.092 367.15,352.789 367.1,351.486L367.093,351.282C371.515,348.894 373.773,344.381 376.634,340.473L376.542,340.389C373.679,344.055 371.13,348.058 367.066,350.513C367.001,348.647 366.952,346.783 366.907,344.921C370.783,342.265 373.563,338.897 375.669,334.654L375.562,334.592C373.283,338.592 370.345,341.3 366.887,344.122C366.842,342.278 366.793,340.436 366.723,338.594C368.342,337.217 370.146,336.172 371.553,334.545C372.939,332.94 374.096,331.151 374.736,329.122C374.771,329.016 374.61,328.963 374.571,329.067C373.049,333.109 369.713,335.091 366.686,337.779C366.613,336.064 366.517,334.349 366.385,332.634C369.728,329.515 373.446,326.467 374.611,321.813L374.541,321.788C373.161,326.142 369.496,328.792 366.315,331.777C366.29,331.472 366.27,331.167 366.241,330.861C366.094,329.277 365.931,327.694 365.764,326.112C367.77,324.654 369.577,322.856 371.255,321.041C372.445,319.753 373.735,318.448 374.3,316.756C374.335,316.649 374.177,316.589 374.137,316.694C372.809,320.204 368.683,323.082 365.691,325.426C365.521,323.828 365.348,322.231 365.178,320.635C368.344,317.428 372.426,315.065 373.696,310.407C373.733,310.269 373.528,310.202 373.482,310.34C372.041,314.664 368.137,316.873 365.098,319.889C364.994,318.898 364.893,317.908 364.796,316.917C368.457,314.414 372.297,309.848 373.504,305.661C373.57,305.431 373.232,305.317 373.149,305.543C371.788,309.294 368.306,313.875 364.723,316.129C364.57,314.522 364.43,312.915 364.315,311.305L364.341,311.152C366.019,310.161 367.487,308.431 368.808,307.07C370.4,305.43 371.858,303.622 372.549,301.413C372.625,301.169 372.231,301.061 372.165,301.308C371.181,304.961 367.468,308.181 364.253,310.294C364.215,309.705 364.174,309.117 364.144,308.527C364.098,307.646 364.057,306.764 364.017,305.882C365.207,304.521 366.918,303.582 368.101,302.164C369.128,300.932 369.949,299.553 370.746,298.164C370.825,298.026 370.623,297.895 370.536,298.03C369.422,299.773 368.252,301.471 366.714,302.873C365.854,303.656 364.796,304.247 363.98,305.073C363.916,303.631 363.85,302.188 363.771,300.748L363.819,300.724L363.874,300.721C363.979,300.715 364.049,300.66 364.092,300.588C365.928,299.598 367.002,297.529 367.956,295.758L367.893,295.72C366.832,297.348 365.619,299.159 363.905,300.177L363.884,300.174L363.737,300.188C363.67,299.016 363.591,297.845 363.494,296.676C363.63,296.614 363.723,296.462 363.653,296.329C364.517,295.368 365.237,294.24 365.903,293.146L365.778,293.063C365.058,294.091 364.313,294.976 363.422,295.813C363.202,293.402 362.897,291 362.432,288.613C362.389,288.393 362.059,288.474 362.094,288.692C362.461,291.011 362.698,293.337 362.873,295.668C361.433,294.522 359.859,293.365 358.787,291.907L358.659,291.982C359.237,292.91 360.019,293.651 360.797,294.409C361.494,295.087 362.126,295.922 362.936,296.476C363.021,297.729 363.087,298.984 363.143,300.24C361.773,300.361 360.505,300.417 359.178,299.739C357.555,298.91 356.397,297.516 355.822,295.791C355.751,295.58 355.41,295.667 355.485,295.878C356.048,297.475 357.087,298.849 358.513,299.784C360.014,300.769 361.497,300.829 363.164,300.757C363.224,302.208 363.274,303.66 363.319,305.113C361.943,304.699 360.597,304.043 359.304,303.457C357.216,302.511 355.769,301.104 353.866,299.926C353.676,299.808 353.486,300.096 353.676,300.217C355.469,301.362 356.835,302.748 358.785,303.691C360.188,304.371 361.773,305.267 363.335,305.637L363.343,305.866L363.307,305.917C363.227,306.047 363.269,306.163 363.354,306.232C363.396,307.624 363.44,309.017 363.496,310.407L363.51,310.668C360.08,310.038 354.869,308.754 353.562,305.291C353.437,304.962 352.954,305.184 353.12,305.511C355.049,309.317 359.937,309.984 363.548,311.413C363.624,312.982 363.726,314.551 363.853,316.117C361.694,315.936 359.593,315.567 357.592,314.663C355.771,313.841 353.259,312.929 352.104,311.233L352.025,311.293C353.127,312.99 355.373,313.78 357.093,314.692C359.276,315.852 361.438,316.757 363.885,316.822L363.93,317.024C364.015,318.017 364.104,319.008 364.198,319.999C360.394,320.655 354.454,319.141 351.833,316.799L351.817,316.818C353.663,318.644 355.948,319.406 358.441,319.938C360.305,320.336 362.339,320.85 364.248,320.515C364.426,322.349 364.613,324.183 364.797,326.017C363.024,325.822 361.236,325.966 359.472,325.729C356.848,325.378 354.596,324.125 352.66,322.373C352.544,322.268 352.359,322.428 352.476,322.54C356.099,325.995 360.12,326.261 364.864,326.699C365.014,328.204 365.153,329.71 365.279,331.217C361.542,331.435 356.382,330.424 353.797,327.783C353.607,327.59 353.293,327.87 353.482,328.066C355.124,329.762 357.403,330.521 359.661,331.025C361.287,331.39 363.578,332.095 365.328,331.79L365.341,331.938C365.515,334.109 365.627,336.284 365.704,338.461C361.47,338.466 358.15,336.166 354.559,334.137C354.31,333.996 354.068,334.368 354.318,334.515C358,336.671 361.358,339.061 365.727,339.099C365.783,340.871 365.816,342.645 365.832,344.419C362.202,344.327 358.236,342.77 355.345,340.559C355.14,340.402 354.934,340.737 355.131,340.895C358.169,343.317 362.027,344.751 365.84,345.106C365.853,347.012 365.85,348.916 365.841,350.82C362.223,351.17 358.988,349.667 356.146,347.453L356.053,347.568C358.629,349.739 362.287,352.073 365.838,351.518C365.835,352.125 365.832,352.733 365.828,353.341C365.826,353.707 365.821,354.08 365.815,354.456C362.993,354.347 360.316,354.02 357.701,352.797L357.652,352.911C360.182,354.245 362.965,354.872 365.806,355.018C365.784,356.165 365.755,357.348 365.734,358.549C365.006,358.41 364.29,358.237 363.524,358.204C362.118,358.143 361.063,357.528 359.753,357.132C359.633,357.096 359.553,357.272 359.675,357.314C360.838,357.714 361.751,358.375 362.999,358.517C363.924,358.621 364.821,358.825 365.728,358.98C365.657,363.747 365.798,368.758 367.455,372.897C367.822,373.815 369.479,373.664 369.471,372.591C369.442,369.295 368.564,365.986 368.117,362.723Z" style="fill:rgb(114,121,186);fill-rule:nonzero;"/>
        </g>
        <g transform="matrix(4.16667,0,0,4.16667,0,0)">
            <path d="M384.335,366.66L383.871,375.203L383.145,388.506L381.955,410.363L352.363,410.363L351.174,388.506L350.447,375.203L349.983,366.66L384.335,366.66Z" style="fill:rgb(148,167,180);fill-rule:nonzero;"/>
        </g>
        <g transform="matrix(4.16667,0,0,4.16667,0,0)">
            <path d="M383.871,375.203L383.775,376.916L383.681,378.689L383.145,388.506L351.174,388.506L350.638,378.689L350.543,376.916L350.447,375.203L383.871,375.203Z" style="fill:rgb(165,184,198);fill-rule:nonzero;"/>
        </g>
        <g transform="matrix(4.16667,0,0,4.16667,0,0)">
            <path d="M383.775,376.916L383.681,378.689L350.638,378.689L350.543,376.916L383.775,376.916Z" style="fill:rgb(148,167,180);fill-rule:nonzero;"/>
        </g>
    </g>
    <defs>
        <radialGradient id="_Radial1" cx="0" cy="0" r="1" gradientUnits="userSpaceOnUse" gradientTransform="matrix(12.9255,0,0,12.9255,277.52,192.379)"><stop offset="0" style="stop-color:rgb(251,199,176);stop-opacity:1"/><stop offset="1" style="stop-color:rgb(250,185,156);stop-opacity:1"/></radialGradient>
        <radialGradient id="_Radial2" cx="0" cy="0" r="1" gradientUnits="userSpaceOnUse" gradientTransform="matrix(19.9211,-4.28947,4.28947,19.9211,270.042,168.983)"><stop offset="0" style="stop-color:rgb(251,199,176);stop-opacity:1"/><stop offset="1" style="stop-color:rgb(250,185,156);stop-opacity:1"/></radialGradient>
        <radialGradient id="_Radial3" cx="0" cy="0" r="1" gradientUnits="userSpaceOnUse" gradientTransform="matrix(8.12587,0,0,8.12587,249.963,387.548)"><stop offset="0" style="stop-color:rgb(251,199,176);stop-opacity:1"/><stop offset="1" style="stop-color:rgb(250,185,156);stop-opacity:1"/></radialGradient>
        <radialGradient id="_Radial4" cx="0" cy="0" r="1" gradientUnits="userSpaceOnUse" gradientTransform="matrix(7.40153,0,0,7.40153,198.499,389.586)"><stop offset="0" style="stop-color:rgb(251,199,176);stop-opacity:1"/><stop offset="1" style="stop-color:rgb(250,185,156);stop-opacity:1"/></radialGradient>
        <radialGradient id="_Radial5" cx="0" cy="0" r="1" gradientUnits="userSpaceOnUse" gradientTransform="matrix(40.9202,6.56975,-6.56975,40.9202,243.561,250.697)"><stop offset="0" style="stop-color:rgb(251,199,176);stop-opacity:1"/><stop offset="1" style="stop-color:rgb(250,185,156);stop-opacity:1"/></radialGradient>
        <radialGradient id="_Radial6" cx="0" cy="0" r="1" gradientUnits="userSpaceOnUse" gradientTransform="matrix(40.9199,6.56972,-6.56972,40.9199,243.561,250.697)"><stop offset="0" style="stop-color:rgb(251,199,176);stop-opacity:1"/><stop offset="1" style="stop-color:rgb(250,185,156);stop-opacity:1"/></radialGradient>
        <linearGradient id="_Linear7" x1="0" y1="0" x2="1" y2="0" gradientUnits="userSpaceOnUse" gradientTransform="matrix(0.00271745,63.3004,-63.3004,0.00271745,383.869,298.773)"><stop offset="0" style="stop-color:rgb(94,106,177);stop-opacity:1"/><stop offset="1" style="stop-color:rgb(88,72,157);stop-opacity:1"/></linearGradient>
        <linearGradient id="_Linear8" x1="0" y1="0" x2="1" y2="0" gradientUnits="userSpaceOnUse" gradientTransform="matrix(26.7194,57.3847,-57.3847,26.7194,333.66,303.912)"><stop offset="0" style="stop-color:rgb(94,106,177);stop-opacity:1"/><stop offset="1" style="stop-color:rgb(88,72,157);stop-opacity:1"/></linearGradient>
        <linearGradient id="_Linear9" x1="0" y1="0" x2="1" y2="0" gradientUnits="userSpaceOnUse" gradientTransform="matrix(19.1938,75.9499,-75.9499,19.1938,354.588,285.12)"><stop offset="0" style="stop-color:rgb(94,106,177);stop-opacity:1"/><stop offset="1" style="stop-color:rgb(88,72,157);stop-opacity:1"/></linearGradient>
    </defs>
</svg>
