<?xml version="1.0" encoding="UTF-8" standalone="no"?>
<!DOCTYPE svg PUBLIC "-//W3C//DTD SVG 1.1//EN" "http://www.w3.org/Graphics/SVG/1.1/DTD/svg11.dtd">
<svg width="100%" height="100%" viewBox="0 0 1555 1542" version="1.1" xmlns="http://www.w3.org/2000/svg" xmlns:xlink="http://www.w3.org/1999/xlink" xml:space="preserve" xmlns:serif="http://www.serif.com/" style="fill-rule:evenodd;clip-rule:evenodd;stroke-linejoin:round;stroke-miterlimit:2;">
    <g transform="matrix(1,0,0,1,-79.1458,-145.325)">
        <g transform="matrix(4.16667,0,0,4.16667,0,0)">
            <path d="M150.625,351.182L150.625,40.658C150.625,40.383 150.402,40.159 150.126,40.159C149.85,40.159 149.627,40.383 149.627,40.658L149.627,351.182C149.627,351.458 149.85,351.682 150.126,351.682C150.402,351.682 150.625,351.458 150.625,351.182Z" style="fill:rgb(170,225,250);fill-rule:nonzero;"/>
        </g>
        <g transform="matrix(4.16667,0,0,4.16667,0,0)">
            <path d="M73.097,270.319L73.097,104.188C73.097,103.912 72.874,103.689 72.598,103.689C72.322,103.689 72.099,103.912 72.099,104.188L72.099,270.319C72.099,270.595 72.322,270.818 72.598,270.818C72.874,270.818 73.097,270.595 73.097,270.319Z" style="fill:rgb(170,225,250);fill-rule:nonzero;"/>
        </g>
        <g transform="matrix(4.16667,0,0,4.16667,0,0)">
            <path d="M168.04,309.688L168.04,63.214C168.04,62.938 167.817,62.715 167.541,62.715C167.265,62.715 167.042,62.938 167.042,63.214L167.042,309.688C167.042,309.964 167.265,310.187 167.541,310.187C167.817,310.187 168.04,309.964 168.04,309.688Z" style="fill:rgb(170,225,250);fill-rule:nonzero;"/>
        </g>
        <g transform="matrix(4.16667,0,0,4.16667,0,0)">
            <path d="M242.115,309.688L242.115,65.855C242.115,65.579 241.892,65.355 241.616,65.355C241.341,65.355 241.117,65.579 241.117,65.855L241.117,309.688C241.117,309.964 241.341,310.187 241.616,310.187C241.892,310.187 242.115,309.964 242.115,309.688Z" style="fill:rgb(170,225,250);fill-rule:nonzero;"/>
        </g>
        <g transform="matrix(4.16667,0,0,4.16667,0,0)">
            <path d="M314.166,356.961L314.166,71.632C314.166,71.356 313.943,71.133 313.667,71.133C313.391,71.133 313.168,71.356 313.168,71.632L313.168,356.961C313.168,357.236 313.391,357.46 313.667,357.46C313.943,357.46 314.166,357.236 314.166,356.961Z" style="fill:rgb(170,225,250);fill-rule:nonzero;"/>
        </g>
        <g transform="matrix(4.16667,0,0,4.16667,0,0)">
            <path d="M75.738,101.548L74.74,101.548C74.737,102.73 73.78,103.687 72.598,103.689C71.415,103.687 70.459,102.73 70.457,101.548C70.459,100.366 71.415,99.409 72.598,99.407C73.78,99.409 74.737,100.366 74.74,101.548L75.738,101.548C75.738,99.814 74.332,98.409 72.598,98.408C70.863,98.408 69.459,99.814 69.458,101.548C69.459,103.282 70.863,104.687 72.598,104.687C74.332,104.687 75.738,103.282 75.738,101.548Z" style="fill:rgb(170,225,250);fill-rule:nonzero;"/>
        </g>
        <g transform="matrix(4.16667,0,0,4.16667,0,0)">
            <path d="M153.265,38.018L152.266,38.018C152.264,39.2 151.308,40.157 150.126,40.159C148.943,40.157 147.987,39.2 147.985,38.018C147.987,36.835 148.943,35.878 150.126,35.876C151.308,35.878 152.264,36.835 152.266,38.018L153.265,38.018C153.265,36.284 151.86,34.878 150.126,34.878C148.391,34.878 146.986,36.284 146.986,38.018C146.986,39.752 148.391,41.157 150.126,41.158C151.86,41.157 153.265,39.752 153.265,38.018Z" style="fill:rgb(170,225,250);fill-rule:nonzero;"/>
        </g>
        <g transform="matrix(4.16667,0,0,4.16667,0,0)">
            <path d="M170.68,60.573L169.681,60.573C169.679,61.756 168.723,62.713 167.541,62.715C166.358,62.713 165.402,61.756 165.4,60.573C165.402,59.391 166.358,58.434 167.541,58.432C168.723,58.434 169.679,59.391 169.681,60.573L170.68,60.573C170.68,58.839 169.275,57.434 167.541,57.434C165.806,57.434 164.401,58.839 164.401,60.573C164.401,62.308 165.806,63.713 167.541,63.713C169.275,63.713 170.68,62.308 170.68,60.573Z" style="fill:rgb(170,225,250);fill-rule:nonzero;"/>
        </g>
        <g transform="matrix(4.16667,0,0,4.16667,0,0)">
            <path d="M316.807,68.495L315.808,68.495C315.806,69.677 314.849,70.634 313.667,70.636C312.485,70.634 311.528,69.677 311.526,68.495C311.528,67.313 312.485,66.356 313.667,66.354C314.849,66.356 315.806,67.313 315.808,68.495L316.807,68.495C316.806,66.761 315.401,65.356 313.667,65.355C311.933,65.356 310.527,66.761 310.527,68.495C310.528,70.229 311.933,71.634 313.667,71.635C315.401,71.634 316.806,70.229 316.807,68.495Z" style="fill:rgb(170,225,250);fill-rule:nonzero;"/>
        </g>
        <g transform="matrix(4.16667,0,0,4.16667,0,0)">
            <path d="M348.185,198.088L348.185,90.688C348.185,90.412 347.961,90.188 347.686,90.188C347.41,90.188 347.186,90.412 347.186,90.688L347.186,198.088C347.186,198.364 347.41,198.587 347.686,198.587C347.961,198.587 348.185,198.364 348.185,198.088Z" style="fill:rgb(170,225,250);fill-rule:nonzero;"/>
        </g>
        <g transform="matrix(4.16667,0,0,4.16667,0,0)">
            <path d="M350.825,87.641L349.827,87.641C349.825,88.824 348.868,89.781 347.686,89.783C346.503,89.781 345.546,88.824 345.544,87.641C345.546,86.459 346.503,85.502 347.686,85.5C348.868,85.502 349.825,86.459 349.827,87.641L350.825,87.641C350.825,85.907 349.419,84.502 347.686,84.501C345.952,84.502 344.546,85.907 344.546,87.641C344.546,89.376 345.952,90.781 347.686,90.781C349.419,90.781 350.825,89.376 350.825,87.641Z" style="fill:rgb(170,225,250);fill-rule:nonzero;"/>
        </g>
        <g transform="matrix(4.16667,0,0,4.16667,0,0)">
            <path d="M389.474,309.587L389.474,160.483C389.474,160.207 389.25,159.984 388.975,159.984C388.699,159.984 388.475,160.207 388.475,160.483L388.475,309.587C388.475,309.862 388.699,310.086 388.975,310.086C389.25,310.086 389.474,309.862 389.474,309.587Z" style="fill:rgb(170,225,250);fill-rule:nonzero;"/>
        </g>
        <g transform="matrix(4.16667,0,0,4.16667,0,0)">
            <path d="M392.114,157.437L391.116,157.437C391.114,158.619 390.157,159.576 388.975,159.578C387.791,159.576 386.835,158.619 386.833,157.437C386.835,156.254 387.791,155.298 388.975,155.296C390.157,155.298 391.114,156.255 391.116,157.437L392.114,157.437C392.114,155.703 390.708,154.298 388.975,154.297C387.24,154.298 385.835,155.703 385.835,157.437C385.835,159.171 387.24,160.576 388.975,160.577C390.708,160.576 392.114,159.171 392.114,157.437Z" style="fill:rgb(170,225,250);fill-rule:nonzero;"/>
        </g>
        <g transform="matrix(4.16667,0,0,4.16667,0,0)">
            <path d="M34.913,302.507L34.913,153.404C34.913,153.128 34.689,152.905 34.414,152.905C34.138,152.905 33.914,153.128 33.914,153.404L33.914,302.507C33.914,302.782 34.138,303.006 34.414,303.006C34.689,303.006 34.913,302.782 34.913,302.507Z" style="fill:rgb(170,225,250);fill-rule:nonzero;"/>
        </g>
        <g transform="matrix(4.16667,0,0,4.16667,0,0)">
            <path d="M37.553,150.358L36.555,150.358C36.553,151.54 35.597,152.497 34.414,152.499C33.232,152.497 32.274,151.54 32.272,150.358C32.274,149.175 33.232,148.218 34.414,148.216C35.597,148.218 36.553,149.175 36.555,150.358L37.553,150.358C37.553,148.623 36.148,147.218 34.414,147.218C32.68,147.218 31.274,148.623 31.274,150.358C31.274,152.092 32.68,153.497 34.414,153.497C36.148,153.497 37.553,152.092 37.553,150.358Z" style="fill:rgb(170,225,250);fill-rule:nonzero;"/>
        </g>
        <g transform="matrix(4.16667,0,0,4.16667,0,0)">
            <path d="M244.756,63.214L243.758,63.214C243.755,64.397 242.799,65.353 241.616,65.355C240.434,65.353 239.477,64.397 239.475,63.214C239.477,62.032 240.434,61.075 241.616,61.073C242.799,61.075 243.755,62.031 243.758,63.214L244.756,63.214C244.756,61.48 243.351,60.074 241.616,60.074C239.882,60.075 238.477,61.48 238.476,63.214C238.477,64.949 239.882,66.354 241.616,66.354C243.351,66.354 244.756,64.948 244.756,63.214Z" style="fill:rgb(170,225,250);fill-rule:nonzero;"/>
        </g>
        <g transform="matrix(4.16667,0,0,4.16667,0,0)">
            <path d="M281.454,240.47L281.405,239.974C279.772,240.135 278.155,240.214 276.556,240.214C263.438,240.214 251.567,234.899 242.97,226.302C234.373,217.705 229.058,205.834 229.058,192.716C229.058,191.117 229.137,189.499 229.299,187.867C231.497,165.645 249.486,147.656 271.708,145.459C273.34,145.297 274.958,145.218 276.556,145.218C289.674,145.219 301.545,150.534 310.142,159.13C318.738,167.727 324.053,179.598 324.053,192.716C324.053,194.315 323.974,195.932 323.813,197.564C321.616,219.786 303.627,237.775 281.405,239.974L281.454,240.47L281.503,240.967C304.207,238.715 322.556,220.366 324.806,197.662C324.971,195.997 325.052,194.347 325.052,192.716C325.051,165.932 303.34,144.22 276.556,144.22C274.925,144.22 273.275,144.3 271.61,144.465C248.906,146.716 230.558,165.065 228.305,187.768C228.14,189.434 228.059,191.084 228.059,192.716C228.06,219.5 249.772,241.212 276.556,241.213C278.188,241.213 279.838,241.132 281.503,240.967L281.454,240.47ZM372.713,207.937L373.711,207.937L373.711,177.496C373.711,174.487 371.376,171.995 368.374,171.799L354.882,170.918L354.85,171.416L355.331,171.285C353.497,164.524 350.813,158.118 347.405,152.175L346.972,152.424L347.347,152.753L356.272,142.581C357.219,141.502 357.69,140.156 357.689,138.817C357.69,137.354 357.127,135.89 356.017,134.78L334.492,113.255C333.382,112.145 331.918,111.582 330.455,111.583C329.115,111.582 327.769,112.053 326.69,113L316.518,121.925L316.848,122.3L317.096,121.867C311.155,118.459 304.748,115.775 297.986,113.94L297.855,114.422L298.354,114.39L297.473,100.898C297.277,97.896 294.785,95.562 291.776,95.562L261.334,95.562C258.327,95.562 255.835,97.896 255.639,100.898L254.758,114.39L255.256,114.422L255.125,113.94C248.365,115.775 241.957,118.459 236.015,121.867L236.264,122.3L236.593,121.925L226.421,113C225.342,112.053 223.996,111.582 222.657,111.583C221.193,111.582 219.729,112.145 218.62,113.255L197.094,134.78C195.984,135.89 195.422,137.354 195.422,138.817C195.422,140.156 195.892,141.502 196.84,142.581L205.764,152.753L206.14,152.424L205.707,152.175C202.299,158.118 199.614,164.524 197.78,171.285L198.262,171.416L198.229,170.918L184.737,171.799C181.735,171.995 179.401,174.487 179.401,177.496L179.401,207.937C179.401,210.946 181.735,213.437 184.737,213.634L198.229,214.514L198.262,214.016L197.78,214.147C199.614,220.908 202.299,227.315 205.707,233.257L206.14,233.009L205.764,232.679L196.84,242.851C195.892,243.93 195.422,245.276 195.422,246.615C195.422,248.078 195.984,249.542 197.094,250.653L218.62,272.178C219.729,273.288 221.193,273.851 222.657,273.85C223.996,273.85 225.342,273.38 226.421,272.433L236.593,263.508L236.264,263.133L236.015,263.566C241.957,266.973 248.364,269.658 255.125,271.492L255.256,271.01L254.758,271.043L255.639,284.535C255.835,287.537 258.327,289.871 261.334,289.871L291.776,289.871C294.785,289.871 297.277,287.537 297.473,284.535L298.354,271.043L297.855,271.01L297.986,271.492C304.748,269.658 311.155,266.973 317.096,263.566L316.848,263.133L316.518,263.508L326.69,272.433C327.769,273.38 329.115,273.851 330.454,273.85C331.918,273.851 333.382,273.288 334.492,272.178L356.017,250.653C357.127,249.543 357.69,248.078 357.689,246.615C357.69,245.276 357.219,243.93 356.272,242.851L347.347,232.679L346.972,233.009L347.405,233.257C350.813,227.315 353.497,220.908 355.331,214.147L354.85,214.016L354.882,214.514L368.374,213.634C371.376,213.437 373.711,210.946 373.711,207.937L372.713,207.937C372.713,210.419 370.786,212.476 368.309,212.637L354.461,213.541L354.368,213.886C352.556,220.562 349.905,226.891 346.539,232.76L346.361,233.07L355.521,243.51C356.304,244.402 356.69,245.508 356.691,246.615C356.69,247.825 356.229,249.029 355.311,249.947L333.786,271.472C332.868,272.389 331.665,272.851 330.454,272.852C329.347,272.851 328.241,272.465 327.349,271.682L316.909,262.523L316.599,262.7C310.73,266.065 304.403,268.717 297.725,270.529L297.38,270.622L296.476,284.47C296.315,286.947 294.258,288.873 291.776,288.873L261.334,288.873C258.853,288.873 256.795,286.947 256.635,284.47L255.731,270.622L255.387,270.529C248.71,268.717 242.381,266.065 236.512,262.7L236.203,262.523L225.762,271.682C224.87,272.465 223.764,272.851 222.657,272.852C221.446,272.851 220.243,272.389 219.326,271.472L197.8,249.947C196.883,249.029 196.421,247.825 196.42,246.615C196.421,245.508 196.807,244.402 197.59,243.51L206.75,233.07L206.573,232.76C203.207,226.891 200.555,220.562 198.743,213.886L198.65,213.541L184.802,212.637C182.326,212.475 180.399,210.419 180.4,207.937L180.4,177.496C180.399,175.013 182.326,172.957 184.802,172.796L198.65,171.891L198.743,171.547C200.555,164.87 203.207,158.542 206.573,152.672L206.75,152.362L197.59,141.923C196.807,141.03 196.421,139.925 196.42,138.817C196.421,137.607 196.883,136.403 197.8,135.486L219.326,113.961C220.243,113.043 221.446,112.582 222.657,112.581C223.764,112.582 224.87,112.968 225.762,113.751L236.203,122.911L236.512,122.733C242.381,119.367 248.71,116.716 255.387,114.904L255.731,114.81L256.635,100.963C256.795,98.487 258.853,96.56 261.334,96.56L291.776,96.56C294.258,96.56 296.315,98.487 296.476,100.963L297.38,114.81L297.725,114.904C304.403,116.716 310.73,119.367 316.599,122.733L316.909,122.911L327.349,113.751C328.241,112.968 329.347,112.582 330.455,112.581C331.665,112.582 332.868,113.044 333.786,113.961L355.311,135.486C356.228,136.403 356.69,137.607 356.691,138.817C356.69,139.925 356.304,141.03 355.521,141.923L346.361,152.362L346.539,152.672C349.906,158.542 352.556,164.87 354.368,171.547L354.461,171.891L368.309,172.796C370.786,172.957 372.713,175.013 372.713,177.496L372.713,207.937Z" style="fill:rgb(126,179,201);fill-rule:nonzero;"/>
        </g>
        <g transform="matrix(4.16667,0,0,4.16667,0,0)">
            <path d="M113.537,268.161L113.488,267.664C112.378,267.774 111.278,267.828 110.192,267.828C101.276,267.827 93.208,264.215 87.365,258.373C81.522,252.529 77.91,244.462 77.91,235.546C77.91,234.46 77.964,233.36 78.074,232.25C79.566,217.15 91.796,204.921 106.897,203.429C108.006,203.319 109.105,203.265 110.192,203.265C119.108,203.265 127.175,206.877 133.018,212.72C138.861,218.563 142.473,226.63 142.473,235.546C142.473,236.633 142.42,237.732 142.31,238.841C140.817,253.942 128.589,266.171 113.488,267.664L113.537,268.161L113.586,268.658C129.169,267.111 141.757,254.522 143.303,238.94C143.416,237.797 143.472,236.666 143.472,235.546C143.471,217.166 128.572,202.267 110.192,202.267C109.073,202.267 107.941,202.322 106.798,202.435C91.215,203.981 78.626,216.569 77.08,232.152C76.967,233.294 76.911,234.427 76.911,235.546C76.912,253.926 91.811,268.826 110.192,268.826C111.311,268.826 112.444,268.771 113.586,268.658L113.537,268.161ZM175.706,245.942L176.704,245.942L176.704,225.151C176.704,223.013 175.045,221.243 172.911,221.103L163.697,220.501L163.664,220.999L164.146,220.868C162.889,216.237 161.051,211.849 158.717,207.779L158.284,208.028L158.659,208.357L164.754,201.41C165.427,200.643 165.762,199.686 165.761,198.735C165.762,197.695 165.362,196.654 164.574,195.866L149.872,181.165C149.084,180.376 148.043,179.976 147.003,179.976C146.052,179.976 145.094,180.311 144.328,180.984L137.381,187.079L137.71,187.454L137.958,187.021C133.889,184.687 129.501,182.849 124.87,181.592L124.739,182.073L125.237,182.041L124.636,172.827C124.495,170.693 122.725,169.034 120.587,169.034L99.796,169.034C97.658,169.034 95.887,170.693 95.747,172.827L95.146,182.041L95.644,182.073L95.513,181.592C90.883,182.849 86.494,184.687 82.424,187.021L82.672,187.454L83.002,187.079L76.055,180.984C75.288,180.311 74.331,179.976 73.38,179.976C72.34,179.976 71.299,180.376 70.511,181.165L55.81,195.865C55.021,196.654 54.62,197.695 54.621,198.735C54.621,199.686 54.955,200.643 55.628,201.41L61.724,208.357L62.099,208.028L61.666,207.779C59.332,211.849 57.494,216.237 56.237,220.868L56.718,220.999L56.686,220.501L47.472,221.103C45.338,221.243 43.679,223.013 43.679,225.151L43.679,245.942C43.679,248.079 45.338,249.851 47.472,249.99L56.686,250.592L56.718,250.094L56.237,250.224C57.494,254.855 59.332,259.243 61.666,263.313L62.099,263.065L61.724,262.736L55.628,269.682C54.955,270.449 54.621,271.406 54.621,272.358C54.62,273.397 55.021,274.439 55.81,275.227L70.511,289.928C71.299,290.717 72.34,291.117 73.38,291.117C74.331,291.117 75.288,290.782 76.055,290.11L83.002,284.014L82.672,283.638L82.424,284.071C86.494,286.406 90.883,288.244 95.513,289.501L95.644,289.019L95.146,289.052L95.747,298.266C95.887,300.399 97.658,302.058 99.796,302.059L120.587,302.059C122.725,302.058 124.495,300.399 124.636,298.266L125.237,289.052L124.739,289.019L124.87,289.501C129.501,288.244 133.889,286.406 137.958,284.071L137.71,283.638L137.381,284.014L144.328,290.109C145.094,290.782 146.051,291.117 147.003,291.117C148.043,291.117 149.084,290.717 149.872,289.928L164.574,275.227C165.362,274.439 165.762,273.398 165.761,272.358C165.762,271.407 165.427,270.449 164.754,269.682L158.659,262.736L158.284,263.065L158.717,263.313C161.051,259.243 162.889,254.855 164.146,250.224L163.664,250.094L163.697,250.592L172.911,249.99C175.045,249.851 176.704,248.079 176.704,245.942L175.706,245.942C175.706,247.553 174.455,248.889 172.846,248.994L163.276,249.618L163.182,249.963C161.949,254.51 160.144,258.819 157.851,262.817L157.674,263.126L164.004,270.341C164.512,270.921 164.763,271.639 164.763,272.358C164.763,273.144 164.463,273.925 163.868,274.521L149.166,289.222C148.57,289.818 147.789,290.118 147.003,290.118C146.283,290.118 145.566,289.867 144.986,289.359L137.771,283.028L137.462,283.205C133.465,285.498 129.156,287.303 124.608,288.537L124.264,288.631L123.64,298.201C123.534,299.809 122.199,301.06 120.587,301.06L99.796,301.06C98.185,301.06 96.848,299.809 96.744,298.201L96.119,288.631L95.775,288.537C91.228,287.303 86.919,285.498 82.921,283.205L82.611,283.028L75.397,289.359C74.817,289.867 74.099,290.118 73.38,290.118C72.593,290.118 71.813,289.818 71.217,289.222L56.516,274.521C55.919,273.925 55.62,273.144 55.619,272.358C55.62,271.638 55.87,270.921 56.379,270.341L62.71,263.126L62.532,262.817C60.24,258.819 58.435,254.51 57.2,249.963L57.107,249.618L47.537,248.994C45.929,248.889 44.677,247.553 44.678,245.942L44.678,225.151C44.677,223.539 45.928,222.204 47.537,222.099L57.107,221.474L57.2,221.13C58.435,216.582 60.24,212.273 62.532,208.276L62.71,207.966L56.379,200.751C55.87,200.172 55.62,199.455 55.619,198.735C55.62,197.949 55.919,197.168 56.516,196.571L71.217,181.871C71.813,181.275 72.593,180.975 73.38,180.975C74.099,180.975 74.816,181.226 75.397,181.734L82.611,188.065L82.921,187.887C86.919,185.595 91.228,183.79 95.775,182.555L96.119,182.462L96.744,172.892C96.848,171.284 98.185,170.032 99.796,170.033L120.587,170.033C122.199,170.032 123.534,171.284 123.64,172.892L124.264,182.462L124.608,182.555C129.156,183.79 133.465,185.595 137.462,187.887L137.771,188.065L144.986,181.734C145.566,181.226 146.284,180.975 147.003,180.975C147.789,180.975 148.57,181.275 149.166,181.871L163.868,196.571C164.463,197.167 164.763,197.948 164.763,198.735C164.763,199.454 164.512,200.172 164.004,200.752L157.674,207.966L157.851,208.276C160.144,212.273 161.949,216.582 163.182,221.129L163.276,221.474L172.846,222.099C174.455,222.204 175.706,223.539 175.706,225.151L175.706,245.942Z" style="fill:rgb(126,179,201);fill-rule:nonzero;"/>
        </g>
        <g transform="matrix(4.16667,0,0,4.16667,0,0)">
            <path d="M379.656,404.877L34.414,404.877L101.644,352.514L312.427,352.514L379.656,404.877Z" style="fill:rgb(203,227,237);fill-rule:nonzero;"/>
        </g>
        <g transform="matrix(4.16667,0,0,4.16667,0,0)">
            <rect x="101.644" y="198.088" width="210.783" height="122.476" style="fill:rgb(147,195,233);fill-rule:nonzero;"/>
        </g>
        <g transform="matrix(4.16667,0,0,4.16667,0,0)">
            <rect x="107.856" y="201.698" width="198.359" height="115.256" style="fill:rgb(76,108,130);fill-rule:nonzero;"/>
        </g>
        <g transform="matrix(4.16667,0,0,4.16667,0,0)">
            <path d="M164.584,226.766L120.097,226.766C119.187,226.766 118.442,226.022 118.442,225.112C118.442,224.202 119.187,223.458 120.097,223.458L164.584,223.458C165.494,223.458 166.238,224.202 166.238,225.112C166.238,226.022 165.494,226.766 164.584,226.766Z" style="fill:rgb(113,197,152);fill-rule:nonzero;"/>
        </g>
        <g transform="matrix(4.16667,0,0,4.16667,0,0)">
            <path d="M216.919,226.766L172.432,226.766C171.522,226.766 170.777,226.022 170.777,225.112C170.777,224.202 171.522,223.458 172.432,223.458L216.919,223.458C217.829,223.458 218.573,224.202 218.573,225.112C218.573,226.022 217.829,226.766 216.919,226.766Z" style="fill:rgb(113,197,152);fill-rule:nonzero;"/>
        </g>
        <g transform="matrix(4.16667,0,0,4.16667,0,0)">
            <path d="M237.97,226.766L225.766,226.766C224.856,226.766 224.111,226.022 224.111,225.112C224.111,224.202 224.856,223.458 225.766,223.458L237.97,223.458C238.88,223.458 239.624,224.202 239.624,225.112C239.624,226.022 238.88,226.766 237.97,226.766Z" style="fill:rgb(121,163,214);fill-rule:nonzero;"/>
        </g>
        <g transform="matrix(4.16667,0,0,4.16667,0,0)">
            <path d="M178.867,258.069L120.097,258.069C119.187,258.069 118.442,257.325 118.442,256.415C118.442,255.506 119.187,254.761 120.097,254.761L178.867,254.761C179.777,254.761 180.521,255.506 180.521,256.415C180.521,257.325 179.777,258.069 178.867,258.069Z" style="fill:rgb(113,197,152);fill-rule:nonzero;"/>
        </g>
        <g transform="matrix(4.16667,0,0,4.16667,0,0)">
            <path d="M222.91,258.069L187.861,258.069C186.951,258.069 186.207,257.325 186.207,256.415C186.207,255.506 186.951,254.761 187.861,254.761L222.91,254.761C223.819,254.761 224.564,255.506 224.564,256.415C224.564,257.325 223.819,258.069 222.91,258.069Z" style="fill:rgb(121,163,214);fill-rule:nonzero;"/>
        </g>
        <g transform="matrix(4.16667,0,0,4.16667,0,0)">
            <path d="M141.593,237.2L120.097,237.2C119.187,237.2 118.442,236.456 118.442,235.547C118.442,234.636 119.187,233.892 120.097,233.892L141.593,233.892C142.502,233.892 143.246,234.636 143.246,235.547C143.246,236.456 142.502,237.2 141.593,237.2Z" style="fill:rgb(121,163,214);fill-rule:nonzero;"/>
        </g>
        <g transform="matrix(4.16667,0,0,4.16667,0,0)">
            <path d="M185.635,237.2L147.628,237.2C146.719,237.2 145.974,236.456 145.974,235.547C145.974,234.636 146.719,233.892 147.628,233.892L185.635,233.892C186.545,233.892 187.289,234.636 187.289,235.547C187.289,236.456 186.545,237.2 185.635,237.2Z" style="fill:rgb(113,197,152);fill-rule:nonzero;"/>
        </g>
        <g transform="matrix(4.16667,0,0,4.16667,0,0)">
            <path d="M159.286,216.332L120.097,216.332C119.187,216.332 118.442,215.587 118.442,214.677C118.442,213.768 119.187,213.024 120.097,213.024L159.286,213.024C160.195,213.024 160.94,213.768 160.94,214.677C160.94,215.587 160.195,216.332 159.286,216.332Z" style="fill:rgb(113,197,152);fill-rule:nonzero;"/>
        </g>
        <g transform="matrix(4.16667,0,0,4.16667,0,0)">
            <path d="M258.853,216.332L167.527,216.332C166.617,216.332 165.873,215.587 165.873,214.677C165.873,213.768 166.617,213.024 167.527,213.024L258.853,213.024C259.764,213.024 260.508,213.768 260.508,214.677C260.508,215.587 259.764,216.332 258.853,216.332Z" style="fill:rgb(121,163,214);fill-rule:nonzero;"/>
        </g>
        <g transform="matrix(4.16667,0,0,4.16667,0,0)">
            <path d="M237.97,247.634L218.48,247.634C217.57,247.634 216.826,246.89 216.826,245.981C216.826,245.071 217.57,244.327 218.48,244.327L237.97,244.327C238.88,244.327 239.624,245.071 239.624,245.981C239.624,246.89 238.88,247.634 237.97,247.634Z" style="fill:rgb(121,163,214);fill-rule:nonzero;"/>
        </g>
        <g transform="matrix(4.16667,0,0,4.16667,0,0)">
            <path d="M211.424,247.634L120.097,247.634C119.187,247.634 118.442,246.89 118.442,245.981C118.442,245.071 119.187,244.327 120.097,244.327L211.424,244.327C212.333,244.327 213.077,245.071 213.077,245.981C213.077,246.89 212.333,247.634 211.424,247.634Z" style="fill:rgb(113,197,152);fill-rule:nonzero;"/>
        </g>
        <g transform="matrix(4.16667,0,0,4.16667,0,0)">
            <path d="M164.584,278.937L120.097,278.937C119.187,278.937 118.442,278.193 118.442,277.284C118.442,276.374 119.187,275.63 120.097,275.63L164.584,275.63C165.494,275.63 166.238,276.374 166.238,277.284C166.238,278.193 165.494,278.937 164.584,278.937Z" style="fill:rgb(113,197,152);fill-rule:nonzero;"/>
        </g>
        <g transform="matrix(4.16667,0,0,4.16667,0,0)">
            <path d="M216.919,278.937L172.432,278.937C171.522,278.937 170.777,278.193 170.777,277.284C170.777,276.374 171.522,275.63 172.432,275.63L216.919,275.63C217.829,275.63 218.573,276.374 218.573,277.284C218.573,278.193 217.829,278.937 216.919,278.937Z" style="fill:rgb(113,197,152);fill-rule:nonzero;"/>
        </g>
        <g transform="matrix(4.16667,0,0,4.16667,0,0)">
            <path d="M237.97,278.937L225.766,278.937C224.856,278.937 224.111,278.193 224.111,277.284C224.111,276.374 224.856,275.63 225.766,275.63L237.97,275.63C238.88,275.63 239.624,276.374 239.624,277.284C239.624,278.193 238.88,278.937 237.97,278.937Z" style="fill:rgb(121,163,214);fill-rule:nonzero;"/>
        </g>
        <g transform="matrix(4.16667,0,0,4.16667,0,0)">
            <path d="M178.867,310.241L120.097,310.241C119.187,310.241 118.442,309.497 118.442,308.587C118.442,307.677 119.187,306.932 120.097,306.932L178.867,306.932C179.777,306.932 180.521,307.677 180.521,308.587C180.521,309.497 179.777,310.241 178.867,310.241Z" style="fill:rgb(113,197,152);fill-rule:nonzero;"/>
        </g>
        <g transform="matrix(4.16667,0,0,4.16667,0,0)">
            <path d="M222.91,310.241L187.861,310.241C186.951,310.241 186.207,309.497 186.207,308.587C186.207,307.677 186.951,306.932 187.861,306.932L222.91,306.932C223.819,306.932 224.564,307.677 224.564,308.587C224.564,309.497 223.819,310.241 222.91,310.241Z" style="fill:rgb(121,163,214);fill-rule:nonzero;"/>
        </g>
        <g transform="matrix(4.16667,0,0,4.16667,0,0)">
            <path d="M141.593,289.372L120.097,289.372C119.187,289.372 118.442,288.628 118.442,287.718C118.442,286.808 119.187,286.064 120.097,286.064L141.593,286.064C142.502,286.064 143.246,286.808 143.246,287.718C143.246,288.628 142.502,289.372 141.593,289.372Z" style="fill:rgb(121,163,214);fill-rule:nonzero;"/>
        </g>
        <g transform="matrix(4.16667,0,0,4.16667,0,0)">
            <path d="M185.635,289.372L147.628,289.372C146.719,289.372 145.974,288.628 145.974,287.719C145.974,286.808 146.719,286.064 147.628,286.064L185.635,286.064C186.545,286.064 187.289,286.808 187.289,287.719C187.289,288.628 186.545,289.372 185.635,289.372Z" style="fill:rgb(113,197,152);fill-rule:nonzero;"/>
        </g>
        <g transform="matrix(4.16667,0,0,4.16667,0,0)">
            <path d="M159.286,268.504L120.097,268.504C119.187,268.504 118.442,267.759 118.442,266.849C118.442,265.94 119.187,265.195 120.097,265.195L159.286,265.195C160.195,265.195 160.94,265.94 160.94,266.849C160.94,267.759 160.195,268.504 159.286,268.504Z" style="fill:rgb(113,197,152);fill-rule:nonzero;"/>
        </g>
        <g transform="matrix(4.16667,0,0,4.16667,0,0)">
            <path d="M249.729,268.504L167.444,268.504C166.58,268.504 165.873,267.797 165.873,266.932L165.873,266.767C165.873,265.902 166.58,265.195 167.444,265.195L249.729,265.195C250.593,265.195 251.3,265.902 251.3,266.767L251.3,266.932C251.3,267.797 250.593,268.504 249.729,268.504Z" style="fill:rgb(121,163,214);fill-rule:nonzero;"/>
        </g>
        <g transform="matrix(4.16667,0,0,4.16667,0,0)">
            <path d="M237.97,299.806L218.48,299.806C217.57,299.806 216.826,299.062 216.826,298.152C216.826,297.243 217.57,296.499 218.48,296.499L237.97,296.499C238.88,296.499 239.624,297.243 239.624,298.152C239.624,299.062 238.88,299.806 237.97,299.806Z" style="fill:rgb(121,163,214);fill-rule:nonzero;"/>
        </g>
        <g transform="matrix(4.16667,0,0,4.16667,0,0)">
            <path d="M211.424,299.806L120.097,299.806C119.187,299.806 118.442,299.062 118.442,298.152C118.442,297.243 119.187,296.499 120.097,296.499L211.424,296.499C212.333,296.499 213.077,297.243 213.077,298.152C213.077,299.062 212.333,299.806 211.424,299.806Z" style="fill:rgb(113,197,152);fill-rule:nonzero;"/>
        </g>
        <g transform="matrix(4.16667,0,0,4.16667,0,0)">
            <path d="M379.656,372.926L34.414,372.926L101.644,320.564L312.427,320.564L379.656,372.926Z" style="fill:rgb(165,205,237);fill-rule:nonzero;"/>
        </g>
        <g transform="matrix(4.16667,0,0,4.16667,0,0)">
            <path d="M86.761,324.227L96.037,317.236C96.257,317.07 96.301,316.757 96.136,316.537C95.97,316.317 95.657,316.273 95.436,316.439L86.16,323.429C85.94,323.595 85.896,323.908 86.062,324.128C86.228,324.348 86.541,324.392 86.761,324.227Z" style="fill:rgb(126,179,201);fill-rule:nonzero;"/>
        </g>
        <g transform="matrix(4.16667,0,0,4.16667,0,0)">
            <path d="M53.407,349.354L83.402,326.756C83.623,326.59 83.667,326.277 83.501,326.057C83.335,325.837 83.022,325.793 82.802,325.958L52.807,348.557C52.586,348.723 52.542,349.036 52.708,349.256C52.874,349.476 53.187,349.52 53.407,349.354Z" style="fill:rgb(126,179,201);fill-rule:nonzero;"/>
        </g>
        <g transform="matrix(4.16667,0,0,4.16667,0,0)">
            <path d="M69.957,383.768L26.179,383.768C24.269,383.766 22.743,383.001 21.669,381.838C20.596,380.676 19.993,379.107 19.994,377.529C19.997,375.747 20.746,373.964 22.465,372.666L32.073,365.427C32.293,365.261 32.338,364.948 32.172,364.728C32.006,364.507 31.693,364.463 31.473,364.629L21.864,371.869C19.892,373.35 18.991,375.465 18.995,377.529C18.996,379.36 19.688,381.161 20.934,382.515C22.179,383.869 23.995,384.769 26.179,384.767L69.957,384.767C70.232,384.767 70.456,384.543 70.456,384.267C70.456,383.992 70.232,383.768 69.957,383.768Z" style="fill:rgb(126,179,201);fill-rule:nonzero;"/>
        </g>
        <g transform="matrix(4.16667,0,0,4.16667,0,0)">
            <path d="M254.793,383.768L101.644,383.768C101.368,383.768 101.144,383.992 101.144,384.267C101.144,384.543 101.368,384.767 101.644,384.767L254.793,384.767C255.069,384.767 255.292,384.543 255.292,384.267C255.292,383.992 255.069,383.768 254.793,383.768Z" style="fill:rgb(126,179,201);fill-rule:nonzero;"/>
        </g>
        <g transform="matrix(4.16667,0,0,4.16667,0,0)">
            <path d="M356.483,383.768L282.513,383.768C282.237,383.768 282.013,383.992 282.013,384.267C282.013,384.543 282.237,384.767 282.513,384.767L356.483,384.767C356.759,384.767 356.983,384.543 356.983,384.267C356.983,383.992 356.759,383.768 356.483,383.768Z" style="fill:rgb(126,179,201);fill-rule:nonzero;"/>
        </g>
        <g transform="matrix(4.16667,0,0,4.16667,0,0)">
            <path d="M353.538,344.989L366.783,354.968C367.003,355.134 367.316,355.09 367.482,354.869C367.648,354.649 367.604,354.336 367.383,354.17L354.139,344.192C353.919,344.026 353.606,344.07 353.44,344.29C353.274,344.51 353.318,344.823 353.538,344.989Z" style="fill:rgb(126,179,201);fill-rule:nonzero;"/>
        </g>
        <g transform="matrix(4.16667,0,0,4.16667,0,0)">
            <path d="M325.576,323.922L350.913,343.012C351.134,343.178 351.447,343.134 351.613,342.913C351.778,342.693 351.734,342.38 351.514,342.214L326.176,323.124C325.956,322.959 325.643,323.003 325.477,323.223C325.311,323.443 325.355,323.756 325.576,323.922Z" style="fill:rgb(126,179,201);fill-rule:nonzero;"/>
        </g>
        <g transform="matrix(4.16667,0,0,4.16667,0,0)">
            <path d="M123.156,325.47L111.682,325.47L115.868,322.183L126.84,322.183L123.156,325.47Z" style="fill:rgb(104,133,154);fill-rule:nonzero;"/>
        </g>
        <g transform="matrix(4.16667,0,0,4.16667,0,0)">
            <path d="M116.603,331.58L103.899,331.58L108.78,327.748L120.882,327.748L116.603,331.58Z" style="fill:rgb(104,133,154);fill-rule:nonzero;"/>
        </g>
        <g transform="matrix(4.16667,0,0,4.16667,0,0)">
            <path d="M135.959,331.58L123.256,331.58L127.221,327.748L139.323,327.748L135.959,331.58Z" style="fill:rgb(104,133,154);fill-rule:nonzero;"/>
        </g>
        <g transform="matrix(4.16667,0,0,4.16667,0,0)">
            <path d="M155.316,331.58L142.613,331.58L145.662,327.748L157.764,327.748L155.316,331.58Z" style="fill:rgb(104,133,154);fill-rule:nonzero;"/>
        </g>
        <g transform="matrix(4.16667,0,0,4.16667,0,0)">
            <path d="M174.673,331.58L161.97,331.58L164.103,327.748L176.205,327.748L174.673,331.58Z" style="fill:rgb(104,133,154);fill-rule:nonzero;"/>
        </g>
        <g transform="matrix(4.16667,0,0,4.16667,0,0)">
            <path d="M194.03,331.58L181.327,331.58L182.544,327.748L194.646,327.748L194.03,331.58Z" style="fill:rgb(104,133,154);fill-rule:nonzero;"/>
        </g>
        <g transform="matrix(4.16667,0,0,4.16667,0,0)">
            <path d="M213.387,331.58L200.684,331.58L200.984,327.748L213.086,327.748L213.387,331.58Z" style="fill:rgb(104,133,154);fill-rule:nonzero;"/>
        </g>
        <g transform="matrix(4.16667,0,0,4.16667,0,0)">
            <path d="M232.744,331.58L220.041,331.58L219.426,327.748L231.527,327.748L232.744,331.58Z" style="fill:rgb(104,133,154);fill-rule:nonzero;"/>
        </g>
        <g transform="matrix(4.16667,0,0,4.16667,0,0)">
            <path d="M252.101,331.58L239.397,331.58L237.866,327.748L249.968,327.748L252.101,331.58Z" style="fill:rgb(104,133,154);fill-rule:nonzero;"/>
        </g>
        <g transform="matrix(4.16667,0,0,4.16667,0,0)">
            <path d="M271.458,331.58L258.755,331.58L256.308,327.748L268.409,327.748L271.458,331.58Z" style="fill:rgb(104,133,154);fill-rule:nonzero;"/>
        </g>
        <g transform="matrix(4.16667,0,0,4.16667,0,0)">
            <path d="M290.814,331.58L278.111,331.58L274.748,327.748L286.85,327.748L290.814,331.58Z" style="fill:rgb(104,133,154);fill-rule:nonzero;"/>
        </g>
        <g transform="matrix(4.16667,0,0,4.16667,0,0)">
            <path d="M310.172,331.58L297.469,331.58L293.188,327.748L305.291,327.748L310.172,331.58Z" style="fill:rgb(104,133,154);fill-rule:nonzero;"/>
        </g>
        <g transform="matrix(4.16667,0,0,4.16667,0,0)">
            <path d="M109.446,337.987L95.737,337.987L101.4,333.542L114.411,333.542L109.446,337.987Z" style="fill:rgb(104,133,154);fill-rule:nonzero;"/>
        </g>
        <g transform="matrix(4.16667,0,0,4.16667,0,0)">
            <path d="M130.335,337.987L116.626,337.987L121.227,333.542L134.237,333.542L130.335,337.987Z" style="fill:rgb(104,133,154);fill-rule:nonzero;"/>
        </g>
        <g transform="matrix(4.16667,0,0,4.16667,0,0)">
            <path d="M151.224,337.987L137.516,337.987L141.053,333.542L154.063,333.542L151.224,337.987Z" style="fill:rgb(104,133,154);fill-rule:nonzero;"/>
        </g>
        <g transform="matrix(4.16667,0,0,4.16667,0,0)">
            <path d="M172.112,337.987L158.404,337.987L160.878,333.542L173.889,333.542L172.112,337.987Z" style="fill:rgb(104,133,154);fill-rule:nonzero;"/>
        </g>
        <g transform="matrix(4.16667,0,0,4.16667,0,0)">
            <path d="M193.001,337.987L179.293,337.987L180.704,333.542L193.715,333.542L193.001,337.987Z" style="fill:rgb(104,133,154);fill-rule:nonzero;"/>
        </g>
        <g transform="matrix(4.16667,0,0,4.16667,0,0)">
            <path d="M213.89,337.987L200.182,337.987L200.53,333.542L213.541,333.542L213.89,337.987Z" style="fill:rgb(104,133,154);fill-rule:nonzero;"/>
        </g>
        <g transform="matrix(4.16667,0,0,4.16667,0,0)">
            <path d="M234.778,337.987L221.07,337.987L220.356,333.542L233.367,333.542L234.778,337.987Z" style="fill:rgb(104,133,154);fill-rule:nonzero;"/>
        </g>
        <g transform="matrix(4.16667,0,0,4.16667,0,0)">
            <path d="M255.667,337.987L241.959,337.987L240.182,333.542L253.192,333.542L255.667,337.987Z" style="fill:rgb(104,133,154);fill-rule:nonzero;"/>
        </g>
        <g transform="matrix(4.16667,0,0,4.16667,0,0)">
            <path d="M276.556,337.987L262.848,337.987L260.008,333.542L273.019,333.542L276.556,337.987Z" style="fill:rgb(104,133,154);fill-rule:nonzero;"/>
        </g>
        <g transform="matrix(4.16667,0,0,4.16667,0,0)">
            <path d="M297.444,337.987L283.736,337.987L279.834,333.542L292.845,333.542L297.444,337.987Z" style="fill:rgb(104,133,154);fill-rule:nonzero;"/>
        </g>
        <g transform="matrix(4.16667,0,0,4.16667,0,0)">
            <path d="M318.333,337.987L304.625,337.987L299.659,333.542L312.671,333.542L318.333,337.987Z" style="fill:rgb(104,133,154);fill-rule:nonzero;"/>
        </g>
        <g transform="matrix(4.16667,0,0,4.16667,0,0)">
            <path d="M100.617,345.891L85.668,345.891L92.372,340.63L106.494,340.63L100.617,345.891Z" style="fill:rgb(104,133,154);fill-rule:nonzero;"/>
        </g>
        <g transform="matrix(4.16667,0,0,4.16667,0,0)">
            <path d="M123.396,345.891L108.447,345.891L113.893,340.63L128.015,340.63L123.396,345.891Z" style="fill:rgb(104,133,154);fill-rule:nonzero;"/>
        </g>
        <g transform="matrix(4.16667,0,0,4.16667,0,0)">
            <path d="M259.711,345.891L131.226,345.891L135.413,340.63L256.802,340.63L259.711,345.891Z" style="fill:rgb(104,133,154);fill-rule:nonzero;"/>
        </g>
        <g transform="matrix(4.16667,0,0,4.16667,0,0)">
            <path d="M282.845,345.891L267.896,345.891L264.535,340.63L278.658,340.63L282.845,345.891Z" style="fill:rgb(104,133,154);fill-rule:nonzero;"/>
        </g>
        <g transform="matrix(4.16667,0,0,4.16667,0,0)">
            <path d="M305.624,345.891L290.675,345.891L286.056,340.63L300.179,340.63L305.624,345.891Z" style="fill:rgb(104,133,154);fill-rule:nonzero;"/>
        </g>
        <g transform="matrix(4.16667,0,0,4.16667,0,0)">
            <path d="M328.402,345.891L313.454,345.891L307.576,340.63L321.699,340.63L328.402,345.891Z" style="fill:rgb(104,133,154);fill-rule:nonzero;"/>
        </g>
        <g transform="matrix(4.16667,0,0,4.16667,0,0)">
            <path d="M146.38,325.47L134.905,325.47L138.072,322.183L149.044,322.183L146.38,325.47Z" style="fill:rgb(104,133,154);fill-rule:nonzero;"/>
        </g>
        <g transform="matrix(4.16667,0,0,4.16667,0,0)">
            <path d="M162.773,325.47L151.298,325.47L153.746,322.183L164.717,322.183L162.773,325.47Z" style="fill:rgb(104,133,154);fill-rule:nonzero;"/>
        </g>
        <g transform="matrix(4.16667,0,0,4.16667,0,0)">
            <path d="M179.167,325.47L167.691,325.47L169.419,322.183L180.391,322.183L179.167,325.47Z" style="fill:rgb(104,133,154);fill-rule:nonzero;"/>
        </g>
        <g transform="matrix(4.16667,0,0,4.16667,0,0)">
            <path d="M195.561,325.47L184.085,325.47L185.093,322.183L196.064,322.183L195.561,325.47Z" style="fill:rgb(104,133,154);fill-rule:nonzero;"/>
        </g>
        <g transform="matrix(4.16667,0,0,4.16667,0,0)">
            <path d="M211.953,325.47L200.479,325.47L200.766,322.183L211.737,322.183L211.953,325.47Z" style="fill:rgb(104,133,154);fill-rule:nonzero;"/>
        </g>
        <g transform="matrix(4.16667,0,0,4.16667,0,0)">
            <path d="M228.347,325.47L216.871,325.47L216.439,322.183L227.411,322.183L228.347,325.47Z" style="fill:rgb(104,133,154);fill-rule:nonzero;"/>
        </g>
        <g transform="matrix(4.16667,0,0,4.16667,0,0)">
            <path d="M245.286,325.47L233.812,325.47L232.636,322.183L243.606,322.183L245.286,325.47Z" style="fill:rgb(104,133,154);fill-rule:nonzero;"/>
        </g>
        <g transform="matrix(4.16667,0,0,4.16667,0,0)">
            <path d="M271.242,325.47L259.768,325.47L257.452,322.183L268.423,322.183L271.242,325.47Z" style="fill:rgb(104,133,154);fill-rule:nonzero;"/>
        </g>
        <g transform="matrix(4.16667,0,0,4.16667,0,0)">
            <path d="M286.816,325.47L275.341,325.47L272.342,322.183L283.313,322.183L286.816,325.47Z" style="fill:rgb(104,133,154);fill-rule:nonzero;"/>
        </g>
        <g transform="matrix(4.16667,0,0,4.16667,0,0)">
            <path d="M302.39,325.47L290.914,325.47L287.231,322.183L298.203,322.183L302.39,325.47Z" style="fill:rgb(104,133,154);fill-rule:nonzero;"/>
        </g>
        <g transform="matrix(4.16667,0,0,4.16667,0,0)">
            <path d="M246.394,365.827L167.678,365.827L173.889,351.182L240.182,351.182L246.394,365.827Z" style="fill:rgb(120,168,209);fill-rule:nonzero;"/>
        </g>
        <g transform="matrix(4.16667,0,0,4.16667,0,0)">
            <path d="M374.541,378.695L39.529,378.695C36.705,378.695 34.414,376.405 34.414,373.58L34.414,372.926L379.656,372.926L379.656,373.58C379.656,376.405 377.366,378.695 374.541,378.695Z" style="fill:rgb(135,186,229);fill-rule:nonzero;"/>
        </g>
        <g transform="matrix(4.16667,0,0,4.16667,0,0)">
            <path d="M254.793,198.088L251.3,198.088L251.3,152.508C252.434,151.791 253.598,151.121 254.793,150.501L254.793,198.088ZM167.042,198.088L165.71,198.088C165.579,197.273 165.198,196.49 164.574,195.866L164.048,195.34L164.048,134.994C164.048,133.509 165.252,132.304 166.738,132.304L167.042,132.304L167.042,198.088ZM164.694,198.088L164.048,198.088L164.048,196.768C164.377,197.159 164.592,197.613 164.694,198.088ZM251.3,151.331L251.3,138.222L242.115,138.222L242.115,132.304L252.103,132.304C253.588,132.304 254.793,133.509 254.793,134.994L254.793,149.379C253.601,149.982 252.434,150.634 251.3,151.331ZM241.117,138.222L196.458,138.222C196.585,137.219 197.034,136.253 197.8,135.486L200.982,132.304L241.117,132.304L241.117,138.222ZM195.453,138.222L168.04,138.222L168.04,132.304L199.57,132.304L197.094,134.78C196.135,135.739 195.584,136.963 195.453,138.222Z" style="fill:rgb(153,171,216);fill-rule:nonzero;"/>
        </g>
        <g transform="matrix(4.16667,0,0,4.16667,0,0)">
            <path d="M167.541,198.088L167.042,198.088L167.042,132.304L168.04,132.304L168.04,138.222L167.541,138.222L167.541,198.088Z" style="fill:rgb(144,168,215);fill-rule:nonzero;"/>
        </g>
        <g transform="matrix(4.16667,0,0,4.16667,0,0)">
            <rect x="241.117" y="132.304" width="0.998" height="5.918" style="fill:rgb(144,168,215);fill-rule:nonzero;"/>
        </g>
        <g transform="matrix(4.16667,0,0,4.16667,0,0)">
            <path d="M251.3,152.508L251.3,151.331C252.434,150.634 253.601,149.982 254.793,149.379L254.793,150.501C253.598,151.121 252.434,151.791 251.3,152.508ZM196.458,138.222L195.453,138.222C195.584,136.963 196.135,135.739 197.094,134.78L199.57,132.304L200.982,132.304L197.8,135.486C197.034,136.253 196.585,137.219 196.458,138.222Z" style="fill:rgb(136,161,211);fill-rule:nonzero;"/>
        </g>
        <g transform="matrix(4.16667,0,0,4.16667,0,0)">
            <path d="M165.71,198.088L164.694,198.088C164.592,197.613 164.377,197.159 164.048,196.768L164.048,195.34L164.574,195.866C165.198,196.49 165.579,197.273 165.71,198.088Z" style="fill:rgb(136,161,211);fill-rule:nonzero;"/>
        </g>
        <g transform="matrix(4.16667,0,0,4.16667,0,0)">
            <path d="M254.793,201.698L251.3,201.698L251.3,198.088L254.793,198.088L254.793,201.698ZM167.541,201.698L164.048,201.698L164.048,198.088L167.541,198.088L167.541,201.698Z" style="fill:rgb(141,164,213);fill-rule:nonzero;"/>
        </g>
        <g transform="matrix(4.16667,0,0,4.16667,0,0)">
            <path d="M252.103,286.064L166.738,286.064C165.252,286.064 164.048,284.859 164.048,283.374L164.048,278.937L164.584,278.937C165.494,278.937 166.238,278.193 166.238,277.284C166.238,276.374 165.494,275.63 164.584,275.63L164.048,275.63L164.048,258.069L167.541,258.069L167.541,265.195L167.444,265.195C166.58,265.195 165.873,265.902 165.873,266.767L165.873,266.932C165.873,267.797 166.58,268.504 167.444,268.504L249.729,268.504C250.593,268.504 251.3,267.797 251.3,266.932L251.3,216.332L254.793,216.332L254.793,283.374C254.793,284.859 253.588,286.064 252.103,286.064ZM204.804,278.937C205.626,280.66 207.384,281.85 209.42,281.85C211.456,281.85 213.215,280.66 214.037,278.937L216.919,278.937C217.829,278.937 218.573,278.193 218.573,277.284C218.573,276.374 217.829,275.63 216.919,275.63L214.411,275.63C213.905,273.34 211.862,271.628 209.42,271.628C206.979,271.628 204.936,273.34 204.429,275.63L172.432,275.63C171.522,275.63 170.777,276.374 170.777,277.284C170.777,278.193 171.522,278.937 172.432,278.937L204.804,278.937ZM225.766,275.63C224.856,275.63 224.111,276.374 224.111,277.284C224.111,278.193 224.856,278.937 225.766,278.937L237.97,278.937C238.88,278.937 239.624,278.193 239.624,277.284C239.624,276.374 238.88,275.63 237.97,275.63L225.766,275.63ZM167.541,254.761L164.048,254.761L164.048,247.634L167.541,247.634L167.541,254.761ZM167.541,244.327L164.048,244.327L164.048,237.2L167.541,237.2L167.541,244.327ZM167.541,233.892L164.048,233.892L164.048,226.766L164.584,226.766C165.494,226.766 166.238,226.022 166.238,225.112C166.238,224.202 165.494,223.458 164.584,223.458L164.048,223.458L164.048,201.698L167.541,201.698L167.541,213.024L167.527,213.024C166.617,213.024 165.873,213.768 165.873,214.677C165.873,215.587 166.617,216.332 167.527,216.332L167.541,216.332L167.541,233.892ZM254.793,213.024L251.3,213.024L251.3,201.698L254.793,201.698L254.793,213.024Z" style="fill:rgb(128,152,206);fill-rule:nonzero;"/>
        </g>
        <g transform="matrix(4.16667,0,0,4.16667,0,0)">
            <path d="M164.584,226.766L164.048,226.766L164.048,223.458L164.584,223.458C165.494,223.458 166.238,224.202 166.238,225.112C166.238,226.022 165.494,226.766 164.584,226.766Z" style="fill:rgb(129,171,219);fill-rule:nonzero;"/>
        </g>
        <g transform="matrix(4.16667,0,0,4.16667,0,0)">
            <rect x="164.048" y="254.761" width="3.493" height="3.308" style="fill:rgb(129,171,219);fill-rule:nonzero;"/>
        </g>
        <g transform="matrix(4.16667,0,0,4.16667,0,0)">
            <rect x="164.048" y="233.892" width="3.493" height="3.308" style="fill:rgb(129,171,219);fill-rule:nonzero;"/>
        </g>
        <g transform="matrix(4.16667,0,0,4.16667,0,0)">
            <path d="M254.793,216.332L251.3,216.332L251.3,213.024L254.793,213.024L254.793,216.332ZM167.541,216.332L167.527,216.332C166.617,216.332 165.873,215.587 165.873,214.677C165.873,213.768 166.617,213.024 167.527,213.024L167.541,213.024L167.541,216.332Z" style="fill:rgb(135,160,210);fill-rule:nonzero;"/>
        </g>
        <g transform="matrix(4.16667,0,0,4.16667,0,0)">
            <rect x="164.048" y="244.327" width="3.493" height="3.307" style="fill:rgb(129,171,219);fill-rule:nonzero;"/>
        </g>
        <g transform="matrix(4.16667,0,0,4.16667,0,0)">
            <path d="M164.584,278.937L164.048,278.937L164.048,275.63L164.584,275.63C165.494,275.63 166.238,276.374 166.238,277.284C166.238,278.193 165.494,278.937 164.584,278.937Z" style="fill:rgb(129,171,219);fill-rule:nonzero;"/>
        </g>
        <g transform="matrix(4.16667,0,0,4.16667,0,0)">
            <path d="M216.919,278.937L214.037,278.937C214.354,278.271 214.532,277.526 214.532,276.739C214.532,276.358 214.491,275.987 214.411,275.63L216.919,275.63C217.829,275.63 218.573,276.374 218.573,277.284C218.573,278.193 217.829,278.937 216.919,278.937ZM204.804,278.937L172.432,278.937C171.522,278.937 170.777,278.193 170.777,277.284C170.777,276.374 171.522,275.63 172.432,275.63L204.429,275.63C204.35,275.987 204.309,276.358 204.309,276.739C204.309,277.526 204.486,278.271 204.804,278.937Z" style="fill:rgb(129,171,219);fill-rule:nonzero;"/>
        </g>
        <g transform="matrix(4.16667,0,0,4.16667,0,0)">
            <path d="M237.97,278.937L225.766,278.937C224.856,278.937 224.111,278.193 224.111,277.284C224.111,276.374 224.856,275.63 225.766,275.63L237.97,275.63C238.88,275.63 239.624,276.374 239.624,277.284C239.624,278.193 238.88,278.937 237.97,278.937Z" style="fill:rgb(135,160,210);fill-rule:nonzero;"/>
        </g>
        <g transform="matrix(4.16667,0,0,4.16667,0,0)">
            <path d="M249.729,268.504L167.444,268.504C166.58,268.504 165.873,267.797 165.873,266.932L165.873,266.767C165.873,265.902 166.58,265.195 167.444,265.195L167.541,265.195L167.541,266.849L251.3,266.849L251.3,266.932C251.3,267.797 250.593,268.504 249.729,268.504Z" style="fill:rgb(135,160,210);fill-rule:nonzero;"/>
        </g>
        <g transform="matrix(4.16667,0,0,4.16667,0,0)">
            <path d="M251.3,198.088L242.115,198.088L242.115,160.056C244.848,157.178 247.934,154.637 251.3,152.508L251.3,198.088ZM241.117,198.088L229.358,198.088C229.16,196.325 229.058,194.533 229.058,192.716C229.058,191.117 229.137,189.499 229.299,187.867C230.304,177.704 234.612,168.427 241.117,161.141L241.117,198.088ZM228.354,198.088L180.4,198.088L180.4,177.496C180.399,175.013 182.326,172.957 184.802,172.796L198.65,171.891L198.743,171.547C200.555,164.87 203.207,158.542 206.573,152.672L206.75,152.362L197.59,141.923C196.807,141.03 196.421,139.925 196.42,138.817C196.42,138.618 196.433,138.419 196.458,138.222L241.117,138.222L241.117,159.659C234.061,167.215 229.373,177.001 228.305,187.768C228.14,189.434 228.059,191.084 228.059,192.716C228.059,194.532 228.159,196.324 228.354,198.088ZM179.401,198.088L168.04,198.088L168.04,138.222L195.453,138.222C195.432,138.42 195.422,138.619 195.422,138.817C195.422,140.156 195.892,141.502 196.84,142.581L205.53,152.485C202.264,158.239 199.673,164.424 197.874,170.941L184.737,171.799C181.735,171.995 179.401,174.487 179.401,177.496L179.401,198.088ZM242.115,158.621L242.115,138.222L251.3,138.222L251.3,151.331C247.953,153.388 244.868,155.841 242.115,158.621Z" style="fill:rgb(187,223,246);fill-rule:nonzero;"/>
        </g>
        <g transform="matrix(4.16667,0,0,4.16667,0,0)">
            <rect x="167.541" y="138.222" width="0.499" height="59.866" style="fill:rgb(176,219,245);fill-rule:nonzero;"/>
        </g>
        <g transform="matrix(4.16667,0,0,4.16667,0,0)">
            <path d="M242.115,198.088L241.117,198.088L241.117,161.141C241.444,160.774 241.777,160.413 242.115,160.056L242.115,198.088ZM241.117,159.659L241.117,138.222L242.115,138.222L242.115,158.621C241.777,158.962 241.445,159.308 241.117,159.659Z" style="fill:rgb(176,219,245);fill-rule:nonzero;"/>
        </g>
        <g transform="matrix(4.16667,0,0,4.16667,0,0)">
            <path d="M229.358,198.088L228.354,198.088C228.159,196.324 228.059,194.532 228.059,192.716C228.059,191.084 228.14,189.434 228.305,187.768C229.373,177.001 234.061,167.215 241.117,159.659C241.445,159.308 241.777,158.962 242.115,158.621C244.868,155.841 247.953,153.388 251.3,151.331L251.3,152.508C247.934,154.637 244.848,157.178 242.115,160.056C241.777,160.413 241.444,160.774 241.117,161.141C234.612,168.427 230.304,177.704 229.299,187.867C229.137,189.499 229.058,191.117 229.058,192.716C229.058,194.533 229.16,196.325 229.358,198.088ZM180.4,198.088L179.401,198.088L179.401,177.496C179.401,174.487 181.735,171.995 184.737,171.799L197.874,170.941C199.673,164.424 202.264,158.239 205.53,152.485L196.84,142.581C195.892,141.502 195.422,140.156 195.422,138.817C195.422,138.619 195.432,138.42 195.453,138.222L196.458,138.222C196.433,138.419 196.42,138.618 196.42,138.817C196.421,139.925 196.807,141.03 197.59,141.923L206.75,152.362L206.573,152.672C203.207,158.542 200.555,164.87 198.743,171.547L198.65,171.891L184.802,172.796C182.326,172.957 180.399,175.013 180.4,177.496L180.4,198.088Z" style="fill:rgb(170,213,242);fill-rule:nonzero;"/>
        </g>
        <g transform="matrix(4.16667,0,0,4.16667,0,0)">
            <path d="M251.3,201.698L167.541,201.698L167.541,198.088L251.3,198.088L251.3,201.698Z" style="fill:rgb(174,215,242);fill-rule:nonzero;"/>
        </g>
        <g transform="matrix(4.16667,0,0,4.16667,0,0)">
            <path d="M251.3,266.849L251.3,266.767C251.3,265.902 250.593,265.195 249.729,265.195L167.541,265.195L167.541,258.069L178.867,258.069C179.777,258.069 180.521,257.325 180.521,256.415C180.521,255.506 179.777,254.761 178.867,254.761L167.541,254.761L167.541,247.634L211.424,247.634C212.333,247.634 213.077,246.89 213.077,245.981C213.077,245.071 212.333,244.327 211.424,244.327L167.541,244.327L167.541,237.2L185.635,237.2C186.545,237.2 187.289,236.456 187.289,235.547C187.289,234.636 186.545,233.892 185.635,233.892L167.541,233.892L167.541,216.332L251.3,216.332L251.3,266.849ZM187.861,254.761C186.951,254.761 186.207,255.506 186.207,256.415C186.207,257.325 186.951,258.069 187.861,258.069L222.91,258.069C223.819,258.069 224.564,257.325 224.564,256.415C224.564,255.506 223.819,254.761 222.91,254.761L187.861,254.761ZM218.48,244.327C217.57,244.327 216.826,245.071 216.826,245.981C216.826,246.89 217.57,247.634 218.48,247.634L237.97,247.634C238.88,247.634 239.624,246.89 239.624,245.981C239.624,245.071 238.88,244.327 237.97,244.327L218.48,244.327ZM225.766,223.458C224.856,223.458 224.111,224.202 224.111,225.112C224.111,226.022 224.856,226.766 225.766,226.766L237.97,226.766C238.88,226.766 239.624,226.022 239.624,225.112C239.624,224.202 238.88,223.458 237.97,223.458L225.766,223.458ZM172.432,223.458C171.522,223.458 170.777,224.202 170.777,225.112C170.777,226.022 171.522,226.766 172.432,226.766L216.919,226.766C217.829,226.766 218.573,226.022 218.573,225.112C218.573,224.202 217.829,223.458 216.919,223.458L172.432,223.458ZM251.3,213.024L167.541,213.024L167.541,201.698L251.3,201.698L251.3,213.024Z" style="fill:rgb(159,200,229);fill-rule:nonzero;"/>
        </g>
        <g transform="matrix(4.16667,0,0,4.16667,0,0)">
            <path d="M216.919,226.766L172.432,226.766C171.522,226.766 170.777,226.022 170.777,225.112C170.777,224.202 171.522,223.458 172.432,223.458L216.919,223.458C217.829,223.458 218.573,224.202 218.573,225.112C218.573,226.022 217.829,226.766 216.919,226.766Z" style="fill:rgb(164,221,233);fill-rule:nonzero;"/>
        </g>
        <g transform="matrix(4.16667,0,0,4.16667,0,0)">
            <path d="M237.97,226.766L225.766,226.766C224.856,226.766 224.111,226.022 224.111,225.112C224.111,224.202 224.856,223.458 225.766,223.458L237.97,223.458C238.88,223.458 239.624,224.202 239.624,225.112C239.624,226.022 238.88,226.766 237.97,226.766Z" style="fill:rgb(168,210,240);fill-rule:nonzero;"/>
        </g>
        <g transform="matrix(4.16667,0,0,4.16667,0,0)">
            <path d="M178.867,258.069L167.541,258.069L167.541,254.761L178.867,254.761C179.777,254.761 180.521,255.506 180.521,256.415C180.521,257.325 179.777,258.069 178.867,258.069Z" style="fill:rgb(164,221,233);fill-rule:nonzero;"/>
        </g>
        <g transform="matrix(4.16667,0,0,4.16667,0,0)">
            <path d="M222.91,258.069L187.861,258.069C186.951,258.069 186.207,257.325 186.207,256.415C186.207,255.506 186.951,254.761 187.861,254.761L222.91,254.761C223.819,254.761 224.564,255.506 224.564,256.415C224.564,257.325 223.819,258.069 222.91,258.069Z" style="fill:rgb(168,210,240);fill-rule:nonzero;"/>
        </g>
        <g transform="matrix(4.16667,0,0,4.16667,0,0)">
            <path d="M185.635,237.2L167.541,237.2L167.541,233.892L185.635,233.892C186.545,233.892 187.289,234.636 187.289,235.547C187.289,236.456 186.545,237.2 185.635,237.2Z" style="fill:rgb(164,221,233);fill-rule:nonzero;"/>
        </g>
        <g transform="matrix(4.16667,0,0,4.16667,0,0)">
            <rect x="167.541" y="213.024" width="83.759" height="3.308" style="fill:rgb(168,210,240);fill-rule:nonzero;"/>
        </g>
        <g transform="matrix(4.16667,0,0,4.16667,0,0)">
            <path d="M237.97,247.634L218.48,247.634C217.57,247.634 216.826,246.89 216.826,245.981C216.826,245.071 217.57,244.327 218.48,244.327L237.97,244.327C238.88,244.327 239.624,245.071 239.624,245.981C239.624,246.89 238.88,247.634 237.97,247.634Z" style="fill:rgb(168,210,240);fill-rule:nonzero;"/>
        </g>
        <g transform="matrix(4.16667,0,0,4.16667,0,0)">
            <path d="M211.424,247.634L167.541,247.634L167.541,244.327L211.424,244.327C212.333,244.327 213.077,245.071 213.077,245.981C213.077,246.89 212.333,247.634 211.424,247.634Z" style="fill:rgb(164,221,233);fill-rule:nonzero;"/>
        </g>
        <g transform="matrix(4.16667,0,0,4.16667,0,0)">
            <path d="M251.3,266.849L167.541,266.849L167.541,265.195L249.729,265.195C250.593,265.195 251.3,265.902 251.3,266.767L251.3,266.849Z" style="fill:rgb(168,210,240);fill-rule:nonzero;"/>
        </g>
        <g transform="matrix(4.16667,0,0,4.16667,0,0)">
            <path d="M209.42,281.85C207.384,281.85 205.626,280.66 204.804,278.937L214.037,278.937C213.215,280.66 211.456,281.85 209.42,281.85ZM214.411,275.63L204.429,275.63C204.936,273.34 206.979,271.628 209.42,271.628C211.862,271.628 213.905,273.34 214.411,275.63Z" style="fill:rgb(159,200,229);fill-rule:nonzero;"/>
        </g>
        <g transform="matrix(4.16667,0,0,4.16667,0,0)">
            <path d="M214.037,278.937L204.804,278.937C204.486,278.271 204.309,277.526 204.309,276.739C204.309,276.358 204.35,275.987 204.429,275.63L214.411,275.63C214.491,275.987 214.532,276.358 214.532,276.739C214.532,277.526 214.354,278.271 214.037,278.937Z" style="fill:rgb(164,221,233);fill-rule:nonzero;"/>
        </g>
        <g transform="matrix(4.16667,0,0,4.16667,0,0)">
            <path d="M101.554,216.624L65.387,216.624C59.077,216.624 53.96,211.508 53.96,205.197L53.96,169.031C53.96,162.72 59.077,157.605 65.387,157.605L101.554,157.605C107.864,157.605 112.98,162.72 112.98,169.031L112.98,205.197C112.98,211.508 107.864,216.624 101.554,216.624Z" style="fill:rgb(138,137,194);fill-rule:nonzero;"/>
        </g>
        <g transform="matrix(4.16667,0,0,4.16667,0,0)">
            <path d="M103.695,220.617L103.695,219.619L63.247,219.619C59.854,219.618 56.786,218.245 54.562,216.022C52.339,213.798 50.966,210.731 50.966,207.339L50.966,166.89C50.966,163.498 52.339,160.431 54.563,158.207C56.786,155.984 59.854,154.61 63.247,154.61L103.695,154.61C107.088,154.61 110.155,155.984 112.379,158.207C114.602,160.431 115.975,163.498 115.975,166.89L115.975,207.339C115.975,210.731 114.602,213.798 112.379,216.022C110.155,218.245 107.088,219.618 103.695,219.619L103.695,220.617C111.029,220.617 116.973,214.673 116.974,207.339L116.974,166.89C116.973,159.556 111.029,153.612 103.695,153.611L63.247,153.611C55.912,153.612 49.967,159.556 49.967,166.89L49.967,207.339C49.967,214.673 55.912,220.617 63.247,220.617L103.695,220.617Z" style="fill:rgb(138,137,194);fill-rule:nonzero;"/>
        </g>
        <g transform="matrix(4.16667,0,0,4.16667,0,0)">
            <path d="M65.826,186.374L68.165,186.374C69.401,186.374 70.637,185.947 70.637,184.462C70.637,182.821 68.973,182.596 67.624,182.596L65.826,182.596L65.826,186.374ZM62.317,179.628L68.231,179.628C71.537,179.628 74.28,180.685 74.28,184.462C74.28,188.196 71.74,189.342 68.389,189.342L65.826,189.342L65.826,195.549L62.317,195.549L62.317,179.628Z" style="fill:rgb(214,240,252);fill-rule:nonzero;"/>
        </g>
        <g transform="matrix(4.16667,0,0,4.16667,0,0)">
            <path d="M76.483,179.628L79.992,179.628L79.992,185.564L86.806,185.564L86.806,179.628L90.313,179.628L90.313,195.549L86.806,195.549L86.806,188.667L79.992,188.667L79.992,195.549L76.483,195.549L76.483,179.628Z" style="fill:rgb(214,240,252);fill-rule:nonzero;"/>
        </g>
        <g transform="matrix(4.16667,0,0,4.16667,0,0)">
            <path d="M97.061,186.374L99.4,186.374C100.637,186.374 101.873,185.947 101.873,184.462C101.873,182.821 100.209,182.596 98.859,182.596L97.061,182.596L97.061,186.374ZM93.552,179.628L99.465,179.628C102.772,179.628 105.516,180.685 105.516,184.462C105.516,188.196 102.975,189.342 99.625,189.342L97.061,189.342L97.061,195.549L93.552,195.549L93.552,179.628Z" style="fill:rgb(214,240,252);fill-rule:nonzero;"/>
        </g>
        <g transform="matrix(4.16667,0,0,4.16667,0,0)">
            <path d="M342.416,294.705L306.25,294.705C299.939,294.705 294.823,289.59 294.823,283.278L294.823,247.112C294.823,240.801 299.939,235.685 306.25,235.685L342.416,235.685C348.727,235.685 353.843,240.801 353.843,247.112L353.843,283.278C353.843,289.59 348.727,294.705 342.416,294.705Z" style="fill:rgb(103,145,203);fill-rule:nonzero;"/>
        </g>
        <g transform="matrix(4.16667,0,0,4.16667,0,0)">
            <path d="M344.558,298.698L344.558,297.7L304.109,297.7C300.716,297.699 297.649,296.326 295.425,294.103C293.202,291.879 291.829,288.812 291.828,285.42L291.828,244.971C291.829,241.578 293.202,238.511 295.425,236.287C297.649,234.064 300.716,232.691 304.109,232.69L344.558,232.69C347.95,232.691 351.017,234.064 353.241,236.287C355.464,238.511 356.837,241.578 356.838,244.971L356.838,285.42C356.837,288.812 355.464,291.879 353.241,294.103C351.017,296.326 347.95,297.699 344.558,297.7L344.558,298.698C351.891,298.698 357.836,292.753 357.836,285.42L357.836,244.971C357.836,237.637 351.891,231.692 344.558,231.692L304.109,231.692C296.775,231.692 290.83,237.637 290.83,244.971L290.83,285.42C290.83,292.753 296.775,298.698 304.109,298.698L344.558,298.698Z" style="fill:rgb(121,163,214);fill-rule:nonzero;"/>
        </g>
        <g transform="matrix(4.16667,0,0,4.16667,0,0)">
            <path d="M314.523,259.223C313.794,258.353 312.737,257.86 311.373,257.86C308.601,257.86 306.556,260.116 306.556,263.218C306.556,266.321 308.601,268.577 311.256,268.577C312.737,268.577 313.936,267.92 314.688,266.791L317.742,269.071C316.356,271.046 314.006,271.962 311.726,271.962C306.532,271.962 302.749,268.553 302.749,263.218C302.749,257.884 306.532,254.476 311.726,254.476C313.583,254.476 315.933,255.11 317.343,256.92L314.523,259.223Z" style="fill:rgb(214,240,252);fill-rule:nonzero;"/>
        </g>
        <g transform="matrix(4.16667,0,0,4.16667,0,0)">
            <path d="M319.437,262.937L324.395,262.937L324.395,257.977L327.356,257.977L327.356,262.937L332.314,262.937L332.314,265.897L327.356,265.897L327.356,270.857L324.395,270.857L324.395,265.897L319.437,265.897L319.437,262.937Z" style="fill:rgb(214,240,252);fill-rule:nonzero;"/>
        </g>
        <g transform="matrix(4.16667,0,0,4.16667,0,0)">
            <path d="M335.089,262.937L340.047,262.937L340.047,257.977L343.009,257.977L343.009,262.937L347.967,262.937L347.967,265.897L343.009,265.897L343.009,270.857L340.047,270.857L340.047,265.897L335.089,265.897L335.089,262.937Z" style="fill:rgb(214,240,252);fill-rule:nonzero;"/>
        </g>
        <g transform="matrix(4.16667,0,0,4.16667,0,0)">
            <path d="M310.945,213.854L285.305,213.854C280.831,213.854 277.204,210.227 277.204,205.753L277.204,180.112C277.204,175.638 280.831,172.011 285.305,172.011L310.945,172.011C315.42,172.011 319.047,175.638 319.047,180.112L319.047,205.753C319.047,210.227 315.42,213.854 310.945,213.854Z" style="fill:rgb(248,153,81);fill-rule:nonzero;"/>
        </g>
        <g transform="matrix(4.16667,0,0,4.16667,0,0)">
            <path d="M312.464,216.831L312.464,215.833L283.787,215.833C281.421,215.832 279.284,214.875 277.733,213.325C276.183,211.774 275.226,209.637 275.226,207.271L275.226,178.594C275.226,176.228 276.183,174.091 277.733,172.54C279.284,170.99 281.421,170.033 283.787,170.033L312.464,170.033C314.83,170.033 316.967,170.99 318.518,172.54C320.068,174.091 321.025,176.228 321.025,178.594L321.025,207.271C321.025,209.637 320.068,211.774 318.518,213.325C316.967,214.875 314.83,215.832 312.464,215.833L312.464,216.831C317.744,216.831 322.023,212.551 322.024,207.271L322.024,178.594C322.023,173.314 317.744,169.035 312.464,169.034L283.787,169.034C278.507,169.035 274.228,173.314 274.227,178.594L274.227,207.271C274.228,212.551 278.507,216.831 283.787,216.831L312.464,216.831Z" style="fill:rgb(248,153,81);fill-rule:nonzero;"/>
        </g>
        <g transform="matrix(4.16667,0,0,4.16667,0,0)">
            <path d="M282.624,188.248L284.557,188.248L284.557,191.518L288.309,191.518L288.309,188.248L290.241,188.248L290.241,197.017L288.309,197.017L288.309,193.227L284.557,193.227L284.557,197.017L282.624,197.017L282.624,188.248Z" style="fill:rgb(214,240,252);fill-rule:nonzero;"/>
        </g>
        <g transform="matrix(4.16667,0,0,4.16667,0,0)">
            <path d="M293.725,189.957L291.223,189.957L291.223,188.248L298.159,188.248L298.159,189.957L295.657,189.957L295.657,197.017L293.725,197.017L293.725,189.957Z" style="fill:rgb(214,240,252);fill-rule:nonzero;"/>
        </g>
        <g transform="matrix(4.16667,0,0,4.16667,0,0)">
            <path d="M299.14,188.248L302.063,188.248L304.082,193.97L304.106,193.97L306.139,188.248L309.048,188.248L309.048,197.017L307.116,197.017L307.116,190.292L307.092,190.292L304.788,197.017L303.314,197.017L301.098,190.292L301.072,190.292L301.072,197.017L299.14,197.017L299.14,188.248Z" style="fill:rgb(214,240,252);fill-rule:nonzero;"/>
        </g>
        <g transform="matrix(4.16667,0,0,4.16667,0,0)">
            <path d="M310.911,188.248L312.843,188.248L312.843,195.233L316.423,195.233L316.423,197.017L310.911,197.017L310.911,188.248Z" style="fill:rgb(214,240,252);fill-rule:nonzero;"/>
        </g>
        <g transform="matrix(4.16667,0,0,4.16667,0,0)">
            <path d="M171.017,150.931L134.852,150.931C128.539,150.931 123.425,145.816 123.425,139.505L123.425,103.339C123.425,97.029 128.539,91.913 134.852,91.913L171.017,91.913C177.328,91.913 182.443,97.029 182.443,103.339L182.443,139.505C182.443,145.816 177.328,150.931 171.017,150.931Z" style="fill:rgb(246,139,93);fill-rule:nonzero;"/>
        </g>
        <g transform="matrix(4.16667,0,0,4.16667,0,0)">
            <path d="M173.158,154.925L173.158,153.926L132.71,153.926C129.317,153.926 126.25,152.553 124.026,150.329C121.803,148.105 120.429,145.039 120.429,141.646L120.429,101.197C120.429,97.805 121.803,94.738 124.026,92.514C126.25,90.291 129.317,88.918 132.71,88.917L173.158,88.917C176.551,88.918 179.618,90.291 181.842,92.514C184.065,94.738 185.439,97.805 185.439,101.197L185.439,141.646C185.439,145.038 184.065,148.105 181.842,150.329C179.618,152.553 176.551,153.926 173.158,153.926L173.158,154.925C180.492,154.924 186.437,148.98 186.438,141.646L186.438,101.197C186.437,93.864 180.492,87.919 173.158,87.919L132.71,87.919C125.375,87.919 119.431,93.864 119.43,101.197L119.43,141.646C119.431,148.98 125.375,154.924 132.71,154.925L173.158,154.925Z" style="fill:rgb(246,139,93);fill-rule:nonzero;"/>
        </g>
        <g transform="matrix(4.16667,0,0,4.16667,0,0)">
            <path d="M139.214,123.016C139.214,125.243 138.637,127.352 135.372,127.352C133.468,127.352 132.073,126.468 131.683,124.547L134.114,123.952C134.182,124.53 134.727,125.006 135.304,125.006C136.545,125.006 136.562,123.629 136.562,122.727L136.562,115.008L139.214,115.008L139.214,123.016Z" style="fill:rgb(214,240,252);fill-rule:nonzero;"/>
        </g>
        <g transform="matrix(4.16667,0,0,4.16667,0,0)">
            <path d="M146.477,118.511L145.014,122.251L147.954,122.251L146.477,118.511ZM145.455,115.008L147.648,115.008L152.886,127.046L149.893,127.046L148.855,124.496L144.181,124.496L143.177,127.046L140.253,127.046L145.455,115.008Z" style="fill:rgb(214,240,252);fill-rule:nonzero;"/>
        </g>
        <g transform="matrix(4.16667,0,0,4.16667,0,0)">
            <path d="M151.851,115.008L154.877,115.008L157.853,122.898L157.887,122.898L160.913,115.008L163.753,115.008L158.788,127.046L156.662,127.046L151.851,115.008Z" style="fill:rgb(214,240,252);fill-rule:nonzero;"/>
        </g>
        <g transform="matrix(4.16667,0,0,4.16667,0,0)">
            <path d="M168.939,118.511L167.478,122.251L170.418,122.251L168.939,118.511ZM167.919,115.008L170.112,115.008L175.349,127.046L172.356,127.046L171.318,124.496L166.644,124.496L165.641,127.046L162.717,127.046L167.919,115.008Z" style="fill:rgb(214,240,252);fill-rule:nonzero;"/>
        </g>
        <g transform="matrix(4.16667,0,0,4.16667,0,0)">
            <path d="M129.836,292.123L103.114,292.123C98.451,292.123 94.67,288.343 94.67,283.68L94.67,256.959C94.67,252.296 98.451,248.515 103.114,248.515L129.836,248.515C134.499,248.515 138.278,252.296 138.278,256.959L138.278,283.68C138.278,288.343 134.499,292.123 129.836,292.123Z" style="fill:rgb(250,188,72);fill-rule:nonzero;"/>
        </g>
        <g transform="matrix(4.16667,0,0,4.16667,0,0)">
            <path d="M131.418,295.204L131.418,294.206L101.532,294.206C99.06,294.205 96.827,293.205 95.207,291.586C93.588,289.966 92.588,287.734 92.588,285.262L92.588,255.377C92.588,252.905 93.588,250.672 95.207,249.052C96.827,247.433 99.06,246.433 101.532,246.433L131.418,246.433C133.889,246.433 136.122,247.433 137.742,249.052C139.361,250.672 140.361,252.905 140.361,255.377L140.361,285.262C140.361,287.734 139.361,289.966 137.742,291.586C136.122,293.205 133.889,294.205 131.418,294.206L131.418,295.204C136.909,295.204 141.359,290.753 141.36,285.262L141.36,255.377C141.359,249.885 136.909,245.434 131.418,245.434L101.532,245.434C96.04,245.434 91.589,249.885 91.589,255.377L91.589,285.262C91.59,290.753 96.04,295.204 101.532,295.204L131.418,295.204Z" style="fill:rgb(250,188,72);fill-rule:nonzero;"/>
        </g>
        <g transform="matrix(4.16667,0,0,4.16667,0,0)">
            <path d="M113.584,272.093C113.584,275.218 112.772,278.178 108.19,278.178C105.518,278.178 103.561,276.937 103.012,274.241L106.424,273.405C106.52,274.217 107.283,274.885 108.096,274.885C109.837,274.885 109.861,272.952 109.861,271.687L109.861,260.852L113.584,260.852L113.584,272.093Z" style="fill:rgb(214,240,252);fill-rule:nonzero;"/>
        </g>
        <g transform="matrix(4.16667,0,0,4.16667,0,0)">
            <path d="M125.131,264.981C124.534,264.218 123.342,263.86 122.435,263.86C121.385,263.86 119.929,264.337 119.929,265.601C119.929,268.68 127.708,266.7 127.708,272.618C127.708,276.388 124.678,278.178 121.193,278.178C119.021,278.178 117.113,277.534 115.514,276.054L118.163,273.142C118.927,274.145 120.168,274.742 121.408,274.742C122.625,274.742 123.986,274.169 123.986,272.975C123.986,269.874 116.063,271.544 116.063,265.912C116.063,262.308 119.189,260.424 122.506,260.424C124.415,260.424 126.253,260.925 127.685,262.189L125.131,264.981Z" style="fill:rgb(214,240,252);fill-rule:nonzero;"/>
        </g>
        <g transform="matrix(4.16667,0,0,4.16667,0,0)">
            <path d="M359.79,309.573L358.458,309.573C358.456,310.664 357.574,311.546 356.483,311.548C355.393,311.546 354.51,310.664 354.508,309.573C354.51,308.483 355.393,307.6 356.483,307.598C357.573,307.6 358.456,308.483 358.458,309.573L359.79,309.573C359.789,307.747 358.309,306.267 356.483,306.267C354.657,306.267 353.178,307.747 353.177,309.573C353.178,311.4 354.658,312.879 356.483,312.879C358.309,312.879 359.789,311.4 359.79,309.573Z" style="fill:rgb(135,186,229);fill-rule:nonzero;"/>
        </g>
        <g transform="matrix(4.16667,0,0,4.16667,0,0)">
            <path d="M321.639,138.222L320.308,138.222C320.306,139.312 319.423,140.195 318.333,140.197C317.243,140.195 316.36,139.312 316.358,138.222C316.36,137.132 317.243,136.249 318.333,136.247C319.423,136.249 320.306,137.132 320.308,138.222L321.639,138.222C321.639,136.396 320.159,134.917 318.333,134.916C316.507,134.917 315.027,136.396 315.027,138.222C315.027,140.048 316.507,141.528 318.333,141.528C320.159,141.528 321.639,140.048 321.639,138.222Z" style="fill:rgb(135,186,229);fill-rule:nonzero;"/>
        </g>
        <g transform="matrix(4.16667,0,0,4.16667,0,0)">
            <path d="M341.528,202.536C341.528,203.481 340.762,204.247 339.816,204.247C338.871,204.247 338.104,203.481 338.104,202.536C338.104,201.591 338.871,200.824 339.816,200.824C340.762,200.824 341.528,201.591 341.528,202.536Z" style="fill:rgb(246,139,93);fill-rule:nonzero;"/>
        </g>
        <g transform="matrix(4.16667,0,0,4.16667,0,0)">
            <path d="M79.901,301.559C79.901,302.505 79.134,303.271 78.189,303.271C77.244,303.271 76.477,302.505 76.477,301.559C76.477,300.614 77.244,299.847 78.189,299.847C79.134,299.847 79.901,300.614 79.901,301.559Z" style="fill:rgb(246,139,93);fill-rule:nonzero;"/>
        </g>
        <g transform="matrix(4.16667,0,0,4.16667,0,0)">
            <path d="M101.245,138.222C101.245,139.168 100.479,139.934 99.534,139.934C98.588,139.934 97.822,139.168 97.822,138.222C97.822,137.277 98.588,136.51 99.534,136.51C100.479,136.51 101.245,137.277 101.245,138.222Z" style="fill:rgb(246,139,93);fill-rule:nonzero;"/>
        </g>
        <g transform="matrix(4.16667,0,0,4.16667,0,0)">
            <path d="M330.114,315.522C330.114,316.468 329.348,317.233 328.402,317.233C327.457,317.233 326.69,316.468 326.69,315.522C326.69,314.577 327.457,313.81 328.402,313.81C329.348,313.81 330.114,314.577 330.114,315.522Z" style="fill:rgb(246,139,93);fill-rule:nonzero;"/>
        </g>
        <g transform="matrix(4.16667,0,0,4.16667,0,0)">
            <path d="M146.552,166.893L145.221,166.893C145.219,167.984 144.337,168.866 143.246,168.868C142.156,168.866 141.273,167.983 141.271,166.893C141.273,165.802 142.156,164.92 143.246,164.918C144.337,164.92 145.219,165.802 145.221,166.893L146.552,166.893C146.552,165.067 145.073,163.587 143.246,163.587C141.42,163.587 139.94,165.066 139.94,166.893C139.94,168.719 141.42,170.199 143.246,170.199C145.073,170.199 146.552,168.719 146.552,166.893Z" style="fill:rgb(135,186,229);fill-rule:nonzero;"/>
        </g>
        <g transform="matrix(4.16667,0,0,4.16667,0,0)">
            <path d="M53.773,308.587L52.441,308.587C52.439,309.677 51.556,310.56 50.466,310.562C49.376,310.56 48.493,309.677 48.491,308.587C48.493,307.497 49.376,306.614 50.466,306.612C51.556,306.614 52.439,307.497 52.441,308.587L53.773,308.587C53.772,306.761 52.292,305.281 50.466,305.28C48.64,305.281 47.161,306.761 47.16,308.587C47.161,310.413 48.64,311.892 50.466,311.893C52.292,311.892 53.772,310.413 53.773,308.587Z" style="fill:rgb(135,186,229);fill-rule:nonzero;"/>
        </g>
        <g transform="matrix(4.16667,0,0,4.16667,0,0)">
            <path d="M84.136,138.222L82.805,138.222C82.803,139.313 81.921,140.195 80.83,140.197C79.739,140.195 78.857,139.312 78.855,138.222C78.857,137.132 79.739,136.249 80.83,136.247C81.921,136.249 82.803,137.132 82.805,138.222L84.136,138.222C84.136,136.396 82.656,134.916 80.83,134.916C79.004,134.917 77.524,136.396 77.523,138.222C77.524,140.048 79.004,141.528 80.83,141.528C82.656,141.528 84.136,140.048 84.136,138.222Z" style="fill:rgb(135,186,229);fill-rule:nonzero;"/>
        </g>
    </g>
</svg>
